<?xml version="1.0" encoding="UTF-8" standalone="no"?>
<!DOCTYPE svg PUBLIC "-//W3C//DTD SVG 1.1//EN" "http://www.w3.org/Graphics/SVG/1.1/DTD/svg11.dtd">
<svg width="100%" height="100%" viewBox="0 0 592 591" version="1.1" xmlns="http://www.w3.org/2000/svg" xmlns:xlink="http://www.w3.org/1999/xlink" xml:space="preserve" xmlns:serif="http://www.serif.com/" style="fill-rule:evenodd;clip-rule:evenodd;stroke-linejoin:round;stroke-miterlimit:2;">
    <g transform="matrix(1,0,0,1,-1469,-931)">
        <g transform="matrix(1,0,0,1,65.8593,0)">
            <g id="bB.svg" transform="matrix(1.74978,0,0,1.74978,-666.984,-698.25)">
                <g id="bB.svg1" serif:id="bB.svg" transform="matrix(4.16667,0,0,4.16667,1352.15,1100.02)">
                    <g id="bB.svg2" serif:id="bB.svg">
                        <g id="bB.svg3" serif:id="bB.svg" transform="matrix(1,0,0,1,-40.5,-40.5)">
                            <path d="M18.9,72L62.1,72L50.3,62.5L30.7,62.5L18.9,72ZM41,18.9C42.5,18.9 43.9,18.4 45,17.6L47.8,12.4L47.8,12.1C47.8,8.4 44.8,5.3 41,5.3C37.3,5.3 34.2,8.3 34.2,12.1L34.2,12.4L37,17.6C38.2,18.4 39.6,18.9 41,18.9" style="fill:rgb(28,26,29);fill-rule:nonzero;"/>
                            <path d="M48.4,20.4L38.7,38.6L37,32.7L45.1,17.5C44.1,16.7 43.1,16 42.1,15.3L39,15.3C29,21.9 19.9,32.8 19.9,47.5L30.8,62.7L50.2,62.7L61.1,47.5C61.1,36.1 55.6,27 48.4,20.4" style="fill:rgb(28,26,29);fill-rule:nonzero;"/>
                            <path d="M48.6,27.9L41.4,40.9C41.4,40.9 46.4,42.2 48.6,39C50.8,35.9 50.2,28.9 48.6,27.9ZM31.2,55.1C29.6,41.2 32.6,27 39.1,20.3L38.6,19.6C31.5,25.9 24.6,35.2 24.6,46.2L31.2,55.1ZM42.4,7.9C41.6,7.4 40.6,7.3 39.7,7.6C37.8,8.1 36.7,10.1 37.2,12C37.2,12.1 37.2,12.1 37.3,12.2C40.3,12.4 42.8,9.3 42.4,7.9Z" style="fill:rgb(207,206,207);fill-rule:nonzero;"/>
                            <path d="M50.328,62.522L62.1,72L18.9,72L30.672,62.522L19.9,47.5C19.9,33.963 27.617,23.648 36.648,16.947L34.2,12.4L34.2,12.1C34.2,8.3 37.3,5.3 41,5.3C44.8,5.3 47.8,8.4 47.8,12.1L47.8,12.4L45.068,17.474C45.078,17.483 45.089,17.491 45.1,17.5L37,32.7L38.7,38.6L48.4,20.4C55.6,27 61.1,36.1 61.1,47.5L50.328,62.522Z" style="fill:none;stroke:rgb(242,239,231);stroke-width:0.4px;"/>
                            <g transform="matrix(-0.618795,0,0,0.618795,65.5612,25.2388)">
                                <path d="M45.6,70.7L60,70.7L49.6,61.507L40.5,61.465L45.6,70.7Z" style="fill:rgb(207,206,207);fill-rule:nonzero;"/>
                            </g>
                        </g>
                        <g id="bB.svg4" serif:id="bB.svg">
                        </g>
                    </g>
                </g>
            </g>
        </g>
    </g>
</svg>
