<?xml version="1.0" encoding="UTF-8" standalone="no"?>
<!DOCTYPE svg PUBLIC "-//W3C//DTD SVG 1.1//EN" "http://www.w3.org/Graphics/SVG/1.1/DTD/svg11.dtd">
<svg width="100%" height="100%" viewBox="0 0 592 592" version="1.1" xmlns="http://www.w3.org/2000/svg" xmlns:xlink="http://www.w3.org/1999/xlink" xml:space="preserve" xmlns:serif="http://www.serif.com/" style="fill-rule:evenodd;clip-rule:evenodd;stroke-linejoin:round;stroke-miterlimit:2;">
    <g transform="matrix(1,0,0,1,-1469,-340)">
        <g transform="matrix(1,0,0,1,65.8593,0)">
            <g id="bK.svg" transform="matrix(1.74978,0,0,1.74978,-666.984,-1288.8)">
                <g id="bK.svg1" serif:id="bK.svg" transform="matrix(4.16667,0,0,4.16667,1352.15,1100.02)">
                    <g id="bK.svg2" serif:id="bK.svg">
                        <g id="bK.svg3" serif:id="bK.svg" transform="matrix(1,0,0,1,-40.5,-40.5)">
                            <g transform="matrix(1,0,0,1,0,0.9)">
                                <path d="M58.6,25.5C52.4,25.5 49.3,28.1 47.7,29.7L40.5,42.3L33.3,29.7C31.7,28.1 28.6,25.5 22.4,25.5C12.7,25.5 7.1,33.5 7.1,41.3C7.1,50.1 10.9,53.2 16,63.6L16,72L65,72L65,63.6C70.1,53.1 73.9,50.1 73.9,41.3C73.9,33.5 68.3,25.5 58.6,25.5ZM40.5,61.6L36.9,55.2L40.5,48.8L44.1,55.2L40.5,61.6Z" style="fill:rgb(28,26,29);fill-rule:nonzero;"/>
                            </g>
                            <g transform="matrix(1,0,0,1,0,0.9)">
                                <path d="M50.7,21.4L50.7,13.7L42.7,14.6L44.4,7.2L36.6,7.2L38.3,14.6L30.3,13.7L30.3,21.4L38.3,19L35.2,27.9L40.5,38.9L45.8,27.9L42.7,19L50.7,21.4Z" style="fill:rgb(28,26,29);fill-rule:nonzero;"/>
                            </g>
                            <g transform="matrix(1,0,0,1,0,0.9)">
                                <path d="M40.5,19.9L37.6,27.5L40.5,33.9L40.5,19.9ZM22.8,29.1C15.6,29.1 11.1,35.5 11.1,42C11.1,46 14,50.2 16.9,54C16.9,41.6 21.5,36.6 29.4,31.4C29.4,31.4 27.4,29.1 22.8,29.1ZM43.5,44L50.9,31.3C50.9,31.3 54.5,28.7 58.9,28.7C63.3,28.7 63.4,29.2 63.4,29.2L43.5,44ZM31.8,15.1L35.6,17.4L31.8,19.7L31.8,15.1ZM49.2,15.1L42.8,16.3L47.5,17.4L49.2,15.1ZM42.6,8.9L40.5,10.8L38.4,8.9L42.6,8.9Z" style="fill:rgb(207,206,207);fill-rule:nonzero;"/>
                            </g>
                            <path d="M58.6,26.4C68.3,26.4 73.9,34.4 73.9,42.2C73.9,51 70.1,54 65,64.5L65,72.9L16,72.9L16,64.5C10.9,54.1 7.1,51 7.1,42.2C7.1,34.4 12.7,26.4 22.4,26.4C28.6,26.4 31.7,29 33.3,30.6L40.5,43.2L47.7,30.6C49.3,29 52.4,26.4 58.6,26.4ZM40.5,62.5L44.1,56.1L40.5,49.7L36.9,56.1L40.5,62.5ZM50.7,22.3L42.7,19.9L45.8,28.8L40.5,39.8L35.2,28.8L38.3,19.9L30.3,22.3L30.3,14.6L38.3,15.5L36.6,8.1L44.4,8.1L42.7,15.5L50.7,14.6L50.7,22.3Z" style="fill:none;stroke:rgb(242,239,231);stroke-width:0.4px;"/>
                        </g>
                        <g id="bK.svg4" serif:id="bK.svg">
                        </g>
                    </g>
                </g>
            </g>
        </g>
    </g>
</svg>
