<?xml version="1.0" encoding="UTF-8" standalone="no"?>
<!DOCTYPE svg PUBLIC "-//W3C//DTD SVG 1.1//EN" "http://www.w3.org/Graphics/SVG/1.1/DTD/svg11.dtd">
<svg width="100%" height="100%" viewBox="0 0 591 591" version="1.1" xmlns="http://www.w3.org/2000/svg" xmlns:xlink="http://www.w3.org/1999/xlink" xml:space="preserve" xmlns:serif="http://www.serif.com/" style="fill-rule:evenodd;clip-rule:evenodd;stroke-linejoin:round;stroke-miterlimit:2;">
    <g transform="matrix(1,0,0,1,-879,-931)">
        <g transform="matrix(1,0,0,1,65.8593,0)">
            <g id="bN.svg" transform="matrix(1.74978,0,0,1.74978,-1257.54,-698.25)">
                <g id="bN.svg1" serif:id="bN.svg" transform="matrix(4.16667,0,0,4.16667,1352.15,1100.02)">
                    <g id="bN.svg2" serif:id="bN.svg">
                        <g id="bN.svg3" serif:id="bN.svg" transform="matrix(1,0,0,1,-40.5,-40.5)">
                            <path d="M19.6,72L67,72L65,65.9C65,65.9 64.9,48.9 64.9,39.8C64.9,22.5 56.4,14.5 48.9,11.4C43.3,9.1 34.3,9.6 34.3,9.6L37.6,16.1L12,36.4L14,48.6L27.4,52.1L33.5,47C34.7,47.5 36,47.8 37.2,48.1L37.2,48.4C37.2,48.4 22.9,57 19.6,72ZM31.4,31.3C30.8,31.6 30.3,30.8 30.8,30.3L38,24.1L40.2,27.8L31.4,31.3Z" style="fill:rgb(28,26,29);fill-rule:nonzero;"/>
                            <path d="M15.8,38L17.1,45.9L21.8,47L21.7,42.4L18.8,41.9L15.8,38ZM30.8,33.4L46.4,29.6L48.6,25.8L50.7,32.1L38.6,39.7L30.8,33.4ZM36,67.9C41.1,51.5 52.4,54.9 52.8,45.5C49.5,51.4 42.1,51.1 42.1,51.1C42.1,51.1 30.5,56.2 26.3,67.9L36,67.9Z" style="fill:rgb(207,206,207);fill-rule:nonzero;"/>
                            <path d="M19.6,72L67,72L65,65.9C65,65.9 64.9,48.9 64.9,39.8C64.9,22.5 56.4,14.5 48.9,11.4C43.3,9.1 34.3,9.6 34.3,9.6L37.6,16.1L12,36.4L14,48.6L27.4,52.1L33.5,47C34.7,47.5 36,47.8 37.2,48.1L37.2,48.4C37.2,48.4 22.9,57 19.6,72ZM31.4,31.3L30.699,31.118L30.8,30.3L38,24.1L40.2,27.8L31.4,31.3Z" style="fill:none;fill-rule:nonzero;stroke:rgb(242,239,231);stroke-width:0.4px;"/>
                        </g>
                        <g id="bN.svg4" serif:id="bN.svg">
                        </g>
                    </g>
                </g>
            </g>
        </g>
    </g>
</svg>
