<?xml version="1.0" encoding="UTF-8" standalone="no"?>
<!DOCTYPE svg PUBLIC "-//W3C//DTD SVG 1.1//EN" "http://www.w3.org/Graphics/SVG/1.1/DTD/svg11.dtd">
<svg width="100%" height="100%" viewBox="0 0 592 591" version="1.1" xmlns="http://www.w3.org/2000/svg" xmlns:xlink="http://www.w3.org/1999/xlink" xml:space="preserve" xmlns:serif="http://www.serif.com/" style="fill-rule:evenodd;clip-rule:evenodd;stroke-linecap:round;stroke-linejoin:round;stroke-miterlimit:1;">
    <g transform="matrix(1,0,0,1,-288,-931)">
        <g transform="matrix(1,0,0,1,65.8593,0)">
            <g id="bP.svg" transform="matrix(1.74978,0,0,1.74978,-1848.09,-698.25)">
                <g id="bP.svg1" serif:id="bP.svg" transform="matrix(4.16667,0,0,4.16667,1352.15,1100.02)">
                    <g id="bP.svg2" serif:id="bP.svg">
                        <g id="bP.svg3" serif:id="bP.svg" transform="matrix(1,0,0,1,-40.5,-40.5)">
                            <rect x="0" y="0" width="81" height="81" style="fill:none;fill-rule:nonzero;"/>
                            <path d="M40.5,12.5C34.5,12.5 29.8,17.3 29.8,23.2C29.8,26.8 31.6,30.1 34.4,32L46.7,32C49.5,30.1 51.3,26.8 51.3,23.2C51.2,17.2 46.5,12.5 40.5,12.5" style="fill:rgb(28,26,29);fill-rule:nonzero;"/>
                            <path d="M43.2,16.4C41.7,15.5 39.9,15.3 38,15.8C34.4,16.8 32.4,20.4 33.3,24C33.3,24.1 33.4,24.2 33.4,24.3C39.2,25 44,19.1 43.2,16.4Z" style="fill:rgb(207,206,207);fill-rule:nonzero;"/>
                            <path d="M34.5,31.7L34.2,39.4L30.7,61.1L18.3,72L62.6,72L50.3,61.1L46,39.4L45.7,31.7" style="fill:rgb(28,26,29);fill-rule:nonzero;"/>
                            <path d="M37.7,39.6L33.8,62.1L27.2,69.2L34.8,69.2L40,63.8L40.1,39.6L37.7,39.6Z" style="fill:rgb(207,206,207);fill-rule:nonzero;"/>
                            <path d="M26.6,38.8L54.4,38.8L47.7,30.8L33.3,30.8L26.6,38.8Z" style="fill:rgb(28,26,29);fill-rule:nonzero;"/>
                            <path d="M32.3,36.5L40.55,36.5L40.45,32.5L35.2,32.5L32.3,36.5Z" style="fill:rgb(207,206,207);fill-rule:nonzero;"/>
                            <path d="M45.977,38.8L46,39.4L50.3,61.1L62.6,72L18.3,72L30.7,61.1L34.2,39.4L34.223,38.8L26.6,38.8L33.141,30.99C31.072,29.041 29.8,26.226 29.8,23.2C29.8,17.3 34.5,12.5 40.5,12.5C46.5,12.5 51.2,17.2 51.3,23.2C51.3,26.254 50.005,29.092 47.903,31.042L54.4,38.8L45.977,38.8Z" style="fill:none;stroke:rgb(242,239,231);stroke-width:0.4px;"/>
                        </g>
                        <g id="bP.svg4" serif:id="bP.svg">
                        </g>
                    </g>
                </g>
            </g>
        </g>
    </g>
</svg>
