<?xml version="1.0" encoding="UTF-8" standalone="no"?>
<!DOCTYPE svg PUBLIC "-//W3C//DTD SVG 1.1//EN" "http://www.w3.org/Graphics/SVG/1.1/DTD/svg11.dtd">
<svg width="100%" height="100%" viewBox="0 0 591 592" version="1.1" xmlns="http://www.w3.org/2000/svg" xmlns:xlink="http://www.w3.org/1999/xlink" xml:space="preserve" xmlns:serif="http://www.serif.com/" style="fill-rule:evenodd;clip-rule:evenodd;stroke-linejoin:round;stroke-miterlimit:2;">
    <g transform="matrix(1,0,0,1,-879,-340)">
        <g transform="matrix(1,0,0,1,65.8593,0)">
            <g id="bQ.svg" transform="matrix(1.74978,0,0,1.74978,-1257.54,-1288.8)">
                <g id="bQ.svg1" serif:id="bQ.svg" transform="matrix(4.16667,0,0,4.16667,1352.15,1100.02)">
                    <g id="bQ.svg2" serif:id="bQ.svg">
                        <g id="bQ.svg3" serif:id="bQ.svg" transform="matrix(1,0,0,1,-40.5,-40.5)">
                            <g transform="matrix(1,0,0,1,0,0.9)">
                                <path d="M55.7,50.9L59.7,16L40.5,49.2L21.3,16L25.4,50.9L7.9,30.8L18.8,72L62.2,72L73.1,30.8L55.7,50.9ZM40.5,66.9L36.9,60.5L40.5,54.1L44.1,60.5L40.5,66.9Z" style="fill:rgb(28,26,29);fill-rule:nonzero;"/>
                            </g>
                            <g transform="matrix(1,0,0,1,0,0.9)">
                                <path d="M40.5,11.7L34.9,35.2L40.5,44.7L46.1,35.2L40.5,11.7Z" style="fill:rgb(28,26,29);fill-rule:nonzero;"/>
                            </g>
                            <g transform="matrix(1,0,0,1,0,0.9)">
                                <circle cx="40.5" cy="10.6" r="5.4" style="fill:rgb(28,26,29);"/>
                            </g>
                            <g transform="matrix(1,0,0,1,0,0.9)">
                                <path d="M41.6,7.2C40.8,6.8 39.9,6.6 39,6.9C37.2,7.4 36.1,9.3 36.6,11.1C36.6,11.2 36.6,11.2 36.7,11.3C39.6,11.6 42,8.5 41.6,7.2Z" style="fill:rgb(207,206,207);fill-rule:nonzero;"/>
                            </g>
                            <g transform="matrix(1,0,0,1,0,0.9)">
                                <circle cx="59.5" cy="16" r="5.4" style="fill:rgb(28,26,29);"/>
                            </g>
                            <g transform="matrix(1,0,0,1,0,0.9)">
                                <path d="M60.6,12.6C59.8,12.2 58.9,12 58,12.3C56.2,12.8 55.1,14.7 55.6,16.5C55.6,16.6 55.6,16.6 55.7,16.7C58.6,16.9 61,13.9 60.6,12.6Z" style="fill:rgb(207,206,207);fill-rule:nonzero;"/>
                            </g>
                            <g transform="matrix(1,0,0,1,0,0.9)">
                                <circle cx="21.5" cy="16" r="5.4" style="fill:rgb(28,26,29);"/>
                            </g>
                            <g transform="matrix(1,0,0,1,0,0.9)">
                                <path d="M22.6,12.6C21.8,12.2 20.9,12 20,12.3C18.2,12.8 17.1,14.7 17.6,16.5C17.6,16.6 17.6,16.6 17.7,16.7C20.6,16.9 23,13.9 22.6,12.6Z" style="fill:rgb(207,206,207);fill-rule:nonzero;"/>
                            </g>
                            <g transform="matrix(1,0,0,1,0,0.9)">
                                <circle cx="73.1" cy="31.4" r="5.4" style="fill:rgb(28,26,29);"/>
                            </g>
                            <g transform="matrix(1,0,0,1,0,0.9)">
                                <path d="M74.2,28C73.4,27.6 72.5,27.4 71.6,27.7C69.8,28.2 68.7,30.1 69.2,31.9C69.2,32 69.2,32 69.3,32.1C72.2,32.3 74.6,29.3 74.2,28Z" style="fill:rgb(207,206,207);fill-rule:nonzero;"/>
                            </g>
                            <g transform="matrix(1,0,0,1,0,0.9)">
                                <circle cx="7.9" cy="31.4" r="5.4" style="fill:rgb(28,26,29);"/>
                            </g>
                            <g transform="matrix(1,0,0,1,0,0.9)">
                                <path d="M9,28C8.2,27.6 7.3,27.4 6.4,27.7C4.6,28.1 3.5,30 4,31.8C4,31.9 4,31.9 4.1,32C7,32.3 9.4,29.3 9,28ZM40.5,20.9L37.4,34.3L40.5,39.6L40.5,20.9ZM56.6,54.7L58.4,60.3L68,38.3L56.6,54.7ZM47.9,50.5L55.9,29.3L43.6,50.1L47.9,50.5ZM33.3,50.5L25,29.1L28.1,51L33.3,50.5ZM23.1,58.7L12.6,40.9L20.5,67.3L23.1,58.7Z" style="fill:rgb(207,206,207);fill-rule:nonzero;"/>
                            </g>
                            <g transform="matrix(1,0,0,1,0,-1)">
                                <path d="M9.429,38.48C8.944,38.623 8.431,38.7 7.9,38.7C4.92,38.7 2.5,36.28 2.5,33.3C2.5,30.32 4.92,27.9 7.9,27.9C10.88,27.9 13.3,30.32 13.3,33.3C13.3,34.782 12.701,36.126 11.733,37.102L25.4,52.8L21.932,23.283C21.79,23.294 21.646,23.3 21.5,23.3C18.52,23.3 16.1,20.88 16.1,17.9C16.1,14.92 18.52,12.5 21.5,12.5C24.48,12.5 26.9,14.92 26.9,17.9C26.9,19.957 25.747,21.748 24.052,22.659L40.5,51.1L56.948,22.659C55.253,21.748 54.1,19.957 54.1,17.9C54.1,14.92 56.52,12.5 59.5,12.5C62.48,12.5 64.9,14.92 64.9,17.9C64.9,20.88 62.48,23.3 59.5,23.3C59.36,23.3 59.221,23.295 59.083,23.284L55.7,52.8L69.279,37.114C68.303,36.137 67.7,34.788 67.7,33.3C67.7,30.32 70.12,27.9 73.1,27.9C76.08,27.9 78.5,30.32 78.5,33.3C78.5,36.28 76.08,38.7 73.1,38.7C72.569,38.7 72.056,38.623 71.571,38.48L62.2,73.9L18.8,73.9L9.429,38.48ZM40.5,68.8L44.1,62.4L40.5,56L36.9,62.4L40.5,68.8ZM41.503,17.807L46.1,37.1L40.5,46.6L34.9,37.1L39.497,17.807C36.995,17.336 35.1,15.138 35.1,12.5C35.1,9.52 37.52,7.1 40.5,7.1C43.48,7.1 45.9,9.52 45.9,12.5C45.9,15.138 44.005,17.336 41.503,17.807Z" style="fill:none;stroke:rgb(242,239,231);stroke-width:0.4px;"/>
                            </g>
                        </g>
                        <g id="bQ.svg4" serif:id="bQ.svg">
                        </g>
                    </g>
                </g>
            </g>
        </g>
    </g>
</svg>
