<?xml version="1.0" encoding="UTF-8" standalone="no"?>
<!DOCTYPE svg PUBLIC "-//W3C//DTD SVG 1.1//EN" "http://www.w3.org/Graphics/SVG/1.1/DTD/svg11.dtd">
<svg width="100%" height="100%" viewBox="0 0 592 592" version="1.1" xmlns="http://www.w3.org/2000/svg" xmlns:xlink="http://www.w3.org/1999/xlink" xml:space="preserve" xmlns:serif="http://www.serif.com/" style="fill-rule:evenodd;clip-rule:evenodd;stroke-linejoin:round;stroke-miterlimit:2;">
    <g transform="matrix(1,0,0,1,-1469,-2630)">
        <g transform="matrix(1,0,0,1,104.614,-182.879)">
            <g id="wB.svg" transform="matrix(1.74978,0,0,1.74978,9.91439,-1615.94)">
                <g id="wB.svg1" serif:id="wB.svg" transform="matrix(4.16667,0,0,4.16667,943.158,2700.34)">
                    <g id="wB.svg2" serif:id="wB.svg">
                        <g id="wB.svg3" serif:id="wB.svg" transform="matrix(1,0,0,1,-40.5,-40.5)">
                            <g transform="matrix(1,0,0,1,0,1.9)">
                                <path d="M61.4,71L49.5,61.9L60.1,47.3C60.1,36.3 55.2,27.4 48.2,21L46.5,20.2L38.6,34.5L37.1,32.9L44.9,18.2L47.6,13.1L47.6,12.9C47.6,9.3 44.7,6.3 41,6.3C37.4,6.3 34.4,9.2 34.4,12.9L34.4,13.1L36.7,17.5C28,24.1 20.9,34.1 20.9,47.3L31.5,61.9L19.6,71L61.4,71Z" style="fill:rgb(242,239,231);fill-rule:nonzero;"/>
                            </g>
                            <g transform="matrix(1,0,0,1,0,1.9)">
                                <path d="M45.6,70.7L60,70.7L49.6,61.507L40.5,61.465L45.6,70.7ZM50.8,25.1C54.7,42.1 31.795,59.8 31.795,59.8L50.7,60.5L60.9,47.3L59.4,38.7L55.8,30.4L53.2,26L50.8,25.1ZM44.5,8.6C45.3,11 41.1,13 41.1,13L41.1,18L44.4,18.2L47.4,13.9L47.1,10.5L45,8.6L44.5,8.6Z" style="fill:rgb(207,206,207);fill-rule:nonzero;"/>
                            </g>
                            <g transform="matrix(1,0,0,1,0,1.9)">
                                <path d="M65,72.2L50.9,61.6L61.1,47.6L61.1,47.2C61.1,33.1 53.5,24.1 48.9,19.9L46.6,17.6L48.7,13.7L48.8,13.4L48.8,12.9C48.8,8.6 45.3,5 40.9,5C36.6,5 33.1,8.5 33.1,12.9L33.1,13.4L35,17.1C29.1,21.7 19.5,31.7 19.5,47.2L19.5,47.6L29.7,61.6L16,72.2L65,72.2ZM22.5,46.85C22.2,32.25 31.8,22.9 37.5,18.7L38.4,18.1L35.7,13C35.7,10.1 38.1,7.7 41,7.7C43.9,7.7 46.3,10.1 46.4,13L35.8,34.6L35.8,34.7L38,40.5L47.3,21.7L48.4,22.7C53.2,27.4 58.8,35.45 58.5,46.85L49.312,59.8L31.795,59.8L22.5,46.85ZM31.795,62.5L49.312,62.5L57.8,69.8L23.2,69.8L31.795,62.5Z" style="fill:rgb(28,26,29);fill-rule:nonzero;"/>
                            </g>
                            <g transform="matrix(1,0,0,1,0,1.9)">
                                <path d="M36.2,18L41.1,18L38.4,20.1L34.6,20.1" style="fill:rgb(28,26,29);fill-rule:nonzero;"/>
                            </g>
                        </g>
                        <g id="wB.svg4" serif:id="wB.svg">
                        </g>
                    </g>
                </g>
            </g>
        </g>
    </g>
</svg>
