<?xml version="1.0" encoding="UTF-8" standalone="no"?>
<!DOCTYPE svg PUBLIC "-//W3C//DTD SVG 1.1//EN" "http://www.w3.org/Graphics/SVG/1.1/DTD/svg11.dtd">
<svg width="100%" height="100%" viewBox="0 0 592 591" version="1.1" xmlns="http://www.w3.org/2000/svg" xmlns:xlink="http://www.w3.org/1999/xlink" xml:space="preserve" xmlns:serif="http://www.serif.com/" style="fill-rule:evenodd;clip-rule:evenodd;stroke-linejoin:round;stroke-miterlimit:2;">
    <g transform="matrix(1,0,0,1,-1469,-2040)">
        <g transform="matrix(1,0,0,1,104.614,-182.879)">
            <g id="wK.svg" transform="matrix(1.74978,0,0,1.74978,9.91439,-2023.61)">
                <g id="wK.svg1" serif:id="wK.svg" transform="matrix(4.16667,0,0,4.16667,943.158,2595.82)">
                    <g id="wK.svg2" serif:id="wK.svg">
                        <g id="wK.svg3" serif:id="wK.svg" transform="matrix(1,0,0,1,-40.5,-40.5)">
                            <path d="M58,25.9C52,25.9 48.9,28.5 47.4,30L40.4,42.2L33.4,30C32,28.5 29,25.9 23,25.9C13.6,25.9 8.1,33.6 8.1,41.2C8.1,49.8 11.8,52.7 16.7,62.9L16.7,71L64.3,71L64.3,62.9C69.2,52.8 72.9,49.8 72.9,41.2C72.9,33.6 67.4,25.9 58,25.9Z" style="fill:rgb(242,239,231);fill-rule:nonzero;"/>
                            <path d="M35.3,32.8L40.5,43.5L45.7,32.8L42.6,21.8L50.5,24.2L50.5,16.6L42.6,17.6L44.3,10.3L36.7,10.3L38.4,17.6L30.5,16.6L30.5,24.2L38.4,21.8L35.3,32.8Z" style="fill:rgb(242,239,231);fill-rule:nonzero;"/>
                            <path d="M64.7,27.4C71.8,40 58,58.6 45.9,59.9L65.3,62.5L71.9,49.1L72.9,39.2L71.2,34L68.6,30.4L64.7,27.4ZM33.6,30.1C34.7,35.5 32,44.7 28.2,50.6C24.4,56.5 17.7,61.4 17.7,61.4L40.5,59.8L40.5,42.6L33.6,30.1Z" style="fill:rgb(207,206,207);fill-rule:nonzero;"/>
                            <path d="M40.55,59.492L40.55,70.5L64,70.5L64,62.9L40.55,59.492ZM50.5,20.534L41.1,20.3L49.5,23.6L50.5,23.6L50.5,20.534ZM43.1,11.3L41.3,11.3L41.3,18.7L42.1,18.2L43.1,11.3ZM41.1,20.3C41.1,20.3 41.9,29.967 41.8,33.2C41.732,35.409 40.5,39.7 40.5,39.7L45,34L41.1,20.3ZM39.9,20.3L30.5,20.534L30.5,24.2L39.9,20.3Z" style="fill:rgb(207,206,207);fill-rule:nonzero;"/>
                            <path d="M36.4,51.2L40.5,57.2L44.6,51.2L40.5,45.2L36.4,51.2Z" style="fill:rgb(28,26,29);fill-rule:nonzero;"/>
                            <path d="M69.8,29.9C66.8,26.5 62.6,24.7 58,24.7C53.2,24.7 49.4,26.15 46.5,29.15L46,30.05L44.1,23.3L51.5,25.5L51.5,15.4L43.9,16.4L45.6,9.3L35.4,9.3L37.1,16.4L29.5,15.4L29.5,25.5L36.9,23.3L35,30.05L34.5,29.15C31.6,26.15 27.8,24.6 23,24.6C12.9,24.6 6.9,33 6.9,41.2C6.9,47.6 8.9,51.2 11.7,56.1L12.3,57.1C13.3,58.8 14.4,60.8 15.5,63.1L15.5,72.2L65.6,72.2L65.6,63.1C66.8,60.8 67.8,58.8 68.8,57.1L69.4,56.1C72.2,51.2 74.2,47.6 74.2,41.2C74.2,37.1 72.6,33 69.8,29.9ZM39.9,20.3L31.5,22.8L31.5,17.7L39.7,18.7L37.9,11.3L43.1,11.3L41.3,18.7L49.5,17.7L49.5,22.8L41.1,20.3L44.6,32.5L40.5,39.7L36.4,32.5L39.9,20.3ZM63,69.8L17.8,69.8L17.8,63.3C21.6,62.6 31,61.006 40.5,61.006C49.8,61.006 59.1,62.5 63,63.2L63,69.8ZM67.2,54.9C66.2,56.5 64.2,59.6 63.4,60.8C59.3,60.1 50.1,58.606 40.5,58.606C30.8,58.606 21.2,60.1 17.3,60.8C16.5,59.6 13.5,54.8 13.5,54.8C10.8,50 9.1,47 9.1,41.3C9.1,32.2 16.1,27.3 22.7,27.3C26.7,27.3 29.9,28.5 32.3,30.9L40.5,44.8L48.3,30.9C50.7,28.5 53.9,27.3 57.9,27.3C66.8,27.3 71.6,34.5 71.6,41.3C71.7,47 70,50 67.2,54.9Z" style="fill:rgb(28,26,29);fill-rule:nonzero;"/>
                        </g>
                        <g id="wK.svg4" serif:id="wK.svg">
                        </g>
                    </g>
                </g>
            </g>
        </g>
    </g>
</svg>
