<?xml version="1.0" encoding="UTF-8" standalone="no"?>
<!DOCTYPE svg PUBLIC "-//W3C//DTD SVG 1.1//EN" "http://www.w3.org/Graphics/SVG/1.1/DTD/svg11.dtd">
<svg width="100%" height="100%" viewBox="0 0 591 592" version="1.1" xmlns="http://www.w3.org/2000/svg" xmlns:xlink="http://www.w3.org/1999/xlink" xml:space="preserve" xmlns:serif="http://www.serif.com/" style="fill-rule:evenodd;clip-rule:evenodd;stroke-linejoin:round;stroke-miterlimit:2;">
    <g transform="matrix(1,0,0,1,-879,-2630)">
        <g transform="matrix(1,0,0,1,104.614,-182.879)">
            <g id="wN.svg" transform="matrix(1.74978,0,0,1.74978,-587.039,-1528.12)">
                <g id="wN.svg1" serif:id="wN.svg" transform="matrix(4.16667,0,0,4.16667,946.817,2650.15)">
                    <g id="wN.svg2" serif:id="wN.svg">
                        <g id="wN.svg3" serif:id="wN.svg" transform="matrix(1,0,0,1,-40.5,-40.5)">
                            <g transform="matrix(1,0,0,1,1.1,2.00795)">
                                <path d="M48,45.1C44.7,46.7 40.8,47 37,45.8L36.6,45.7L36.3,45.9C36.2,46 24.3,55.8 20.5,69.6L20.2,70.5L65,70.5L63.2,65L63.2,64.9C63.2,64.8 63.1,50.1 63.1,41.1C63.1,24.2 55.5,15.5 48.1,12.5C44.4,11.1 38.9,10 35.7,10L34.5,10L37.7,16.2L13.3,36.5L14.3,47.3L19.3,48.7L24.4,44.8L26,44.8L21.7,49.3L22.8,49.7L29.5,51.6L35,44.8C38.5,46.3 42.7,46.1 47.5,44.2C50.3,43 52.6,40.6 54,38.6C53.1,41.4 51,43.7 48,45.1Z" style="fill:rgb(242,239,231);fill-rule:nonzero;"/>
                            </g>
                            <g transform="matrix(1,0,0,1,1.1,2.00795)">
                                <path d="M38,22.1L30.3,28.3L30.1,30.2L31.8,30.7L40.9,27.1L38,22.1Z" style="fill:rgb(28,26,29);fill-rule:nonzero;"/>
                            </g>
                            <g transform="matrix(1,0,0,1,1.1,2.00795)">
                                <path d="M38.7,70.7L56.4,71L64.9,71C64.9,71 62.8,65.8 62.8,63.8L62.8,28.6C62.8,37 60.1,46.6 53.3,53.4C40.5,57 38.7,70.7 38.7,70.7ZM34.6,47.3L35.9,45.5L44.7,46.3L49.5,44.1L53.4,40.7L55.8,34.3C55,33 53.6,32.1 51.8,31.4C49.8,39.1 43.7,43.7 35.5,41.8C35.1,42.9 34.8,43.7 34.8,43.7L27.8,44.1L22,48.8L29,53.3L34.6,47.3Z" style="fill:rgb(207,206,207);fill-rule:nonzero;"/>
                            </g>
                            <g transform="matrix(1,0,0,1,1.1,2.00795)">
                                <path d="M18.2,72.2L67.3,72.2L64.8,64.7L64.8,41.1C64.8,34.3 63.9,17.2 48.8,11C43,8.6 34.2,8.4 33.8,8.5L32,8.6L35.7,15.8L11.5,35.8L12.8,48.6L27.3,52.8C23.8,57.3 20,63.5 18.4,70.8L18.2,72.2ZM36.7,46.5C38.2,47 39.8,47.3 41.5,47.3C43.9,47.3 46.2,46.8 48.3,45.8C52.4,43.8 55.1,40.2 55.6,35.7L55.8,34.3L55.2,35.5C55.2,35.6 52.2,41.3 47.3,43.5C43.4,45.1 38.8,45.7 34.8,43.7L29.3,50.8L23.1,49L27.8,44.1L24.1,44.1L19.1,47.9L15,46.7L14.1,36.8L38.7,16.4L35.8,10.8C38.7,10.8 44.1,11.7 47.9,13.2C53.6,15.5 62.4,22.8 62.4,41.1C62.4,50.2 62.5,65.1 62.5,65.1L64,69.8L21.2,69.8C24.8,56.6 35.9,47.1 36.7,46.5Z" style="fill:rgb(28,26,29);fill-rule:nonzero;"/>
                            </g>
                        </g>
                        <g id="wN.svg4" serif:id="wN.svg">
                        </g>
                    </g>
                </g>
            </g>
        </g>
    </g>
</svg>
