<?xml version="1.0" encoding="UTF-8" standalone="no"?>
<!DOCTYPE svg PUBLIC "-//W3C//DTD SVG 1.1//EN" "http://www.w3.org/Graphics/SVG/1.1/DTD/svg11.dtd">
<svg width="100%" height="100%" viewBox="0 0 592 592" version="1.1" xmlns="http://www.w3.org/2000/svg" xmlns:xlink="http://www.w3.org/1999/xlink" xml:space="preserve" xmlns:serif="http://www.serif.com/" style="fill-rule:evenodd;clip-rule:evenodd;stroke-linejoin:round;stroke-miterlimit:2;">
    <g transform="matrix(1,0,0,1,-288,-2630)">
        <g transform="matrix(1,0,0,1,104.614,-182.879)">
            <g id="wP.svg" transform="matrix(1.74978,0,0,1.74978,-1171.19,-1524.5)">
                <g id="wP.svg1" serif:id="wP.svg" transform="matrix(4.16667,0,0,4.16667,943.158,2648.08)">
                    <g id="wP.svg2" serif:id="wP.svg">
                        <g id="wP.svg3" serif:id="wP.svg" transform="matrix(1,0,0,1,-40.5,-40.5)">
                            <g transform="matrix(1,0,0,1,0,1.98976)">
                                <path d="M29.7,37.8L51.3,37.8L46.2,31.8L46.9,31.8C49.5,29.9 51.2,26.7 51.2,23.2C51.2,17.2 46.4,12.5 40.5,12.5C34.6,12.5 29.8,17.3 29.8,23.2C29.8,26.7 31.5,29.9 34.1,31.8L34.8,31.8L29.7,37.8ZM49.916,60.311L45.699,38.697L35.112,38.787L30.931,60.309L21,69.9L60,69.9L49.916,60.311Z" style="fill:rgb(242,239,231);fill-rule:nonzero;"/>
                            </g>
                            <g transform="matrix(1,0,0,1,0,1.98976)">
                                <path d="M40.5,60.64L47.8,71L62.71,71L50.353,60.087L45.897,38.9L40.5,38.9L40.5,60.64ZM45,13.3C48.7,18.8 46.1,30.9 34.8,30.9C34.6,30.9 46.9,31.5 47.9,30.6C49.8,28.7 51,26.2 51,23.3C51.1,17.3 44.8,12.1 45,13.3Z" style="fill:rgb(207,206,207);fill-rule:nonzero;"/>
                            </g>
                            <g transform="matrix(1,0,0,1,0,1.98976)">
                                <path d="M31.9,60.6L21.6,69.7L59.4,69.7L49.2,60.7L49.1,60.6L44.9,40L35.3,40L31.9,60.6ZM46.1,32L34.9,32L30.2,37.9L50.8,37.9L46.1,32ZM47.5,29.5C49.1,27.8 50,25.5 50,23.1C50,17.8 45.8,13.6 40.5,13.6C35.3,13.6 31,17.8 31,23.1C31,25.5 31.9,27.7 33.5,29.5L47.5,29.5Z" style="fill:none;fill-rule:nonzero;"/>
                            </g>
                            <g transform="matrix(1,0,0,1,0,1.98976)">
                                <path d="M15,72.2L66,72.2L51.5,59.4L47.3,39.4L55.5,39.4L48.4,31.4C51.3,29.2 52,25.8 52,23.3C52,16.9 47,11.9 40.6,11.9C34.3,11.9 29.2,17 29.2,23.3C29.2,25.8 29.8,29.2 32.8,31.4L25.7,39.4L33,39.4L29.6,59.4L15,72.2ZM31.4,23.3C31.4,18.3 35.5,14.2 40.5,14.2C45.6,14.2 49.6,18.2 49.6,23.3C49.6,25.6 48.8,27.7 47.2,29.4L33.8,29.4C32.3,27.7 31.4,25.5 31.4,23.3ZM35.2,31.7L45.9,31.7L50.4,37.3L30.7,37.3L35.2,31.7ZM35.4,39.4L44.8,39.4L49.2,60.65L59.4,69.7L21.6,69.7L31.8,60.65L35.4,39.4Z" style="fill:rgb(28,26,29);fill-rule:nonzero;"/>
                            </g>
                            <g transform="matrix(-1.38078,0,0,1.38078,94.4736,-11.1916)">
                                <path d="M31.924,36.554L39.089,36.559L39,32.5L35.2,32.5L31.924,36.554Z" style="fill:rgb(207,206,207);fill-rule:nonzero;"/>
                            </g>
                        </g>
                        <g id="wP.svg4" serif:id="wP.svg">
                        </g>
                    </g>
                </g>
            </g>
        </g>
    </g>
</svg>
