<?xml version="1.0" encoding="UTF-8" standalone="no"?>
<!DOCTYPE svg PUBLIC "-//W3C//DTD SVG 1.1//EN" "http://www.w3.org/Graphics/SVG/1.1/DTD/svg11.dtd">
<svg width="100%" height="100%" viewBox="0 0 591 591" version="1.1" xmlns="http://www.w3.org/2000/svg" xmlns:xlink="http://www.w3.org/1999/xlink" xml:space="preserve" xmlns:serif="http://www.serif.com/" style="fill-rule:evenodd;clip-rule:evenodd;stroke-linejoin:round;stroke-miterlimit:2;">
    <g transform="matrix(1,0,0,1,-879,-2040)">
        <g transform="matrix(1,0,0,1,104.614,-182.879)">
            <g id="wQ.svg" transform="matrix(1.74978,0,0,1.74978,-580.637,-2023.61)">
                <g id="wQ.svg1" serif:id="wQ.svg" transform="matrix(4.16667,0,0,4.16667,943.158,2595.82)">
                    <g id="wQ.svg2" serif:id="wQ.svg">
                        <g id="wQ.svg3" serif:id="wQ.svg" transform="matrix(1,0,0,1,-40.5,-40.5)">
                            <g transform="matrix(1,0,0,1,0.198655,-0.0811024)">
                                <circle cx="21.9" cy="16.5" r="5.2" style="fill:rgb(242,239,231);"/>
                            </g>
                            <g transform="matrix(1,0,0,1,0.198655,-0.0811024)">
                                <path d="M59.1,21.8C62,21.8 64.3,19.5 64.3,16.6C64.3,13.7 62,11.4 59.1,11.4C56.2,11.4 53.9,13.7 53.9,16.6C53.9,19.5 56.2,21.8 59.1,21.8Z" style="fill:rgb(242,239,231);fill-rule:nonzero;"/>
                            </g>
                            <g transform="matrix(1,0,0,1,0.198655,-0.0811024)">
                                <path d="M72.1,26.4C69.2,26.4 66.9,28.7 66.9,31.6C66.9,33 67.5,34.4 68.4,35.3L55.2,50.5L58.5,21.8L56.4,21.2L46.6,38.1L41.5,16.4L39.3,16.4L34.2,38.1L24.4,21.2L22.3,21.8L25.6,50.5L12.6,35.3C13.5,34.4 14.1,33 14.1,31.6C14.1,28.7 11.8,26.4 8.9,26.4C6,26.4 3.7,28.7 3.7,31.6C3.7,34.5 6,36.8 8.9,36.8C9.4,36.8 9.9,36.7 10.4,36.6L19.5,71L61.6,71L70.7,36.6C71.2,36.7 71.7,36.8 72.2,36.8C75.1,36.8 77.4,34.5 77.4,31.6C77.4,28.7 75,26.4 72.1,26.4Z" style="fill:rgb(242,239,231);fill-rule:nonzero;"/>
                            </g>
                            <g transform="matrix(1,0,0,1,0.198655,-0.0811024)">
                                <circle cx="40.5" cy="11.3" r="5.2" style="fill:rgb(242,239,231);"/>
                            </g>
                            <g transform="matrix(1,0,0,1,0.198655,-0.0811024)">
                                <path d="M41.4,20.3L46.7,38.2L41.4,45.5L41.4,20.3ZM27.1,53.6L23.6,60.4L13.9,38.3L27.1,53.6ZM34,50.5L24.8,22.8L40.5,50.9L34,50.5ZM48.2,50.5L57.5,25.8L53.9,53.6L48.2,50.5ZM52.9,70.4L68.5,36.7L70,37L60.7,70.4L52.9,70.4ZM73.3,36.7C76.7,35.8 77.2,33.3 77.3,30C77.3,29.4 76.4,28.2 76,28.2C75.6,28.3 75.2,28.3 74.8,28.5C75.1,31 73.5,33.5 71,34.2C69.9,34.5 68.9,34.4 67.9,34.1C67.3,35.1 71.8,37.1 73.3,36.7ZM60,21.3C63.4,20.4 63.9,17.9 64,14.6C64,14 63.1,12.8 62.7,12.8C62.3,12.9 61.9,12.9 61.5,13.1C61.8,15.6 60.2,18.1 57.7,18.8C56.6,19.1 55.6,19 54.6,18.7C54,19.7 58.5,21.7 60,21.3ZM10.1,36.7C13.5,35.8 14,33.3 14.1,30C14.1,29.4 13.2,28.2 12.8,28.2C12.4,28.3 12,28.3 11.6,28.5C11.9,31 10.3,33.5 7.8,34.2C6.7,34.5 5.7,34.4 4.7,34.1C4.1,35.1 8.6,37.1 10.1,36.7ZM23.1,21.3C26.5,20.4 27,17.9 27.1,14.6C27.1,14 26.2,12.8 25.8,12.8C25.4,12.9 25,12.9 24.6,13.1C24.9,15.6 23.3,18.1 20.8,18.8C19.7,19.1 18.7,19 17.7,18.7C17.1,19.7 21.6,21.7 23.1,21.3ZM41.6,16.1C45,15.2 45.5,12.7 45.6,9.4C45.6,8.8 44.7,7.6 44.3,7.6C43.9,7.7 43.5,7.7 43.1,7.9C43.4,10.4 41.8,12.9 39.3,13.6C38.2,13.9 37.2,13.8 36.2,13.5C35.6,14.6 40.1,16.5 41.6,16.1Z" style="fill:rgb(207,206,207);fill-rule:nonzero;"/>
                            </g>
                            <g transform="matrix(1,0,0,1,0.198655,-0.0811024)">
                                <path d="M40.5,65.7L36.6,59.8L40.5,54L44.4,59.8L40.5,65.7Z" style="fill:rgb(28,26,29);fill-rule:nonzero;"/>
                            </g>
                            <g transform="matrix(1,0,0,1,0.198655,-0.0811024)">
                                <circle cx="21.9" cy="16.5" r="5.2" style="fill:rgb(242,239,231);"/>
                            </g>
                            <g transform="matrix(1,0,0,1,0.198655,-0.0811024)">
                                <path d="M59.1,21.8C62,21.8 64.3,19.5 64.3,16.6C64.3,13.7 62,11.4 59.1,11.4C56.2,11.4 53.9,13.7 53.9,16.6C53.9,19.5 56.2,21.8 59.1,21.8Z" style="fill:rgb(242,239,231);fill-rule:nonzero;"/>
                            </g>
                            <g transform="matrix(1,0,0,1,0.198655,-0.0811024)">
                                <path d="M72.1,26.4C69.2,26.4 66.9,28.7 66.9,31.6C66.9,33 67.5,34.4 68.4,35.3L55.2,50.5L58.5,21.8L56.4,21.2L46.6,38.1L41.5,16.4L39.3,16.4L34.2,38.1L24.4,21.2L22.3,21.8L25.6,50.5L12.6,35.3C13.5,34.4 14.1,33 14.1,31.6C14.1,28.7 11.8,26.4 8.9,26.4C6,26.4 3.7,28.7 3.7,31.6C3.7,34.5 6,36.8 8.9,36.8C9.4,36.8 9.9,36.7 10.4,36.6L19.5,71L61.6,71L70.7,36.6C71.2,36.7 71.7,36.8 72.2,36.8C75.1,36.8 77.4,34.5 77.4,31.6C77.4,28.7 75,26.4 72.1,26.4Z" style="fill:rgb(242,239,231);fill-rule:nonzero;"/>
                            </g>
                            <g transform="matrix(1,0,0,1,0.198655,-0.0811024)">
                                <circle cx="40.5" cy="11.3" r="5.2" style="fill:rgb(242,239,231);"/>
                            </g>
                            <g transform="matrix(1,0,0,1,0.198655,-0.0811024)">
                                <path d="M40.7,17.8L46.7,38.2L40.5,46.3L40.7,17.8ZM27.5,54.5L23.6,60.4L13.9,38.3L27.5,54.5ZM34,50.5L23.9,22.9L40.5,51.4L34,50.5ZM48.2,50.5L57.2,22.7L53.5,54.3L48.2,50.5ZM40.55,70.4C60.45,65.7 68.6,37 68.6,37L70,37L60.7,70.4L40.55,70.4ZM73.3,36.7C76.7,35.8 77.2,33.3 77.3,30C77.3,29.4 76.4,28.2 76,28.2C75.6,28.3 75.2,28.3 74.8,28.5C75.1,31 73.5,33.5 71,34.2C69.9,34.5 68.9,34.4 67.9,34.1C67.3,35.1 71.8,37.1 73.3,36.7ZM60,21.3C63.4,20.4 63.9,17.9 64,14.6C64,14 63.1,12.8 62.7,12.8C62.3,12.9 61.9,12.9 61.5,13.1C61.8,15.6 60.2,18.1 57.7,18.8C56.6,19.1 55.6,19 54.6,18.7C54,19.7 58.5,21.7 60,21.3ZM10.1,36.7C13.5,35.8 14,33.3 14.1,30C14.1,29.4 13.2,28.2 12.8,28.2C12.4,28.3 12,28.3 11.6,28.5C11.9,31 10.3,33.5 7.8,34.2C6.7,34.5 5.7,34.4 4.7,34.1C4.1,35.1 8.6,37.1 10.1,36.7ZM23.1,21.3C26.5,20.4 27,17.9 27.1,14.6C27.1,14 26.2,12.8 25.8,12.8C25.4,12.9 25,12.9 24.6,13.1C24.9,15.6 23.3,18.1 20.8,18.8C19.7,19.1 18.7,19 17.7,18.7C17.1,19.7 21.6,21.7 23.1,21.3ZM41.6,16.1C45,15.2 45.5,12.7 45.6,9.4C45.6,8.8 44.7,7.6 44.3,7.6C43.9,7.7 43.5,7.7 43.1,7.9C43.4,10.4 41.8,12.9 39.3,13.6C38.2,13.9 37.2,13.8 36.2,13.5C35.6,14.6 40.1,16.5 41.6,16.1Z" style="fill:rgb(207,206,207);fill-rule:nonzero;"/>
                            </g>
                            <g transform="matrix(1,0,0,1,0.198655,-0.0811024)">
                                <path d="M40.5,65.7L36.6,59.8L40.5,54L44.4,59.8L40.5,65.7Z" style="fill:rgb(28,26,29);fill-rule:nonzero;"/>
                            </g>
                            <g transform="matrix(1,0,0,1,0.198655,-0.0811024)">
                                <path d="M72.1,25.1C68.5,25.1 65.7,28 65.7,31.6C65.7,32.9 66.1,34.2 66.8,35.3L56.3,48.3L59.7,22.9C63,22.6 65.6,19.8 65.6,16.5C65.6,12.9 62.7,10 59.1,10C55.5,10 52.6,12.9 52.6,16.5C52.6,18.4 53.4,20.2 54.9,21.5L47.1,34.9L43,17.3C45.3,16.3 46.9,13.9 46.9,11.3C46.9,7.7 44,4.9 40.5,4.9C36.9,4.9 34,7.8 34,11.3C34,13.9 35.5,16.2 37.9,17.3L33.8,34.9L26,21.5C27.5,20.3 28.3,18.4 28.3,16.5C28.3,12.9 25.4,10 21.8,10C18.2,10 15.3,12.9 15.3,16.5C15.3,19.8 17.9,22.6 21.2,22.9L24.6,48.3L14.2,35.3C14.9,34.3 15.3,33 15.3,31.6C15.3,28 12.4,25.1 8.8,25.1C5.2,25.1 2.4,28 2.4,31.6C2.4,35.2 5.3,38 8.8,38L9.3,38L18.3,72.2L62.3,72.2L71.3,38L71.8,38C75.4,38 78.2,35.1 78.2,31.6C78.3,28 75.6,25.1 72.1,25.1ZM13.1,31.6C13.1,33.9 11.2,35.7 8.9,35.7C6.6,35.7 4.8,33.9 4.8,31.6C4.8,29.3 6.7,27.4 8.9,27.4C11.2,27.4 13.1,29.3 13.1,31.6ZM21.9,20.8C19.6,20.8 17.8,18.9 17.8,16.6C17.8,14.3 19.7,12.4 21.9,12.4C24.2,12.4 26.1,14.3 26.1,16.6C26.1,18.8 24.2,20.8 21.9,20.8ZM55,16.5C55,14.2 56.9,12.3 59.1,12.3C61.4,12.3 63.3,14.2 63.3,16.5C63.3,18.8 61.4,20.7 59.1,20.7C56.8,20.8 55,18.9 55,16.5ZM20.4,69.8L11.8,37.4C11.9,37.3 12,37.3 12.1,37.3C12.2,37.3 12.3,37.2 12.4,37.2L27.5,54.5L23.8,22.9L23.9,22.9L40.5,51.4L57.1,22.7L57.2,22.7L53.5,54.3L68.6,37L69.2,37.3L60.6,69.8L20.4,69.8ZM76.3,31.6C76.3,33.9 74.4,35.7 72.1,35.7C69.8,35.7 68,33.9 68,31.6C68,29.3 69.9,27.4 72.1,27.4C74.4,27.4 76.3,29.3 76.3,31.6ZM40.5,46.3L35.7,38L40.4,17.8L40.7,17.8L45.3,38L40.5,46.3ZM40.5,15.5C38.2,15.5 36.3,13.6 36.3,11.3C36.3,9 38.2,7.2 40.5,7.2C42.8,7.2 44.7,9.1 44.7,11.3C44.8,13.6 42.8,15.5 40.5,15.5Z" style="fill:rgb(28,26,29);fill-rule:nonzero;"/>
                            </g>
                        </g>
                        <g id="wQ.svg4" serif:id="wQ.svg">
                        </g>
                    </g>
                </g>
            </g>
        </g>
    </g>
</svg>
