<?xml version="1.0" encoding="UTF-8" standalone="no"?>
<!DOCTYPE svg PUBLIC "-//W3C//DTD SVG 1.1//EN" "http://www.w3.org/Graphics/SVG/1.1/DTD/svg11.dtd">
<svg width="100%" height="100%" viewBox="0 0 592 591" version="1.1" xmlns="http://www.w3.org/2000/svg" xmlns:xlink="http://www.w3.org/1999/xlink" xml:space="preserve" xmlns:serif="http://www.serif.com/" style="fill-rule:evenodd;clip-rule:evenodd;stroke-linejoin:round;stroke-miterlimit:2;">
    <g transform="matrix(1,0,0,1,-288,-2040)">
        <g transform="matrix(1.74978,0,0,1.74978,-1066.57,-2206.49)">
            <g id="wR.svg" transform="matrix(4.16667,0,0,4.16667,943.158,2595.82)">
                <g transform="matrix(1,0,0,1,-40.5,-40.5)">
                    <g transform="matrix(1,0,0,1,0.1,-0.161417)">
                        <path d="M58.7,59.4L55.5,32.1L64.1,23.9L64.1,12.8L53,12.8L53,20.9L46.3,20.9L46.3,12.8L34.7,12.8L34.7,20.9L28,20.9L28,12.8L16.9,12.8L16.9,23.9L25.5,32.1L22.3,59.4L15.7,59.4L15.7,71L65.3,71L65.3,59.4L58.7,59.4Z" style="fill:rgb(242,239,231);fill-rule:nonzero;"/>
                    </g>
                    <g transform="matrix(1,0,0,1,0.1,-0.161417)">
                        <path d="M40.502,32.942L55.078,32.861L57.2,30.98L64.1,23.9L64.1,12.8L53.089,12.8L53.08,20.946L46.442,21.124C46.442,21.124 44.999,21.734 45,22.2C45.022,30.605 40.502,32.942 40.502,32.942Z" style="fill:rgb(207,206,207);fill-rule:nonzero;"/>
                    </g>
                    <g transform="matrix(1,0,0,1,0.1,-0.161417)">
                        <path d="M65.3,59.471L40.481,59.471L40.502,71L65.3,71L65.3,59.471Z" style="fill:rgb(207,206,207);fill-rule:nonzero;"/>
                    </g>
                    <path d="M58.5,59.7L55.512,32.5L52.35,32.5C52.35,44.6 49.55,53.8 40.65,59.7L58.5,59.7Z" style="fill:rgb(207,206,207);fill-rule:nonzero;"/>
                    <g transform="matrix(1,0,0,1,0.1,-0.161417)">
                        <path d="M59.1,58.1L56.5,33.3L65.2,24.3L65.2,11.5L51.8,11.5L51.8,19.7L47.6,19.7L47.6,11.5L33.5,11.5L33.5,19.7L29.3,19.7L29.3,11.5L15.6,11.5L15.6,24.4L24.3,33.4L21.7,58.2L14.4,58.2L14.4,72.3L66.4,72.3L66.4,58.1L59.1,58.1ZM35.987,22.2L35.987,14L45,14L45,22.2L54.2,22.2L54.2,14L62.7,14L62.7,23.3L54.4,32L26.5,32L18.1,23.4L18.1,14L26.7,14L26.7,22.2L35.987,22.2ZM54,34.4L56.6,58.1L24.3,58.1L26.9,34.4L54,34.4ZM17,60.6L64,60.6L64,69.7L17,69.7L17,60.6Z" style="fill:rgb(28,26,29);fill-rule:nonzero;"/>
                    </g>
                    <g transform="matrix(-1,0,0,1,119.072,0.0358125)">
                        <path d="M58.771,13.806L64.771,13.806L64.771,21.006L58.771,13.806Z" style="fill:rgb(242,239,231);fill-rule:nonzero;"/>
                    </g>
                </g>
            </g>
        </g>
    </g>
</svg>
