<?xml version="1.0" encoding="UTF-8" standalone="no"?>
<!DOCTYPE svg PUBLIC "-//W3C//DTD SVG 1.1//EN" "http://www.w3.org/Graphics/SVG/1.1/DTD/svg11.dtd">
<svg width="100%" height="100%" viewBox="0 0 591 591" version="1.1" xmlns="http://www.w3.org/2000/svg" xmlns:xlink="http://www.w3.org/1999/xlink" xml:space="preserve" xmlns:serif="http://www.serif.com/" style="fill-rule:evenodd;clip-rule:evenodd;stroke-linejoin:round;stroke-miterlimit:2;">
    <g transform="matrix(1,0,0,1,-1483,-797)">
        <g transform="matrix(0.175886,0,0,0.175886,968.991,719.26)">
            <g id="bB.svg" transform="matrix(1.63945,0,0,1.63945,4601.21,2123.33)">
                <g id="bB.svg1" serif:id="bB.svg">
                    <g id="bB.svg2" serif:id="bB.svg" transform="matrix(1,0,0,1,-1024,-1024)">
                        <path d="M251.654,1805.76L755.83,1805.76L957.718,1671.19L1024,1534.96L1089.58,1662.39L1279.45,1806.03L1800.62,1806.03L1763.63,1692.92L1679.21,1646.2L1390.74,1646.2L1245.48,1609.62L1179.1,1501.49L1359.36,1501.49L1310.88,1275.85L1456.8,1116.45L1502.7,954.107L1468.9,789.373L1327.51,627.746L1049.49,408.913L1131.98,289.118L1028,185.136L915.285,287.175L997.817,409.832L665.927,690.147L555.01,882.376L555.695,1000.5L600.313,1116.45L733.872,1263.14L683.246,1487.12L871.667,1487.12L820.655,1601.42L736.907,1633.59L374.23,1633.59L289.07,1698.37L251.654,1805.76Z" style="fill:rgb(28,26,29);"/>
                        <path d="M1024,356C1068,356 1089.33,334 1088,290C1088.67,253.333 1067.33,235 1024,235C980,235 958.667,253.333 960,290C958,334 979.333,356 1024,356ZM1024,1560C1024,1636 990.333,1702.17 923,1758.5C855.667,1814.83 781.333,1843 700,1843L205,1843C205,1765 226.667,1705.33 270,1664C313.333,1622.67 360.667,1602 412,1602L662,1602C696,1602 725.333,1599.67 750,1595C774.667,1590.33 798.333,1570.33 821,1535C829,1521.67 832.333,1516.33 831,1519L907,1519C902.333,1533 901.333,1537.33 904,1532C874,1602 837.667,1643.5 795,1656.5C752.333,1669.5 703.667,1676 649,1676L409,1676C374.333,1676 345.667,1689.33 323,1716C300.333,1742.67 289,1760.33 289,1769L713,1769C757,1769 809.833,1747.33 871.5,1704C933.167,1660.67 964.333,1599 965,1519L624,1519C668.667,1441.67 692.667,1365.33 696,1290C620,1210.67 566,1136.17 534,1066.5C502,996.833 500,922.333 528,843C550,779 589.333,715.833 646,653.5C702.667,591.167 806.667,509 958,407C946.667,399.667 931.333,387.667 912,371C892.667,354.333 883,328 883,292C883,253.333 896.667,221.333 924,196C951.333,170.667 984.667,158 1024,158C1062.67,158 1095.83,170.667 1123.5,196C1151.17,221.333 1165,253.333 1165,292C1165,328 1155.17,354.333 1135.5,371C1115.83,387.667 1100.67,399.667 1090,407C1240.67,509 1344.33,591.167 1401,653.5C1457.67,715.833 1497.33,779 1520,843C1548,922.333 1546,996.833 1514,1066.5C1482,1136.17 1428,1210.67 1352,1290C1354.67,1365.33 1378.67,1441.67 1424,1519L1083,1519C1083,1599 1114,1660.67 1176,1704C1238,1747.33 1291,1769 1335,1769L1759,1769C1759,1760.33 1747.5,1742.67 1724.5,1716C1701.5,1689.33 1673,1676 1639,1676L1399,1676C1343.67,1676 1294.83,1669.5 1252.5,1656.5C1210.17,1643.5 1174,1602 1144,1532C1146.67,1537.33 1145.67,1533 1141,1519L1217,1519C1215.67,1516.33 1219,1521.67 1227,1535C1249,1570.33 1272.33,1590.33 1297,1595C1321.67,1599.67 1351.33,1602 1386,1602L1636,1602C1686.67,1602 1733.83,1622.67 1777.5,1664C1821.17,1705.33 1843,1765 1843,1843L1348,1843C1266,1843 1191.5,1814.83 1124.5,1758.5C1057.5,1702.17 1024,1636 1024,1560ZM741,1446L1307,1446C1288.33,1390 1278.67,1338.67 1278,1292C1198,1264.67 1113.33,1252 1024,1254C934,1252 849.333,1264.67 770,1292C768.667,1338.67 759,1390 741,1446ZM1024,1179C1130,1178.33 1225,1192.33 1309,1221C1435,1101 1482.33,985.667 1451,875C1411,746.333 1268.67,602.667 1024,444C778.667,602.667 636.333,746.333 597,875C565,985.667 612.333,1101 739,1221C822.333,1192.33 917.333,1178.33 1024,1179ZM977,818L977,714L1071,714L1071,818L1166,818L1166,907L1071,907L1071,1072L977,1072L977,907L882,907L882,818L977,818Z" style="fill:rgb(242,239,231);fill-rule:nonzero;"/>
                        <g transform="matrix(2.20865,0,0,2.20865,-1237.66,-357.108)">
                            <circle cx="1024" cy="295.46" r="64.171" style="fill:rgb(242,239,231);"/>
                        </g>
                        <g transform="matrix(1.10433,0,0,1.10433,-106.83,-30.8242)">
                            <circle cx="1024" cy="295.46" r="64.171" style="fill:rgb(28,26,29);"/>
                        </g>
                        <rect x="857.406" y="648.3" width="355.744" height="468.152" style="fill:rgb(28,26,29);"/>
                    </g>
                    <g id="bB.svg3" serif:id="bB.svg">
                    </g>
                </g>
            </g>
        </g>
    </g>
</svg>
