<?xml version="1.0" encoding="UTF-8" standalone="no"?>
<!DOCTYPE svg PUBLIC "-//W3C//DTD SVG 1.1//EN" "http://www.w3.org/Graphics/SVG/1.1/DTD/svg11.dtd">
<svg width="100%" height="100%" viewBox="0 0 592 591" version="1.1" xmlns="http://www.w3.org/2000/svg" xmlns:xlink="http://www.w3.org/1999/xlink" xml:space="preserve" xmlns:serif="http://www.serif.com/" style="fill-rule:evenodd;clip-rule:evenodd;stroke-linejoin:round;stroke-miterlimit:2;">
    <g transform="matrix(1,0,0,1,-301,-797)">
        <g transform="matrix(0.175886,0,0,0.175886,968.991,719.26)">
            <g id="bP.svg" transform="matrix(1.63945,0,0,1.63945,-2113.97,2123.33)">
                <g id="bP.svg1" serif:id="bP.svg">
                    <g id="bP.svg2" serif:id="bP.svg" transform="matrix(1,0,0,1,-1024,-1024)">
                        <path d="M895.099,996.12L1149.3,996.12L1208.25,1260.9L1272.03,1387.32L1415.94,1556.48L1566.29,1680.61L1566.84,1809.83L483.795,1809.83L483.795,1695.65L607.023,1563.17L742.686,1453.93L805.273,1345.07L863.055,1209.23L895.099,996.12Z" style="fill:rgb(28,26,29);"/>
                        <path d="M899.643,780.502L1023.93,822.038L1138.6,793.634L1372.63,1006.83L1023.93,990.384L676.505,1005.85L899.643,780.502Z" style="fill:rgb(28,26,29);"/>
                        <path d="M520,1769L1528,1769C1533.33,1704.33 1489.33,1643.67 1396,1587C1308,1519.67 1242.5,1439.83 1199.5,1347.5C1156.5,1255.17 1130,1142.33 1120,1029C1120,1029 1056,1019.5 1024,1019.5C992,1019.5 928,1029 928,1029C918,1142.33 891.5,1255.17 848.5,1347.5C805.5,1439.83 740,1519.67 652,1587C558,1643.67 514,1704.33 520,1769ZM1602,1843L446,1843L446,1769C443.333,1715.67 457.167,1670 487.5,1632C517.833,1594 559.667,1558 613,1524C691,1463.33 748.167,1390.83 784.5,1306.5C820.833,1222.17 847,1123 863,1029L576,1059L860,800C802.667,750.667 774,688 774,612C774,543.333 798.333,484.333 847,435C895.667,385.667 954.667,361 1024,361C1092.67,361 1151.5,385.667 1200.5,435C1249.5,484.333 1274,543.333 1274,612C1274,688 1245.33,750.667 1188,800L1472,1059L1185,1029C1200.33,1123 1226.33,1222.17 1263,1306.5C1299.67,1390.83 1357,1463.33 1435,1524C1487.67,1558 1529.17,1594 1559.5,1632C1589.83,1670 1604,1715.67 1602,1769L1602,1843ZM756,974C756,974 934.661,954.5 1023.99,954.5C1113.33,954.5 1292,974 1292,974L1067,783.455C1156.33,762.789 1201,705.564 1201,612.231C1201,561.564 1183.5,519.167 1148.5,485.5C1113.5,451.833 1072,435 1024,435C975.333,435 933.667,451.833 899,485.5C864.333,519.167 847,561.333 847,612C847,705.333 891.667,762.333 981,783L756,974Z" style="fill:rgb(242,239,231);fill-rule:nonzero;"/>
                        <g transform="matrix(4.34032,0,0,4.34032,-3420.19,-2028.97)">
                            <circle cx="1023.93" cy="607.871" r="57.146" style="fill:rgb(242,239,231);"/>
                        </g>
                        <g transform="matrix(3.22424,0,0,3.22424,-2277.4,-1350.54)">
                            <circle cx="1023.93" cy="607.871" r="57.146" style="fill:rgb(28,26,29);"/>
                        </g>
                    </g>
                    <g id="bP.svg3" serif:id="bP.svg">
                    </g>
                </g>
            </g>
        </g>
    </g>
</svg>
