<?xml version="1.0" encoding="UTF-8" standalone="no"?>
<!DOCTYPE svg PUBLIC "-//W3C//DTD SVG 1.1//EN" "http://www.w3.org/Graphics/SVG/1.1/DTD/svg11.dtd">
<svg width="100%" height="100%" viewBox="0 0 591 592" version="1.1" xmlns="http://www.w3.org/2000/svg" xmlns:xlink="http://www.w3.org/1999/xlink" xml:space="preserve" xmlns:serif="http://www.serif.com/" style="fill-rule:evenodd;clip-rule:evenodd;stroke-linejoin:round;stroke-miterlimit:2;">
    <g transform="matrix(1,0,0,1,-1483,-2630)">
        <g transform="matrix(0.165565,0,0,0.165565,906.549,2407.23)">
            <g id="wB.svg" transform="matrix(1.74165,0,0,1.74165,5265.18,3134.41)">
                <g id="wB.svg1" serif:id="wB.svg">
                    <g id="wB.svg2" serif:id="wB.svg" transform="matrix(1,0,0,1,-1024,-1024)">
                        <path d="M948.18,366.344L949.18,227.242L1097.32,220.292L1097.57,366.7L948.18,366.344ZM564.353,859.7C677.757,593.412 1020.33,416.919 1020.33,416.919C1020.33,416.919 1412.12,593.29 1496.3,919.497C1487.45,1128.24 1312.53,1250.83 1312.53,1250.83L1339.55,1472.33L686.588,1478.33L732.607,1244.83C732.607,1244.83 502.816,1074.01 564.353,859.7ZM462.558,1649.59C637.529,1655.56 817.813,1672.62 887.844,1507.7L980.198,1508.43C980.198,1508.43 980.268,1698.44 892.285,1754.08C729.488,1857.03 267.438,1792.21 267.438,1792.21C267.438,1792.21 251.716,1646.1 462.558,1649.59ZM1093.85,1687.08L1057.83,1502.16L1159.72,1507.38C1159.72,1507.38 1182.33,1660.17 1474.84,1638.34C1856.08,1621.1 1792.74,1791.21 1792.74,1791.21L1309.6,1796.21L1093.85,1687.08Z" style="fill:rgb(242,239,231);fill-rule:nonzero;"/>
                        <path d="M1024,1560C1024,1636 990.333,1702.17 923,1758.5C855.667,1814.83 781.333,1843 700,1843L205,1843C205,1765 226.667,1705.33 270,1664C313.333,1622.67 360.667,1602 412,1602L662,1602C696,1602 725.333,1599.67 750,1595C774.667,1590.33 798.333,1570.33 821,1535C829,1521.67 832.333,1516.33 831,1519L907,1519C902.333,1533 901.333,1537.33 904,1532C874,1602 837.667,1643.5 795,1656.5C752.333,1669.5 703.667,1676 649,1676L409,1676C374.333,1676 345.667,1689.33 323,1716C300.333,1742.67 289,1760.33 289,1769L713,1769C757,1769 809.833,1747.33 871.5,1704C933.167,1660.67 964.333,1599 965,1519L624,1519C668.667,1441.67 692.667,1365.33 696,1290C620,1210.67 566,1136.17 534,1066.5C502,996.833 500,922.333 528,843C550,779 589.333,715.833 646,653.5C702.667,591.167 806.667,509 958,407C946.667,399.667 984.667,310.702 1024,310.702C1062.67,310.702 1100.67,399.667 1090,407C1240.67,509 1344.33,591.167 1401,653.5C1457.67,715.833 1497.33,779 1520,843C1548,922.333 1546,996.833 1514,1066.5C1482,1136.17 1428,1210.67 1352,1290C1354.67,1365.33 1378.67,1441.67 1424,1519L1083,1519C1083,1599 1114,1660.67 1176,1704C1238,1747.33 1291,1769 1335,1769L1759,1769C1759,1760.33 1747.5,1742.67 1724.5,1716C1701.5,1689.33 1673,1676 1639,1676L1399,1676C1343.67,1676 1294.83,1669.5 1252.5,1656.5C1210.17,1643.5 1174,1602 1144,1532C1146.67,1537.33 1145.67,1533 1141,1519L1217,1519C1215.67,1516.33 1219,1521.67 1227,1535C1249,1570.33 1272.33,1590.33 1297,1595C1321.67,1599.67 1351.33,1602 1386,1602L1636,1602C1686.67,1602 1733.83,1622.67 1777.5,1664C1821.17,1705.33 1843,1765 1843,1843L1348,1843C1266,1843 1191.5,1814.83 1124.5,1758.5C1057.5,1702.17 1024,1636 1024,1560ZM741,1446L1307,1446C1288.33,1390 1278.67,1338.67 1278,1292C1198,1264.67 1113.33,1252 1024,1254C934,1252 849.333,1264.67 770,1292C768.667,1338.67 759,1390 741,1446ZM1024,1179C1130,1178.33 1225,1192.33 1309,1221C1435,1101 1482.33,985.667 1451,875C1411,746.333 1268.67,602.667 1024,444C778.667,602.667 636.333,746.333 597,875C565,985.667 612.333,1101 739,1221C822.333,1192.33 917.333,1178.33 1024,1179ZM977,818L977,714L1071,714L1071,818L1166,818L1166,907L1071,907L1071,1072L977,1072L977,907L882,907L882,818L977,818Z" style="fill:rgb(28,26,29);fill-rule:nonzero;stroke:rgb(28,26,29);stroke-width:1px;"/>
                        <rect x="838.195" y="666.757" width="389.725" height="457.41" style="fill:rgb(242,239,231);"/>
                        <g transform="matrix(2.20865,0,0,2.20865,-1237.66,-357.108)">
                            <circle cx="1024" cy="295.46" r="64.171" style="fill:rgb(28,26,29);"/>
                        </g>
                        <g transform="matrix(1.10433,0,0,1.10433,-106.83,-30.8242)">
                            <circle cx="1024" cy="295.46" r="64.171" style="fill:rgb(242,239,231);"/>
                        </g>
                    </g>
                    <g id="wB.svg3" serif:id="wB.svg">
                    </g>
                </g>
            </g>
        </g>
    </g>
</svg>
