<?xml version="1.0" encoding="UTF-8" standalone="no"?>
<!DOCTYPE svg PUBLIC "-//W3C//DTD SVG 1.1//EN" "http://www.w3.org/Graphics/SVG/1.1/DTD/svg11.dtd">
<svg width="100%" height="100%" viewBox="0 0 591 591" version="1.1" xmlns="http://www.w3.org/2000/svg" xmlns:xlink="http://www.w3.org/1999/xlink" xml:space="preserve" xmlns:serif="http://www.serif.com/" style="fill-rule:evenodd;clip-rule:evenodd;stroke-linejoin:round;stroke-miterlimit:2;">
    <g transform="matrix(1,0,0,1,-1483,-2040)">
        <g transform="matrix(0.165565,0,0,0.165565,906.549,2407.23)">
            <g id="wK.svg" transform="matrix(1.74165,0,0,1.74165,5265.18,-432.486)">
                <g id="wK.svg1" serif:id="wK.svg">
                    <g id="wK.svg2" serif:id="wK.svg" transform="matrix(1,0,0,1,-1024,-1024)">
                        <path d="M501.645,1810.98L549.969,1456.61L289.942,1187.38C289.942,1187.38 123.612,899.246 319.856,706.445C582.184,448.719 826.103,727.155 826.103,727.155L1021.7,561.474L1205.79,727.155C1205.79,727.155 1422.09,494.742 1636.1,651.218C1850.1,807.694 1891.52,968.773 1753.46,1182.78C1615.39,1396.78 1502.63,1463.52 1502.63,1463.52L1557.86,1810.98L501.645,1810.98Z" style="fill:rgb(242,239,231);fill-rule:nonzero;stroke:rgb(28,26,29);stroke-width:1px;"/>
                        <path d="M1024,612C992.667,612 947.333,652.333 888,733C867.333,709 850.667,690.667 838,678C900,584.667 962,538 1024,538C1085.33,538 1147.33,584.667 1210,678C1196.67,690.667 1180,709 1160,733C1100,652.333 1054.67,612 1024,612ZM987,1313C986.333,1215 974.167,1123.5 950.5,1038.5C926.833,953.5 900,889 870,845C840,786.333 796.167,735.333 738.5,692C680.833,648.667 624.667,627 570,627C501.333,627 432,658 362,720C292,782 257,858.333 257,949C257,1021.67 285.833,1100.33 343.5,1185C401.167,1269.67 468.667,1344 546,1408C687.333,1349.33 834.333,1317.67 987,1313ZM1600,1843L448,1843L509,1478C292.333,1291.33 183.667,1113 183,943C182.333,837 224,745.5 308,668.5C392,591.5 481,553 575,553C627,553 679.833,568.667 733.5,600C787.167,631.333 834.667,671 876,719C916.667,768.333 949.5,823.167 974.5,883.5C999.5,943.833 1016,994 1024,1034C1032,994 1048.33,943.833 1073,883.5C1097.67,823.167 1130.67,768.333 1172,719C1212.67,671 1260,631.333 1314,600C1368,568.667 1421,553 1473,553C1566.33,553 1655,591.5 1739,668.5C1823,745.5 1865,837 1865,943C1863.67,1113 1755,1291.33 1539,1478L1600,1843ZM535,1769L1513,1769L1463,1471C1319,1415 1172.67,1387 1024,1387C875.333,1387 729,1415 585,1471L535,1769ZM1061,1313C1213.67,1317.67 1360.67,1349.33 1502,1408C1578.67,1344 1646,1269.67 1704,1185C1762,1100.33 1791,1021.67 1791,949C1791,858.333 1755.83,782 1685.5,720C1615.17,658 1546,627 1478,627C1422.67,627 1366.17,648.667 1308.5,692C1250.83,735.333 1207.33,786.333 1178,845C1147.33,889 1120.17,953.5 1096.5,1038.5C1072.83,1123.5 1061,1215 1061,1313Z" style="fill:rgb(28,26,29);fill-rule:nonzero;stroke:rgb(28,26,29);stroke-width:1px;"/>
                        <g transform="matrix(1,0,0,1,-710,-239.554)">
                            <path d="M1734,527.554C1802.99,527.554 1859,583.565 1859,652.554C1859,721.544 1802.99,777.554 1734,777.554C1665.01,777.554 1609,721.544 1609,652.554C1609,583.565 1665.01,527.554 1734,527.554ZM1734,590.054C1699.51,590.054 1671.5,618.06 1671.5,652.554C1671.5,687.049 1699.51,715.054 1734,715.054C1768.5,715.054 1796.5,687.049 1796.5,652.554C1796.5,618.06 1768.5,590.054 1734,590.054Z" style="fill:rgb(28,26,29);"/>
                        </g>
                        <g transform="matrix(0.706874,0,0,0.706874,300.161,121.061)">
                            <circle cx="1024" cy="413" r="87.71" style="fill:rgb(242,239,231);"/>
                        </g>
                    </g>
                    <g id="wK.svg3" serif:id="wK.svg">
                    </g>
                </g>
            </g>
        </g>
    </g>
</svg>
