<?xml version="1.0" encoding="UTF-8" standalone="no"?>
<!DOCTYPE svg PUBLIC "-//W3C//DTD SVG 1.1//EN" "http://www.w3.org/Graphics/SVG/1.1/DTD/svg11.dtd">
<svg width="100%" height="100%" viewBox="0 0 591 592" version="1.1" xmlns="http://www.w3.org/2000/svg" xmlns:xlink="http://www.w3.org/1999/xlink" xml:space="preserve" xmlns:serif="http://www.serif.com/" style="fill-rule:evenodd;clip-rule:evenodd;stroke-linejoin:round;stroke-miterlimit:2;">
    <g transform="matrix(1,0,0,1,-892,-2630)">
        <g transform="matrix(0.165565,0,0,0.165565,906.549,2407.23)">
            <g id="wN.svg" transform="matrix(1.74165,0,0,1.74165,1698.29,3134.41)">
                <g id="wN.svg1" serif:id="wN.svg">
                    <g id="wN.svg2" serif:id="wN.svg" transform="matrix(1,0,0,1,-1024,-1024)">
                        <g transform="matrix(1,0,0,1,-2.96792,0)">
                            <path d="M340.776,1056.29L487.626,1176.6L823.08,1073.57L942.863,1082.13L1024,1137.49L982.232,1226.9L799.406,1403.83L677.756,1582.15L601.769,1823.9L852.482,1815.09L1677.52,1815.09L1668.04,1682.66L1665.99,1373.42L1688.95,1096.29L1630.56,838.875L1562.06,708.606L1268.88,476.323L1003.5,244.778L1003.5,430.87L830.607,538.008L745.069,629.994L505.927,812.38L359.935,951.21L340.776,1056.29Z" style="fill:rgb(242,239,231);"/>
                            <g transform="matrix(1.05249,0,0,1.05249,-57.3914,-39.539)">
                                <path d="M1216.01,420.01C1220.79,422.338 1505.45,597.988 1581.87,710.816C1643.48,801.781 1678.26,1003.75 1682.96,1109.93C1688.79,1241.47 1656.56,1455.66 1662.21,1574.32C1666.36,1661.44 1716.87,1810.98 1716.87,1810.98L583.679,1810.98C631.133,1392.78 938.761,1261.38 987.553,1142.85C1002.31,1106.99 894.012,1084.37 843.392,1091.06C762.152,1101.79 586.96,1173.77 523.829,1190.15C487.1,1199.68 355.1,1133.1 344.217,1033.8C341.851,1012.21 347.394,965.763 362.694,941.34C415.571,856.933 547.568,755.849 701.494,634.812C805.26,553.218 799.509,491.804 987.053,422.939C994.001,420.388 987.053,210.016 987.053,210.016L1216.01,420.01ZM1062.55,1141.61C967.397,1290.58 692.371,1470.41 662.378,1735.98C662.378,1735.98 1616.67,1735.98 1616.67,1735.98C1603.1,1684.68 1589.46,1623.41 1587.29,1577.89C1581.64,1459.17 1613.87,1244.86 1608.04,1113.25C1603.8,1017.56 1575.3,834.849 1519.77,752.874C1449.28,648.795 1274.17,545.748 1188.4,498.731C1147.34,476.217 1093.82,459.256 1049.85,475.399C950.928,511.723 902.435,552.618 859.2,594.274C824.002,628.187 794.631,667.19 745.534,695.52C614.809,770.951 430.438,941.34 430.438,941.34C430.438,941.34 408.082,977.353 404.534,1010.5C401.732,1036.69 417.05,1061.09 420.088,1064.52C436.2,1082.73 510.826,1124.46 510.826,1124.46C510.826,1124.46 735.661,1042.65 819.343,1031.76C884.624,1023.27 966.548,1029.87 1012.92,1059.16C1019.75,1063.48 1025.8,1068.12 1031.11,1073.02C1050.42,1067.56 1074.73,1062.78 1099.56,1056.67C1126.3,1050.1 1153.41,1041.31 1171.96,1024.98C1262.24,945.524 1276.92,794.322 1276.92,794.322L1299.09,873.44C1299.09,873.44 1297.63,1073.34 1117.47,1129.5C1098.12,1135.54 1072.64,1125.81 1062.55,1141.61Z" style="fill:rgb(28,26,29);"/>
                            </g>
                            <path d="M1246.44,515.354C1246.44,515.354 1180.13,476.277 1145.24,449.083C1110.35,421.89 1046.6,352.194 1046.6,352.194L1046.6,484.819L1187.54,554.522L1246.44,515.354Z" style="fill:rgb(242,239,231);"/>
                            <path d="M993.908,1246.89C993.908,1246.89 1077.34,1164.31 1132,1144.72C1186.67,1125.13 1141.76,1104.23 1141.76,1104.23L1037.08,1118.64L1002.5,1192.32L978.819,1236.61L993.908,1246.89Z" style="fill:rgb(28,26,29);"/>
                        </g>
                    </g>
                    <g id="wN.svg3" serif:id="wN.svg">
                    </g>
                </g>
            </g>
        </g>
    </g>
</svg>
