<?xml version="1.0" encoding="UTF-8" standalone="no"?>
<!DOCTYPE svg PUBLIC "-//W3C//DTD SVG 1.1//EN" "http://www.w3.org/Graphics/SVG/1.1/DTD/svg11.dtd">
<svg width="100%" height="100%" viewBox="0 0 592 591" version="1.1" xmlns="http://www.w3.org/2000/svg" xmlns:xlink="http://www.w3.org/1999/xlink" xml:space="preserve" xmlns:serif="http://www.serif.com/" style="fill-rule:evenodd;clip-rule:evenodd;stroke-linejoin:round;stroke-miterlimit:2;">
    <g transform="matrix(1,0,0,1,-301,-2040)">
        <g transform="matrix(0.165565,0,0,0.165565,906.549,2407.23)">
            <g id="wR.svg" transform="matrix(1.74165,0,0,1.74165,-1868.61,-432.486)">
                <g transform="matrix(1,0,0,1,-1024,-1024)">
                    <path d="M502.946,399.163L708.89,399.163L708.89,543.216L923.519,543.216L923.519,399.163L1123.17,399.163L1131.8,543.216L1322.54,543.216L1358.72,399.163L1551.35,399.163L1545.42,668.929L1374.31,807.12L1431.71,1468.09L1607.67,1609.89L1615.29,1796.69L422.528,1797.75L439.041,1598.87L620.406,1461.14L640.345,1024L651.606,781.245L513.27,674.85L502.946,399.163Z" style="fill:rgb(242,239,231);"/>
                    <path d="M1024,1481C897,1481 643,1501 643,1501L648,1427C648,1427 898.667,1407 1024,1407C1149.33,1407 1400,1427 1400,1427L1405,1501C1405,1501 1151,1481 1024,1481ZM1356,840L692,840L697,766L1351,766L1356,840ZM1665,1843L383,1843L412,1579L571,1461L621,802L472,695L455,354L744,354L744,501L881,501L881,354L1167,354L1167,501L1304,501L1304,354L1593,354L1576,695L1427,802L1477,1461L1636,1579L1665,1843ZM467,1769L1581,1769L1566,1620L1405,1501L1351,766L1503,657L1516,427L1378,427L1378,575L1093,575L1093,427L955,427L955,575L670,575L670,427L532,427L545,657L697,766L643,1501L482,1620L467,1769Z" style="fill:rgb(28,26,29);fill-rule:nonzero;stroke:rgb(28,26,29);stroke-width:1px;"/>
                </g>
            </g>
        </g>
    </g>
</svg>
