<?xml version="1.0" encoding="UTF-8" standalone="no"?>
<!DOCTYPE svg PUBLIC "-//W3C//DTD SVG 1.1//EN" "http://www.w3.org/Graphics/SVG/1.1/DTD/svg11.dtd">
<svg width="100%" height="100%" viewBox="0 0 591 591" version="1.1" xmlns="http://www.w3.org/2000/svg" xmlns:xlink="http://www.w3.org/1999/xlink" xml:space="preserve" xmlns:serif="http://www.serif.com/" style="fill-rule:evenodd;clip-rule:evenodd;stroke-linejoin:round;stroke-miterlimit:10;">
    <g transform="matrix(1,0,0,1,-1535,-904)">
        <g transform="matrix(1,0,0,1,169.792,27.3962)">
            <g id="bB.svg" transform="matrix(5.90551,0,0,5.90551,1660.92,1172.24)">
                <g id="bB.svg1" serif:id="bB.svg">
                    <g id="bB.svg2" serif:id="bB.svg" transform="matrix(1,0,0,1,-50,-50)">
                        <g transform="matrix(1,0,0,1,0,-3.9089)">
                            <path d="M57.76,21.466C57.76,25.226 54.712,28.274 50.952,28.274C47.192,28.274 44.144,25.226 44.144,21.466C44.144,17.706 47.192,14.658 50.952,14.658C54.712,14.658 57.759,17.706 57.759,21.466" style="fill:rgb(204,204,204);fill-rule:nonzero;"/>
                        </g>
                        <g transform="matrix(1,0,0,-1,35.2505,29.2839)">
                            <path d="M22.509,11.727C22.509,7.967 19.461,4.919 15.701,4.919C11.941,4.919 8.893,7.967 8.893,11.727C8.893,15.487 11.941,18.534 15.701,18.534C19.461,18.534 22.509,15.487 22.509,11.727Z" style="fill:none;fill-rule:nonzero;stroke:rgb(28,26,29);stroke-width:5.86px;"/>
                        </g>
                        <g transform="matrix(1,0,0,1,0,-3.9089)">
                            <path d="M71.008,44.925C59.96,47.928 52.585,66.702 52.585,66.702C52.585,66.702 53.499,49.793 61.35,35.411C55.898,31.06 51.066,28.367 51.066,28.367C51.066,28.367 25.264,42.464 25.441,58.601C25.619,74.739 38.386,87.329 36.791,90.699C35.194,94.068 66.937,93.891 65.34,90.699C63.745,87.507 76.335,74.561 76.513,58.601C76.566,53.772 74.255,49.097 71.008,44.925" style="fill:rgb(77,77,77);fill-rule:nonzero;"/>
                        </g>
                        <g transform="matrix(1,0,0,1,0,-3.9089)">
                            <path d="M51.888,30.239C42.018,47.243 39.672,54.289 39.672,59.566C39.672,70.691 49.64,88.492 44.852,91.228L37.816,91.228L29.021,73.638L25.503,61.325L27.262,50.771L34.298,41.976L51.888,30.239Z" style="fill:rgb(204,204,204);fill-rule:nonzero;"/>
                        </g>
                        <g transform="matrix(1,0,0,1,0,-3.9089)">
                            <clipPath id="_clip1">
                                <rect x="22.509" y="25.408" width="56.936" height="70.683"/>
                            </clipPath>
                            <g clip-path="url(#_clip1)">
                                <path d="M39.842,89.425C41.678,89.828 45.453,90.228 50.744,90.228L51.081,90.228C56.527,90.21 60.417,89.787 62.301,89.372C62.551,87.354 63.882,84.956 65.706,81.672C68.986,75.759 73.48,67.662 73.581,58.569C73.617,55.428 72.396,52.03 69.953,48.447C62.888,51.885 57.073,63.312 55.313,67.777C54.785,69.114 53.363,69.874 51.96,69.566C50.561,69.261 49.58,67.974 49.657,66.545C49.694,65.863 50.603,50.457 57.621,36.233C54.9,34.191 52.495,32.648 51.053,31.765C48.85,33.092 44.402,35.935 40.026,39.718C34.666,44.352 28.294,51.384 28.373,58.569C28.474,67.744 33.021,75.749 36.342,81.595C38.242,84.941 39.616,87.36 39.842,89.425M50.765,96.091C47.554,96.091 44.449,95.944 41.985,95.675C37.564,95.192 36.099,94.448 35.251,93.784C33.998,92.804 33.515,91.279 33.97,89.873C33.749,88.904 32.367,86.47 31.243,84.491C27.812,78.451 22.627,69.323 22.51,58.633C22.427,51.037 27.057,43.157 36.273,35.212C42.861,29.533 49.386,25.944 49.66,25.794C50.543,25.312 51.614,25.316 52.493,25.806C52.698,25.921 57.601,28.668 63.179,33.12C64.287,34.005 64.603,35.573 63.923,36.817C61.401,41.436 59.622,46.367 58.373,50.869C62.139,46.16 66.116,43.216 70.24,42.096C71.378,41.786 72.598,42.193 73.322,43.125C77.44,48.415 79.5,53.634 79.444,58.634C79.326,69.21 74.215,78.422 70.832,84.517C69.74,86.484 68.398,88.901 68.164,89.877C68.604,91.232 68.159,92.707 66.974,93.676C66.155,94.345 64.724,95.098 60.321,95.61C57.762,95.906 54.514,96.077 51.173,96.09C51.037,96.091 50.901,96.091 50.765,96.091" style="fill:rgb(28,26,29);fill-rule:nonzero;"/>
                            </g>
                        </g>
                        <g transform="matrix(1,0,0,-1,9.24767,86.7746)">
                            <path d="M22.509,11.727C25.555,6.971 57.982,6.09 61.207,11.727" style="fill:none;fill-rule:nonzero;stroke:rgb(28,26,29);stroke-width:5.86px;stroke-linecap:round;"/>
                        </g>
                    </g>
                    <g id="bB.svg3" serif:id="bB.svg">
                    </g>
                </g>
            </g>
        </g>
    </g>
</svg>
