<?xml version="1.0" encoding="UTF-8" standalone="no"?>
<!DOCTYPE svg PUBLIC "-//W3C//DTD SVG 1.1//EN" "http://www.w3.org/Graphics/SVG/1.1/DTD/svg11.dtd">
<svg width="100%" height="100%" viewBox="0 0 591 592" version="1.1" xmlns="http://www.w3.org/2000/svg" xmlns:xlink="http://www.w3.org/1999/xlink" xml:space="preserve" xmlns:serif="http://www.serif.com/" style="fill-rule:evenodd;clip-rule:evenodd;stroke-miterlimit:10;">
    <g transform="matrix(1,0,0,1,-1535,-313)">
        <g transform="matrix(1,0,0,1,169.792,27.3962)">
            <g id="bK.svg" transform="matrix(5.90551,0,0,5.90551,1660.92,581.693)">
                <g id="bK.svg1" serif:id="bK.svg">
                    <g id="bK.svg2" serif:id="bK.svg" transform="matrix(1,0,0,1,-50,-50)">
                        <clipPath id="_clip1">
                            <rect x="0" y="0" width="100" height="100"/>
                        </clipPath>
                        <g clip-path="url(#_clip1)">
                            <g transform="matrix(1,0,0,1,0,1)">
                                <path d="M48.045,25.648L43.94,25.648C42.322,25.648 41.008,24.334 41.008,22.715C41.008,21.097 42.322,19.783 43.94,19.783L48.045,19.783L48.045,15.678C48.045,14.06 49.359,12.746 50.977,12.746C52.596,12.746 53.909,14.06 53.909,15.678L53.909,19.783L58.014,19.783C59.633,19.783 60.947,21.097 60.947,22.715C60.947,24.334 59.633,25.648 58.014,25.648L53.909,25.648L53.909,39.755C53.909,41.374 52.596,42.687 50.977,42.687C49.359,42.687 48.045,41.374 48.045,39.755L48.045,25.648Z" style="fill:rgb(77,77,77);"/>
                                <path d="M43.555,15.293C43.756,11.37 47.005,8.246 50.977,8.246C54.95,8.246 58.199,11.37 58.4,15.293C62.323,15.494 65.447,18.743 65.447,22.715C65.447,26.685 62.328,29.932 58.409,30.137L58.409,39.755C58.409,43.857 55.079,47.187 50.977,47.187C46.875,47.187 43.545,43.857 43.545,39.755L43.545,30.137C39.627,29.932 36.508,26.685 36.508,22.715C36.508,18.743 39.632,15.494 43.555,15.293ZM48.045,25.648L48.045,39.755C48.045,41.374 49.359,42.687 50.977,42.687C52.596,42.687 53.909,41.374 53.909,39.755L53.909,25.648L58.014,25.648C59.633,25.648 60.947,24.334 60.947,22.715C60.947,21.097 59.633,19.783 58.014,19.783L53.909,19.783L53.909,15.678C53.909,14.06 52.596,12.746 50.977,12.746C49.359,12.746 48.045,14.06 48.045,15.678L48.045,19.783L43.94,19.783C42.322,19.783 41.008,21.097 41.008,22.715C41.008,24.334 42.322,25.648 43.94,25.648L48.045,25.648Z" style="fill:rgb(28,26,29);"/>
                            </g>
                            <g transform="matrix(1,0,0,1,0,-3.83451)">
                                <path d="M74.924,91.372L26.993,91.372C25.934,91.372 25.076,90.514 25.076,89.455L25.076,84.662C25.076,83.603 25.934,82.745 26.993,82.745L74.924,82.745C75.983,82.745 76.842,83.603 76.842,84.662L76.842,89.455C76.842,90.514 75.983,91.372 74.924,91.372" style="fill:rgb(77,77,77);fill-rule:nonzero;"/>
                            </g>
                            <g transform="matrix(1,0,0,1,0,-3.83451)">
                                <rect x="25.076" y="82.169" width="6.902" height="8.628" style="fill:rgb(204,204,204);fill-rule:nonzero;"/>
                            </g>
                            <g transform="matrix(1,0,0,1,0,-3.83451)">
                                <path d="M27.952,88.496L73.966,88.496L73.966,85.62L27.952,85.62L27.952,88.496ZM74.924,94.248L26.993,94.248C24.35,94.248 22.2,92.098 22.2,89.455L22.2,84.662C22.2,82.019 24.35,79.869 26.993,79.869L74.924,79.869C77.567,79.869 79.717,82.019 79.717,84.662L79.717,89.455C79.717,92.098 77.567,94.248 74.924,94.248" style="fill:rgb(28,26,29);fill-rule:nonzero;"/>
                            </g>
                            <g transform="matrix(1,0,0,1,0,-3.83451)">
                                <path d="M74.112,38.651C80.319,38.651 85.351,43.274 85.351,48.976C85.351,61.023 75.986,67.906 74.112,69.627C72.239,71.348 62.873,69.627 62.873,69.627L62.873,48.976C62.873,43.274 67.905,38.651 74.112,38.651" style="fill:rgb(77,77,77);fill-rule:nonzero;"/>
                            </g>
                            <g transform="matrix(1,0,0,1,0,-3.83451)">
                                <path d="M65.749,67.276C68.637,67.651 71.392,67.748 72.305,67.467C72.466,67.325 72.649,67.167 72.853,66.992C75.484,64.731 82.475,58.726 82.475,48.976C82.475,44.807 78.724,41.415 74.112,41.415C69.501,41.415 65.749,44.807 65.749,48.976L65.749,67.276ZM70.382,73.158C69.534,73.158 68.591,73.113 67.541,73.026C64.85,72.801 62.435,72.361 62.333,72.342L59.997,71.913L59.997,48.976C59.997,41.759 66.33,35.887 74.112,35.887C81.895,35.887 88.227,41.759 88.227,48.976C88.227,61.2 79.54,68.662 76.685,71.114C76.441,71.324 76.23,71.505 76.099,71.625C74.963,72.669 73.19,73.158 70.382,73.158" style="fill:rgb(28,26,29);fill-rule:nonzero;"/>
                            </g>
                            <g transform="matrix(1,0,0,1,0,-3.83451)">
                                <path d="M62.197,37.961C68.404,37.961 73.436,42.583 73.436,48.286C73.436,60.333 64.071,67.216 62.197,68.937C60.324,70.658 50.959,68.937 50.959,68.937L50.959,48.286C50.959,42.583 55.991,37.961 62.197,37.961" style="fill:rgb(77,77,77);fill-rule:nonzero;"/>
                            </g>
                            <g transform="matrix(1,0,0,1,0,-3.83451)">
                                <path d="M69.173,39.99C61.695,44.208 58.436,40.181 57.477,69.515C57.477,69.515 55.943,72.382 52.492,67.406C49.041,62.431 51.15,53.593 51.15,48.617C51.15,43.642 55.368,40.54 58.819,38.882C62.27,37.224 69.173,39.99 69.173,39.99" style="fill:rgb(204,204,204);fill-rule:nonzero;"/>
                            </g>
                            <g transform="matrix(1,0,0,1,0,-3.83451)">
                                <path d="M53.835,66.586C56.722,66.961 59.478,67.058 60.389,66.777C60.571,66.618 60.753,66.459 60.937,66.303C63.569,64.042 70.56,58.037 70.56,48.286C70.56,44.117 66.809,40.724 62.197,40.724C57.586,40.724 53.835,44.117 53.835,48.286L53.835,66.586ZM58.467,72.468C57.618,72.468 56.675,72.424 55.627,72.336C52.936,72.111 50.521,71.67 50.419,71.652L48.083,71.223L48.083,48.286C48.083,41.069 54.414,35.197 62.197,35.197C69.98,35.197 76.312,41.069 76.312,48.286C76.312,60.51 67.625,67.973 64.77,70.425C64.526,70.634 64.314,70.816 64.184,70.935C63.048,71.979 61.275,72.468 58.467,72.468" style="fill:rgb(28,26,29);fill-rule:nonzero;"/>
                            </g>
                            <g transform="matrix(1,0,0,1,0,-3.83451)">
                                <path d="M27.805,38.651C21.599,38.651 16.566,43.274 16.566,48.976C16.566,61.023 25.932,67.906 27.805,69.627C29.678,71.348 39.044,69.627 39.044,69.627L39.044,48.976C39.044,43.274 34.012,38.651 27.805,38.651" style="fill:rgb(77,77,77);fill-rule:nonzero;"/>
                            </g>
                            <g transform="matrix(1,0,0,1,0,-3.83451)">
                                <path d="M29.294,38.329C17.215,45.741 23.35,56.756 31.978,68.365C31.978,68.365 27.568,71.497 24.117,66.523C20.666,61.547 15.489,54.914 15.489,49.938C15.489,44.963 18.94,39.987 22.392,38.329C25.843,36.671 29.294,38.329 29.294,38.329" style="fill:rgb(204,204,204);fill-rule:nonzero;"/>
                            </g>
                            <g transform="matrix(1,0,0,1,0,-3.83451)">
                                <path d="M29.613,67.467C30.525,67.748 33.28,67.651 36.168,67.276L36.168,48.976C36.168,44.807 32.416,41.415 27.805,41.415C23.194,41.415 19.442,44.807 19.442,48.976C19.442,58.726 26.433,64.731 29.065,66.992C29.268,67.167 29.452,67.325 29.613,67.467M31.535,73.158C28.727,73.158 26.954,72.669 25.818,71.625C25.687,71.505 25.476,71.324 25.231,71.114C22.378,68.662 13.69,61.2 13.69,48.976C13.69,41.759 20.023,35.887 27.805,35.887C35.588,35.887 41.92,41.759 41.92,48.976L41.92,71.913L39.584,72.342C39.482,72.361 37.067,72.801 34.376,73.026C33.327,73.113 32.384,73.158 31.535,73.158" style="fill:rgb(28,26,29);fill-rule:nonzero;"/>
                            </g>
                            <g transform="matrix(1,0,0,1,0,-3.83451)">
                                <path d="M39.72,37.961C33.513,37.961 28.481,42.583 28.481,48.286C28.481,60.333 37.846,67.216 39.72,68.937C41.593,70.658 50.959,68.937 50.959,68.937L50.959,48.286C50.959,42.583 45.927,37.961 39.72,37.961" style="fill:rgb(77,77,77);fill-rule:nonzero;"/>
                            </g>
                            <g transform="matrix(1,0,0,1,0,-3.83451)">
                                <path d="M42.906,38.072C36.004,44.482 37.154,55.989 45.782,67.598C45.782,67.598 42.331,72.626 38.88,67.651C35.429,62.675 29.485,54.168 29.485,49.193C29.485,44.217 33.703,41.115 37.154,39.457C40.605,37.799 42.906,38.072 42.906,38.072" style="fill:rgb(204,204,204);fill-rule:nonzero;"/>
                            </g>
                            <g transform="matrix(1,0,0,1,0,-3.83451)">
                                <path d="M41.528,66.777C42.442,67.059 45.198,66.962 48.083,66.587L48.083,48.286C48.083,44.117 44.331,40.724 39.72,40.724C35.109,40.724 31.357,44.117 31.357,48.286C31.357,58.037 38.348,64.042 40.981,66.303C41.184,66.477 41.366,66.634 41.528,66.777M43.45,72.468C40.642,72.468 38.87,71.979 37.733,70.935C37.603,70.816 37.392,70.634 37.148,70.425C34.293,67.973 25.605,60.51 25.605,48.286C25.605,41.069 31.937,35.197 39.72,35.197C47.502,35.197 53.835,41.069 53.835,48.286L53.835,71.223L51.499,71.652C51.397,71.67 48.982,72.111 46.29,72.336C45.242,72.424 44.298,72.468 43.45,72.468" style="fill:rgb(28,26,29);fill-rule:nonzero;"/>
                            </g>
                            <g transform="matrix(1,0,0,1,0,19.1724)">
                                <path d="M33.703,70.091L39.81,83.32" style="fill:none;fill-rule:nonzero;"/>
                            </g>
                            <g transform="matrix(1,0,0,1,0,19.1724)">
                                <path d="M47.953,70.091L54.06,83.32" style="fill:none;fill-rule:nonzero;"/>
                            </g>
                            <g transform="matrix(1,0,0,1,0,19.1724)">
                                <path d="M62.203,70.091L68.31,83.32" style="fill:none;fill-rule:nonzero;"/>
                            </g>
                            <g transform="matrix(1,0,0,1,0,-3.83451)">
                                <path d="M76.65,82.745L25.267,82.745C24.208,82.745 23.35,81.886 23.35,80.827L23.35,72.008C23.35,70.95 24.208,70.091 25.267,70.091L76.65,70.091C77.709,70.091 78.567,70.95 78.567,72.008L78.567,80.827C78.567,81.886 77.709,82.745 76.65,82.745" style="fill:rgb(77,77,77);fill-rule:nonzero;"/>
                            </g>
                            <g transform="matrix(1,0,0,1,0,-3.83451)">
                                <rect x="23.925" y="71.816" width="6.71" height="8.628" style="fill:rgb(204,204,204);fill-rule:nonzero;"/>
                            </g>
                            <g transform="matrix(1,0,0,1,0,19.1724)">
                                <clipPath id="_clip2">
                                    <rect x="13.69" y="11.504" width="74.536" height="82.745"/>
                                </clipPath>
                                <g clip-path="url(#_clip2)">
                                    <g transform="matrix(1,0,0,-1,20.0129,58.5873)">
                                        <path d="M13.69,11.504L19.797,-1.726" style="fill:none;fill-rule:nonzero;stroke:rgb(28,26,29);stroke-width:5.75px;"/>
                                    </g>
                                </g>
                            </g>
                            <g transform="matrix(1,0,0,1,0,19.1724)">
                                <g transform="matrix(1,0,0,-1,34.2625,58.5873)">
                                    <path d="M13.69,11.504L19.797,-1.726" style="fill:none;fill-rule:nonzero;stroke:rgb(28,26,29);stroke-width:5.75px;"/>
                                </g>
                            </g>
                            <g transform="matrix(1,0,0,1,0,19.1724)">
                                <clipPath id="_clip3">
                                    <rect x="13.69" y="11.504" width="74.536" height="82.745"/>
                                </clipPath>
                                <g clip-path="url(#_clip3)">
                                    <g transform="matrix(1,0,0,-1,48.5123,58.5873)">
                                        <path d="M13.69,11.504L19.797,-1.726" style="fill:none;fill-rule:nonzero;stroke:rgb(28,26,29);stroke-width:5.75px;"/>
                                    </g>
                                </g>
                            </g>
                            <g transform="matrix(1,0,0,1,0,-3.83451)">
                                <path d="M26.226,79.869L75.691,79.869L75.691,72.967L26.226,72.967L26.226,79.869ZM76.65,85.62L25.267,85.62C22.624,85.62 20.474,83.47 20.474,80.827L20.474,72.008C20.474,69.365 22.624,67.215 25.267,67.215L76.65,67.215C79.293,67.215 81.443,69.365 81.443,72.008L81.443,80.827C81.443,83.47 79.293,85.62 76.65,85.62" style="fill:rgb(28,26,29);fill-rule:nonzero;"/>
                            </g>
                        </g>
                    </g>
                    <g id="bK.svg3" serif:id="bK.svg">
                    </g>
                </g>
            </g>
        </g>
    </g>
</svg>
