<?xml version="1.0" encoding="UTF-8" standalone="no"?>
<!DOCTYPE svg PUBLIC "-//W3C//DTD SVG 1.1//EN" "http://www.w3.org/Graphics/SVG/1.1/DTD/svg11.dtd">
<svg width="100%" height="100%" viewBox="0 0 592 592" version="1.1" xmlns="http://www.w3.org/2000/svg" xmlns:xlink="http://www.w3.org/1999/xlink" xml:space="preserve" xmlns:serif="http://www.serif.com/" style="fill-rule:evenodd;clip-rule:evenodd;stroke-linejoin:round;stroke-miterlimit:10;">
    <g transform="matrix(1,0,0,1,-944,-313)">
        <g transform="matrix(1,0,0,1,169.792,27.3962)">
            <g id="bQ.svg" transform="matrix(5.90551,0,0,5.90551,1070.37,581.693)">
                <g id="bQ.svg1" serif:id="bQ.svg">
                    <g id="bQ.svg2" serif:id="bQ.svg" transform="matrix(1,0,0,1,-50,-50)">
                        <g transform="matrix(1,0,0,1,0,-3.78788)">
                            <path d="M72.789,91.477L29.105,91.477C29.958,90.421 32.466,87.032 32.466,82.102C32.466,80.782 32.286,76.67 29.105,72.727L72.789,72.727C71.936,73.784 69.428,77.173 69.428,82.102C69.428,83.423 69.608,87.534 72.789,91.477" style="fill:rgb(77,77,77);fill-rule:nonzero;"/>
                        </g>
                        <g transform="matrix(1,0,0,1,0,-3.78788)">
                            <path d="M38.826,91.477C39.501,89.53 40.991,86.596 41.098,82.955C41.231,78.448 39.564,75.052 38.826,72.917C36.803,72.917 33.664,72.727 31.641,72.727L34.589,82.955L29.908,91.477L38.826,91.477Z" style="fill:rgb(204,204,204);fill-rule:nonzero;"/>
                        </g>
                        <g transform="matrix(1,0,0,1,0,-3.78788)">
                            <path d="M33.808,88.636L68.084,88.636C67.038,85.982 66.828,83.591 66.828,82.102C66.828,79.58 67.364,77.384 68.086,75.568L33.81,75.568C34.856,78.223 35.066,80.613 35.066,82.102C35.066,84.625 34.53,86.821 33.808,88.636M72.788,94.318L29.106,94.318C28.084,94.318 27.157,93.664 26.736,92.647C26.315,91.629 26.48,90.437 27.155,89.599C28.167,88.343 29.866,85.7 29.866,82.102C29.866,80.558 29.514,77.53 27.154,74.605C26.48,73.767 26.315,72.575 26.736,71.558C27.157,70.541 28.084,69.886 29.106,69.886L72.788,69.886C73.81,69.886 74.737,70.54 75.158,71.558C75.579,72.576 75.415,73.767 74.739,74.606C73.727,75.861 72.028,78.505 72.028,82.102C72.028,83.646 72.38,86.674 74.739,89.6C75.415,90.437 75.579,91.63 75.158,92.647C74.737,93.664 73.81,94.318 72.788,94.318" style="fill:rgb(28,26,29);fill-rule:nonzero;"/>
                        </g>
                        <g transform="matrix(1,0,0,1,0,-3.78788)">
                            <path d="M29.565,65.208L22.866,41.162C23.479,41.531 32.417,54.238 36.906,51.421C40.476,49.18 39.734,35.477 40.027,30.114C41.598,35.084 46.861,47.87 50.947,47.87C55.033,47.87 60.296,35.084 61.867,30.114C61.967,30.726 60.385,48.515 66.548,51.421C70.068,53.081 77.889,41.665 79.029,41.162C77.861,47.83 73.573,57.034 72.405,65.176C71.784,69.51 68.116,72.727 63.787,72.727L38.178,72.727C33.862,72.727 30.197,69.528 29.565,65.208" style="fill:rgb(77,77,77);fill-rule:nonzero;"/>
                        </g>
                        <g transform="matrix(1,0,0,1,0,-3.78788)">
                            <path d="M28.755,47.159C41.288,53.409 29.924,69.886 55.871,69.886L36.927,72.727C34.807,70.745 30.475,66.141 28.755,59.091C27.507,53.974 28.149,49.674 28.755,47.159" style="fill:rgb(204,204,204);fill-rule:nonzero;"/>
                        </g>
                        <g transform="matrix(1,0,0,1,0,-3.78788)">
                            <path d="M28.376,51.186L32.052,64.381C32.087,64.506 32.113,64.632 32.132,64.76C32.56,67.683 35.16,69.886 38.178,69.886L63.787,69.886C66.815,69.886 69.416,67.672 69.837,64.737C70.48,60.256 71.948,55.667 73.417,51.208C70.595,53.81 67.968,55.185 65.518,54.028C62.366,52.543 60.365,48.611 59.567,42.341C56.532,48.051 53.792,50.71 50.947,50.71C48.091,50.71 45.342,48.031 42.293,42.278L42.275,42.242C41.884,47.957 40.891,52.196 38.201,53.884C37.329,54.431 36.414,54.672 35.477,54.672C33.131,54.672 30.65,53.16 28.376,51.186M63.787,75.568L38.178,75.568C35.503,75.568 32.907,74.588 30.867,72.807C28.831,71.031 27.474,68.572 27.029,65.864L20.378,41.989C20.07,40.883 20.406,39.684 21.228,38.955C22.049,38.227 23.193,38.116 24.119,38.673C24.617,38.972 24.899,39.318 25.837,40.464C27.054,41.952 29.32,44.721 31.616,46.733C34.167,48.967 35.374,49.065 35.596,48.965C35.689,48.869 36.463,47.95 36.918,43.839C37.254,40.791 37.297,37.143 37.331,34.211C37.351,32.542 37.368,31.1 37.431,29.944C37.504,28.591 38.443,27.484 39.673,27.299C40.901,27.115 42.079,27.905 42.484,29.186C43.259,31.639 44.823,35.626 46.569,39.001C48.881,43.473 50.455,44.827 50.947,45.015C51.439,44.827 53.013,43.473 55.325,39.001C57.07,35.626 58.634,31.639 59.41,29.186C59.797,27.962 60.892,27.181 62.073,27.282C63.254,27.384 64.223,28.346 64.429,29.621C64.49,30.001 64.479,30.274 64.444,31.178C63.894,45.082 66.394,48.083 67.415,48.722C67.706,48.641 68.617,48.261 70.462,46.494C72.036,44.988 73.618,43.125 74.89,41.627C76.573,39.645 77.203,38.903 78.055,38.528C78.937,38.138 79.944,38.306 80.68,38.967C81.415,39.627 81.761,40.674 81.582,41.695C81.016,44.928 79.821,48.55 78.556,52.385C77.091,56.827 75.576,61.421 74.974,65.615C74.573,68.413 73.202,70.962 71.114,72.793C69.071,74.583 66.47,75.568 63.787,75.568" style="fill:rgb(28,26,29);fill-rule:nonzero;"/>
                        </g>
                        <g transform="matrix(1,0,0,1,0,-3.78788)">
                            <path d="M44.129,25C44.129,27.824 41.839,30.114 39.015,30.114C36.191,30.114 33.902,27.824 33.902,25C33.902,22.176 36.191,19.886 39.015,19.886C41.839,19.886 44.129,22.176 44.129,25" style="fill:rgb(128,128,128);fill-rule:nonzero;"/>
                        </g>
                        <g transform="matrix(1,0,0,-1,31.8182,38.2576)">
                            <path d="M12.311,17.045C12.311,14.222 10.021,11.932 7.197,11.932C4.373,11.932 2.083,14.222 2.083,17.045C2.083,19.869 4.373,22.159 7.197,22.159C10.021,22.159 12.311,19.869 12.311,17.045Z" style="fill:rgb(204,204,204);fill-rule:nonzero;stroke:rgb(28,26,29);stroke-width:5.68px;"/>
                        </g>
                        <g transform="matrix(1,0,0,1,0,-3.78788)">
                            <path d="M67.992,25C67.992,27.824 65.703,30.114 62.879,30.114C60.055,30.114 57.765,27.824 57.765,25C57.765,22.176 60.055,19.886 62.879,19.886C65.703,19.886 67.992,22.176 67.992,25" style="fill:rgb(204,204,204);fill-rule:nonzero;"/>
                        </g>
                        <g transform="matrix(1,0,0,-1,55.6818,38.2576)">
                            <path d="M12.311,17.045C12.311,14.222 10.021,11.932 7.197,11.932C4.373,11.932 2.083,14.222 2.083,17.045C2.083,19.869 4.373,22.159 7.197,22.159C10.021,22.159 12.311,19.869 12.311,17.045Z" style="fill:none;fill-rule:nonzero;stroke:rgb(28,26,29);stroke-width:5.68px;"/>
                        </g>
                        <g transform="matrix(1,0,0,1,0,-3.78788)">
                            <path d="M86.742,35.227C86.742,38.051 84.453,40.341 81.629,40.341C78.805,40.341 76.515,38.051 76.515,35.227C76.515,32.403 78.805,30.114 81.629,30.114C84.453,30.114 86.742,32.403 86.742,35.227" style="fill:rgb(204,204,204);fill-rule:nonzero;"/>
                        </g>
                        <g transform="matrix(1,0,0,-1,74.4318,48.4849)">
                            <path d="M12.311,17.045C12.311,14.222 10.021,11.932 7.197,11.932C4.373,11.932 2.083,14.222 2.083,17.045C2.083,19.869 4.373,22.159 7.197,22.159C10.021,22.159 12.311,19.869 12.311,17.045Z" style="fill:none;fill-rule:nonzero;stroke:rgb(28,26,29);stroke-width:5.68px;"/>
                        </g>
                        <g transform="matrix(1,0,0,1,0,-3.78788)">
                            <path d="M25.379,35.227C25.379,38.051 23.089,40.341 20.265,40.341C17.441,40.341 15.152,38.051 15.152,35.227C15.152,32.403 17.441,30.114 20.265,30.114C23.089,30.114 25.379,32.403 25.379,35.227" style="fill:rgb(128,128,128);fill-rule:nonzero;"/>
                        </g>
                        <g transform="matrix(1,0,0,-1,13.0682,48.4849)">
                            <path d="M12.311,17.045C12.311,14.222 10.021,11.932 7.197,11.932C4.373,11.932 2.083,14.222 2.083,17.045C2.083,19.869 4.373,22.159 7.197,22.159C10.021,22.159 12.311,19.869 12.311,17.045Z" style="fill:rgb(204,204,204);fill-rule:nonzero;stroke:rgb(28,26,29);stroke-width:5.68px;"/>
                        </g>
                        <g transform="matrix(1,0,0,-1,19.9152,96.2122)">
                            <path d="M12.311,17.045L49.753,17.045" style="fill:none;fill-rule:nonzero;stroke:rgb(28,26,29);stroke-width:5.68px;"/>
                        </g>
                    </g>
                    <g id="bQ.svg3" serif:id="bQ.svg">
                    </g>
                </g>
            </g>
        </g>
    </g>
</svg>
