<?xml version="1.0" encoding="UTF-8" standalone="no"?>
<!DOCTYPE svg PUBLIC "-//W3C//DTD SVG 1.1//EN" "http://www.w3.org/Graphics/SVG/1.1/DTD/svg11.dtd">
<svg width="100%" height="100%" viewBox="0 0 591 592" version="1.1" xmlns="http://www.w3.org/2000/svg" xmlns:xlink="http://www.w3.org/1999/xlink" xml:space="preserve" xmlns:serif="http://www.serif.com/" style="fill-rule:evenodd;clip-rule:evenodd;stroke-miterlimit:10;">
    <g transform="matrix(1,0,0,1,-1532,-2046)">
        <g transform="matrix(1,0,0,1,106.711,27.3962)">
            <g id="wK.svg" transform="matrix(5.90551,0,0,5.90551,1720.99,2314.61)">
                <g id="wK.svg1" serif:id="wK.svg">
                    <g id="wK.svg2" serif:id="wK.svg" transform="matrix(1,0,0,1,-50,-50)">
                        <clipPath id="_clip1">
                            <rect x="0" y="0" width="100" height="100"/>
                        </clipPath>
                        <g clip-path="url(#_clip1)">
                            <g transform="matrix(1,0,0,1,0,1)">
                                <path d="M48.045,25.648L43.94,25.648C42.322,25.648 41.008,24.334 41.008,22.715C41.008,21.097 42.322,19.783 43.94,19.783L48.045,19.783L48.045,15.678C48.045,14.06 49.359,12.746 50.977,12.746C52.596,12.746 53.909,14.06 53.909,15.678L53.909,19.783L58.014,19.783C59.633,19.783 60.947,21.097 60.947,22.715C60.947,24.334 59.633,25.648 58.014,25.648L53.909,25.648L53.909,39.755C53.909,41.374 52.596,42.687 50.977,42.687C49.359,42.687 48.045,41.374 48.045,39.755L48.045,25.648Z" style="fill:rgb(242,239,231);"/>
                                <path d="M43.555,15.293C43.756,11.37 47.005,8.246 50.977,8.246C54.95,8.246 58.199,11.37 58.4,15.293C62.323,15.494 65.447,18.743 65.447,22.715C65.447,26.685 62.328,29.932 58.409,30.137L58.409,39.755C58.409,43.857 55.079,47.187 50.977,47.187C46.875,47.187 43.545,43.857 43.545,39.755L43.545,30.137C39.627,29.932 36.508,26.685 36.508,22.715C36.508,18.743 39.632,15.494 43.555,15.293ZM48.045,25.648L48.045,39.755C48.045,41.374 49.359,42.687 50.977,42.687C52.596,42.687 53.909,41.374 53.909,39.755L53.909,25.648L58.014,25.648C59.633,25.648 60.947,24.334 60.947,22.715C60.947,21.097 59.633,19.783 58.014,19.783L53.909,19.783L53.909,15.678C53.909,14.06 52.596,12.746 50.977,12.746C49.359,12.746 48.045,14.06 48.045,15.678L48.045,19.783L43.94,19.783C42.322,19.783 41.008,21.097 41.008,22.715C41.008,24.334 42.322,25.648 43.94,25.648L48.045,25.648Z" style="fill:rgb(28,26,29);"/>
                            </g>
                            <g transform="matrix(1,0,0,1,0,-3.90946)">
                                <path d="M75.412,93.158L26.543,93.158C25.463,93.158 24.588,92.283 24.588,91.204L24.588,86.317C24.588,85.238 25.463,84.362 26.543,84.362L75.412,84.362C76.491,84.362 77.366,85.238 77.366,86.317L77.366,91.204C77.366,92.283 76.491,93.158 75.412,93.158" style="fill:rgb(204,204,204);fill-rule:nonzero;"/>
                            </g>
                            <g transform="matrix(1,0,0,1,0,-3.90946)">
                                <rect x="24.588" y="83.776" width="7.037" height="8.796" style="fill:rgb(242,239,231);fill-rule:nonzero;"/>
                            </g>
                            <g transform="matrix(1,0,0,1,0,-3.90946)">
                                <path d="M27.521,90.226L74.434,90.226L74.434,87.294L27.521,87.294L27.521,90.226ZM75.412,96.09L26.543,96.09C23.849,96.09 21.656,93.898 21.656,91.204L21.656,86.317C21.656,83.622 23.849,81.43 26.543,81.43L75.412,81.43C78.106,81.43 80.298,83.622 80.298,86.317L80.298,91.204C80.298,93.898 78.106,96.09 75.412,96.09" style="fill:rgb(28,26,29);fill-rule:nonzero;"/>
                            </g>
                            <g transform="matrix(1,0,0,1,0,-3.90946)">
                                <path d="M74.584,39.406C80.912,39.406 86.042,44.12 86.042,49.933C86.042,62.215 76.493,69.233 74.584,70.988C72.674,72.743 63.125,70.988 63.125,70.988L63.125,49.934C63.125,44.12 68.255,39.406 74.584,39.406" style="fill:rgb(204,204,204);fill-rule:nonzero;"/>
                            </g>
                            <g transform="matrix(1,0,0,1,0,-3.90946)">
                                <clipPath id="_clip2">
                                    <rect x="60.09" y="36.553" width="28.884" height="38.117"/>
                                </clipPath>
                                <g clip-path="url(#_clip2)">
                                    <path d="M66.057,68.591C69.001,68.973 71.811,69.072 72.741,68.786C72.905,68.641 73.092,68.48 73.3,68.302C75.982,65.997 83.11,59.874 83.11,49.933C83.11,45.683 79.285,42.225 74.584,42.225C69.882,42.225 66.057,45.683 66.057,49.933L66.057,68.591ZM70.78,74.588C69.915,74.588 68.954,74.543 67.884,74.453C65.141,74.224 62.678,73.775 62.574,73.756L60.193,73.318L60.193,49.933C60.193,42.575 66.649,36.588 74.584,36.588C82.519,36.588 88.974,42.575 88.974,49.933C88.974,62.396 80.117,70.004 77.207,72.505C76.958,72.718 76.742,72.903 76.61,73.025C75.451,74.09 73.643,74.588 70.781,74.588" style="fill:rgb(28,26,29);fill-rule:nonzero;"/>
                                </g>
                            </g>
                            <g transform="matrix(1,0,0,1,0,-3.90946)">
                                <path d="M62.435,38.703C68.764,38.703 73.894,43.416 73.894,49.23C73.894,61.512 64.346,68.53 62.435,70.285C60.526,72.039 50.977,70.285 50.977,70.285L50.977,49.23C50.977,43.416 56.108,38.703 62.435,38.703" style="fill:rgb(204,204,204);fill-rule:nonzero;"/>
                            </g>
                            <g transform="matrix(1,0,0,1,0,-3.90946)">
                                <path d="M69.547,40.771C61.924,45.072 58.601,40.967 57.623,70.874C57.623,70.874 56.06,73.797 52.541,68.724C49.023,63.652 51.173,54.64 51.173,49.568C51.173,44.495 55.473,41.333 58.992,39.642C62.51,37.952 69.547,40.771 69.547,40.771" style="fill:rgb(242,239,231);fill-rule:nonzero;"/>
                            </g>
                            <g transform="matrix(1,0,0,1,0,-3.90946)">
                                <path d="M53.909,67.887C56.853,68.27 59.663,68.369 60.592,68.083C60.777,67.92 60.964,67.759 61.151,67.599C63.834,65.294 70.962,59.171 70.962,49.23C70.962,44.979 67.138,41.52 62.435,41.52C57.734,41.52 53.909,44.979 53.909,49.23L53.909,67.887ZM58.633,73.885C57.767,73.885 56.806,73.839 55.737,73.75C52.993,73.521 50.531,73.071 50.427,73.053L48.045,72.615L48.045,49.23C48.045,41.872 54.5,35.885 62.435,35.885C70.37,35.885 76.826,41.872 76.826,49.23C76.826,61.693 67.969,69.302 65.058,71.801C64.809,72.015 64.594,72.2 64.461,72.322C63.304,73.386 61.495,73.885 58.633,73.885" style="fill:rgb(28,26,29);fill-rule:nonzero;"/>
                            </g>
                            <g transform="matrix(1,0,0,1,0,-3.90946)">
                                <path d="M27.371,39.406C21.043,39.406 15.913,44.12 15.913,49.933C15.913,62.215 25.461,69.233 27.371,70.988C29.281,72.743 38.83,70.988 38.83,70.988L38.83,49.934C38.83,44.12 33.699,39.406 27.371,39.406" style="fill:rgb(204,204,204);fill-rule:nonzero;"/>
                            </g>
                            <g transform="matrix(1,0,0,1,0,-3.90946)">
                                <path d="M28.889,39.079C16.574,46.636 22.829,57.866 31.626,69.701C31.626,69.701 27.13,72.895 23.611,67.823C20.093,62.75 14.815,55.987 14.815,50.915C14.815,45.842 18.333,40.769 21.852,39.079C25.37,37.388 28.889,39.079 28.889,39.079" style="fill:rgb(242,239,231);fill-rule:nonzero;"/>
                            </g>
                            <g transform="matrix(1,0,0,1,0,-3.90946)">
                                <path d="M29.214,68.786C30.144,69.072 32.953,68.973 35.898,68.591L35.898,49.933C35.898,45.683 32.072,42.225 27.371,42.225C22.67,42.225 18.845,45.683 18.845,49.933C18.845,59.874 25.973,65.997 28.656,68.302C28.863,68.48 29.05,68.641 29.214,68.786M31.174,74.588C28.311,74.588 26.504,74.09 25.345,73.025C25.212,72.903 24.997,72.718 24.747,72.505C21.838,70.004 12.981,62.396 12.981,49.933C12.981,42.575 19.437,36.588 27.371,36.588C35.306,36.588 41.762,42.575 41.762,49.933L41.762,73.318L39.38,73.756C39.276,73.775 36.814,74.224 34.07,74.453C33.001,74.543 32.039,74.588 31.174,74.588" style="fill:rgb(28,26,29);fill-rule:nonzero;"/>
                            </g>
                            <g transform="matrix(1,0,0,1,0,-3.90946)">
                                <path d="M39.519,38.703C33.191,38.703 28.06,43.416 28.06,49.23C28.06,61.512 37.609,68.53 39.519,70.285C41.429,72.039 50.977,70.285 50.977,70.285L50.977,49.23C50.977,43.416 45.847,38.703 39.519,38.703" style="fill:rgb(204,204,204);fill-rule:nonzero;"/>
                            </g>
                            <g transform="matrix(1,0,0,1,0,-3.90946)">
                                <path d="M42.767,38.817C35.73,45.351 36.903,57.084 45.7,68.92C45.7,68.92 42.181,74.045 38.663,68.973C35.144,63.9 29.084,55.226 29.084,50.154C29.084,45.082 33.385,41.919 36.903,40.229C40.422,38.538 42.767,38.817 42.767,38.817" style="fill:rgb(242,239,231);fill-rule:nonzero;"/>
                            </g>
                            <g transform="matrix(1,0,0,1,0,-3.90946)">
                                <path d="M41.362,68.083C42.294,68.37 45.104,68.271 48.045,67.889L48.045,49.23C48.045,44.979 44.22,41.52 39.519,41.52C34.818,41.52 30.993,44.979 30.993,49.23C30.993,59.171 38.12,65.294 40.804,67.599C41.011,67.776 41.198,67.937 41.362,68.083M43.322,73.885C40.459,73.885 38.652,73.386 37.493,72.322C37.361,72.2 37.145,72.015 36.896,71.801C33.986,69.301 25.128,61.693 25.128,49.23C25.128,41.872 31.584,35.885 39.519,35.885C47.453,35.885 53.909,41.872 53.909,49.23L53.909,72.615L51.528,73.053C51.425,73.071 48.962,73.521 46.218,73.75C45.149,73.839 44.187,73.885 43.322,73.885" style="fill:rgb(28,26,29);fill-rule:nonzero;"/>
                            </g>
                            <g transform="matrix(1,0,0,1,0,-3.90946)">
                                <path d="M33.385,71.461L39.611,84.948" style="fill:none;fill-rule:nonzero;"/>
                            </g>
                            <g transform="matrix(1,0,0,1,0,-3.90946)">
                                <path d="M47.913,71.461L54.139,84.948" style="fill:none;fill-rule:nonzero;"/>
                            </g>
                            <g transform="matrix(1,0,0,1,0,-3.90946)">
                                <path d="M62.441,71.461L68.668,84.948" style="fill:none;fill-rule:nonzero;"/>
                            </g>
                            <g transform="matrix(1,0,0,1,0,-3.90946)">
                                <path d="M77.171,84.362L24.784,84.362C23.704,84.362 22.829,83.487 22.829,82.407L22.829,73.415C22.829,72.336 23.704,71.461 24.784,71.461L77.171,71.461C78.25,71.461 79.126,72.336 79.126,73.415L79.126,82.407C79.126,83.487 78.25,84.362 77.171,84.362" style="fill:rgb(204,204,204);fill-rule:nonzero;"/>
                            </g>
                            <g transform="matrix(1,0,0,1,0,-3.90946)">
                                <rect x="23.416" y="73.22" width="6.842" height="8.796" style="fill:rgb(242,239,231);fill-rule:nonzero;"/>
                            </g>
                            <g transform="matrix(1,0,0,1,0,-3.90946)">
                                <path d="M25.761,81.43L76.193,81.43L76.193,74.393L25.761,74.393L25.761,81.43ZM77.171,87.294L24.784,87.294C22.089,87.294 19.897,85.102 19.897,82.407L19.897,73.415C19.897,70.721 22.089,68.529 24.784,68.529L77.171,68.529C79.865,68.529 82.058,70.721 82.058,73.415L82.058,82.407C82.058,85.102 79.865,87.294 77.171,87.294" style="fill:rgb(28,26,29);fill-rule:nonzero;"/>
                            </g>
                            <g transform="matrix(1,0,0,1,0,19.5471)">
                                <clipPath id="_clip3">
                                    <rect x="12.981" y="11.728" width="75.993" height="84.362"/>
                                </clipPath>
                                <g clip-path="url(#_clip3)">
                                    <g transform="matrix(1,0,0,-1,20.4041,59.7325)">
                                        <path d="M12.981,11.728L19.207,-1.759" style="fill:none;fill-rule:nonzero;stroke:rgb(28,26,29);stroke-width:5.86px;"/>
                                    </g>
                                </g>
                            </g>
                            <g transform="matrix(1,0,0,1,0,19.5471)">
                                <g transform="matrix(1,0,0,-1,34.9322,59.7325)">
                                    <path d="M12.981,11.728L19.207,-1.759" style="fill:none;fill-rule:nonzero;stroke:rgb(28,26,29);stroke-width:5.86px;"/>
                                </g>
                            </g>
                            <g transform="matrix(1,0,0,1,0,19.5471)">
                                <clipPath id="_clip4">
                                    <rect x="12.981" y="11.728" width="75.993" height="84.362"/>
                                </clipPath>
                                <g clip-path="url(#_clip4)">
                                    <g transform="matrix(1,0,0,-1,49.4606,59.7325)">
                                        <path d="M12.981,11.728L19.207,-1.759" style="fill:none;fill-rule:nonzero;stroke:rgb(28,26,29);stroke-width:5.86px;"/>
                                    </g>
                                </g>
                            </g>
                        </g>
                    </g>
                    <g id="wK.svg3" serif:id="wK.svg">
                    </g>
                </g>
            </g>
        </g>
    </g>
</svg>
