<?xml version="1.0" encoding="UTF-8" standalone="no"?>
<!DOCTYPE svg PUBLIC "-//W3C//DTD SVG 1.1//EN" "http://www.w3.org/Graphics/SVG/1.1/DTD/svg11.dtd">
<svg width="100%" height="100%" viewBox="0 0 592 591" version="1.1" xmlns="http://www.w3.org/2000/svg" xmlns:xlink="http://www.w3.org/1999/xlink" xml:space="preserve" xmlns:serif="http://www.serif.com/" style="fill-rule:evenodd;clip-rule:evenodd;stroke-linecap:round;stroke-linejoin:round;stroke-miterlimit:10;">
    <g transform="matrix(1,0,0,1,-944,-2658)">
        <g transform="matrix(1,0,0,1,106.711,27.3962)">
            <g id="wN.svg" transform="matrix(5.90551,0,0,5.90551,1133.45,2926.18)">
                <g id="wN.svg1" serif:id="wN.svg">
                    <g id="wN.svg2" serif:id="wN.svg" transform="matrix(1,0,0,1,-50,-50)">
                        <g transform="matrix(1,0,0,1,0,-3.92141)">
                            <path d="M28.455,89.371C35.779,91.561 43.391,92.636 51.035,92.56C58.161,92.486 65.241,91.413 72.068,89.371C71.978,89.042 71.839,88.485 71.684,87.791C71.096,85.18 70.23,79.671 72.068,73.856C74.589,65.883 81.073,55.962 76.68,41.318C72.026,25.803 50.327,21.161 50.327,21.161L50.681,28.425L25.334,46.799C23.726,47.965 23.335,50.188 24.431,51.844C24.951,52.63 25.489,53.518 25.945,54.43C26.392,55.324 28.501,58.565 29.81,59.409C30.871,60.093 32.239,60.051 33.266,59.316C34.827,58.199 36.786,55.714 42.278,56.245C56.806,58.726 60.425,50.802 60.425,50.802C60.425,50.802 58.122,55.532 48.754,59.936C38.988,63.682 32.609,70.059 29.365,80.854C27.817,86.002 28.455,89.371 28.455,89.371" style="fill:rgb(204,204,204);fill-rule:nonzero;"/>
                        </g>
                        <g transform="matrix(1,0,0,1,0,-3.92141)">
                            <path d="M26.147,53.422L56.751,36.648C56.751,36.648 60.381,34.833 58.566,31.204C57.754,29.581 51.305,22.82 51.305,22.82L51.553,29.831L24.332,49.793L26.147,53.422ZM63.176,52.057C56.926,62.542 49.301,68.174 45.067,73.013C41.531,77.054 38.983,86.626 39.184,90.659C39.306,93.084 29.171,88.709 29.171,88.709L31.793,76.207L37.237,65.924L46.109,59.472L63.176,52.057Z" style="fill:rgb(242,239,231);fill-rule:nonzero;"/>
                        </g>
                        <g transform="matrix(1,0,0,1,0,-3.92141)">
                            <clipPath id="_clip1">
                                <rect x="20.781" y="18.137" width="60.398" height="77.452"/>
                            </clipPath>
                            <g clip-path="url(#_clip1)">
                                <path d="M31.358,87.05C37.769,88.767 44.366,89.606 51.005,89.535C56.903,89.476 62.769,88.701 68.482,87.23C67.791,83.512 67.479,78.339 69.185,72.944C69.722,71.246 70.405,69.522 71.129,67.697C73.878,60.757 76.995,52.893 73.783,42.187C70.825,32.326 59.578,27.284 53.554,25.243L53.702,28.277C53.752,29.296 53.283,30.275 52.456,30.873L27.109,49.247C26.817,49.459 26.749,49.866 26.953,50.174C27.62,51.181 28.191,52.159 28.65,53.078C29.058,53.893 30.758,56.348 31.454,56.87C31.47,56.876 31.492,56.866 31.507,56.856C31.663,56.744 31.863,56.581 32.095,56.392C33.692,55.089 36.662,52.664 42.569,53.235C42.642,53.241 42.715,53.251 42.787,53.264C51.759,54.795 55.641,51.948 57.039,50.393C57.527,49.796 57.725,49.438 57.732,49.426C57.713,49.459 57.705,49.477 57.705,49.477L59.047,49.332C60.899,49.132 62.633,50.276 63.176,52.057C63.17,52.07 63.16,52.093 63.144,52.125C63.119,52.177 63.093,52.228 63.065,52.279C62.96,52.479 62.778,52.795 62.506,53.187C61.219,55.069 57.797,59.026 50.04,62.673C49.974,62.704 49.906,62.733 49.837,62.759C40.554,66.319 35.134,72.169 32.261,81.724C31.588,83.964 31.391,85.803 31.358,87.05M50.26,95.588C42.582,95.588 34.945,94.47 27.589,92.269C26.507,91.945 25.693,91.043 25.483,89.934C25.404,89.515 24.757,85.674 26.468,79.984C29.34,70.431 34.557,63.773 42.708,59.376C42.433,59.335 42.158,59.292 41.884,59.246C38.533,58.945 37.204,60.03 35.919,61.078C35.635,61.311 35.339,61.552 35.027,61.775C32.975,63.244 30.283,63.313 28.171,61.951C25.953,60.521 23.529,56.361 23.24,55.783C22.889,55.081 22.441,54.317 21.909,53.513C19.911,50.495 20.635,46.469 23.559,44.35L47.58,26.937L47.305,21.308C47.303,21.259 47.302,21.21 47.302,21.161C47.302,19.502 48.667,18.136 50.327,18.136C50.539,18.136 50.751,18.159 50.959,18.203C51.917,18.408 74.467,23.416 79.577,40.449C83.392,53.167 79.554,62.853 76.752,69.925C76.07,71.647 75.425,73.274 74.953,74.768C73.379,79.746 74.077,84.65 74.635,87.129C74.823,87.97 74.95,88.443 74.985,88.567C75.422,90.154 74.512,91.798 72.935,92.269C65.578,94.47 57.94,95.588 50.26,95.588" style="fill:rgb(28,26,29);fill-rule:nonzero;"/>
                            </g>
                        </g>
                        <g transform="matrix(1,0,0,-1,10.7849,91.7558)">
                            <path d="M20.781,18.137C27.149,16.223 33.772,15.294 40.421,15.38C46.493,15.461 52.524,16.389 58.339,18.137" style="fill:white;fill-rule:nonzero;stroke:rgb(28,26,29);stroke-width:5.88px;"/>
                        </g>
                        <g transform="matrix(1,0,0,1,0,-3.92141)">
                            <path d="M54.052,40.406C54.052,42.048 52.72,43.379 51.078,43.379C49.436,43.379 48.105,42.048 48.105,40.406C48.105,38.764 49.436,37.433 51.078,37.433C52.72,37.433 54.052,38.764 54.052,40.406" style="fill:rgb(28,26,29);fill-rule:nonzero;"/>
                        </g>
                    </g>
                    <g id="wN.svg3" serif:id="wN.svg">
                    </g>
                </g>
            </g>
        </g>
    </g>
</svg>
