<?xml version="1.0" encoding="UTF-8" standalone="no"?>
<!DOCTYPE svg PUBLIC "-//W3C//DTD SVG 1.1//EN" "http://www.w3.org/Graphics/SVG/1.1/DTD/svg11.dtd">
<svg width="100%" height="100%" viewBox="0 0 591 591" version="1.1" xmlns="http://www.w3.org/2000/svg" xmlns:xlink="http://www.w3.org/1999/xlink" xml:space="preserve" xmlns:serif="http://www.serif.com/" style="fill-rule:evenodd;clip-rule:evenodd;stroke-linecap:round;stroke-linejoin:round;stroke-miterlimit:10;">
    <g transform="matrix(1,0,0,1,-354,-2658)">
        <g transform="matrix(1,0,0,1,106.711,27.3962)">
            <g id="wP.svg" transform="matrix(5.90551,0,0,5.90551,542.895,2926.18)">
                <g id="wP.svg1" serif:id="wP.svg">
                    <g id="wP.svg2" serif:id="wP.svg" transform="matrix(1,0,0,1,-50,-50)">
                        <g transform="matrix(1,0,0,1,0,-3.94896)">
                            <path d="M73.023,86.959C73.023,69.13 58.322,63.291 60.008,52.159C64.277,49.193 67.038,44.207 66.897,38.582C66.684,30.09 59.754,23.172 51.263,22.972C42.235,22.759 34.851,30.014 34.851,38.993C34.851,44.444 37.575,49.257 41.734,52.153C43.622,63.291 28.952,69.202 28.952,86.959C35.458,88.91 39.679,90.854 51.098,90.854C62.517,90.854 66.516,88.91 73.023,86.959" style="fill:rgb(204,204,204);fill-rule:nonzero;"/>
                        </g>
                        <g transform="matrix(1,0,0,1,0,-3.94896)">
                            <path d="M50.608,25.75C50.608,25.75 45.689,30.867 45.474,38.387C45.259,45.906 48.238,50.344 48.238,51.418C48.238,52.493 48.326,57.029 47.251,60.896C46.177,64.763 40.143,78.469 40.538,87.749C40.813,94.218 29.565,85.698 29.565,85.698L31.068,74.527L42.239,58.199L41.38,51.325L34.72,41.013L38.587,28.767L50.608,25.75Z" style="fill:rgb(242,239,231);fill-rule:nonzero;"/>
                        </g>
                        <g transform="matrix(1,0,0,1,0,-3.94896)">
                            <clipPath id="_clip1">
                                <rect x="25.729" y="19.745" width="50.516" height="74.331"/>
                            </clipPath>
                            <g clip-path="url(#_clip1)">
                                <path d="M73.023,86.959L73.024,86.959L73.023,86.959ZM32.272,84.613C32.395,84.651 32.517,84.691 32.638,84.728C37.775,86.35 41.833,87.631 51.098,87.631C60.241,87.631 64.175,86.378 69.154,84.791C69.336,84.733 69.519,84.674 69.703,84.616C69.099,77.42 65.763,72.562 62.526,67.849C59.242,63.068 55.846,58.123 56.822,51.677C56.955,50.801 57.442,50.018 58.17,49.513C61.725,47.042 63.784,42.986 63.675,38.663C63.507,31.945 57.905,26.352 51.187,26.193C47.702,26.106 44.417,27.404 41.931,29.833C39.443,32.263 38.073,35.516 38.073,38.993C38.073,43.179 40.129,47.11 43.575,49.507C44.285,50.001 44.767,50.761 44.911,51.613C46.014,58.121 42.621,63.125 39.339,67.964C36.156,72.66 32.873,77.501 32.272,84.613M51.098,94.076C40.839,94.076 35.913,92.521 30.698,90.875C29.837,90.602 28.948,90.322 28.026,90.045C26.667,89.638 25.73,88.378 25.729,86.959C25.729,76.552 30.318,69.785 34.005,64.347C36.983,59.955 38.782,57.121 38.678,53.878C34.237,50.236 31.628,44.778 31.628,38.993C31.628,33.766 33.688,28.875 37.427,25.223C41.166,21.57 46.105,19.63 51.338,19.75C56.277,19.866 60.937,21.868 64.461,25.387C67.985,28.906 69.994,33.563 70.118,38.501C70.268,44.472 67.669,50.103 63.101,53.858C63.09,57.285 65.218,60.384 67.839,64.2C71.584,69.654 76.246,76.439 76.246,86.959C76.246,88.382 75.312,89.637 73.949,90.046C72.964,90.341 72.022,90.641 71.112,90.931C66.037,92.549 61.243,94.076 51.099,94.076" style="fill:rgb(28,26,29);fill-rule:nonzero;"/>
                                <g transform="matrix(1,0,0,-1,10.7849,95.7048)">
                                    <path d="M20.781,18.137C27.149,16.223 33.772,15.294 40.421,15.38C46.493,15.461 52.524,16.389 58.339,18.137" style="fill:white;fill-rule:nonzero;stroke:rgb(28,26,29);stroke-width:5.88px;"/>
                                </g>
                            </g>
                        </g>
                    </g>
                    <g id="wP.svg3" serif:id="wP.svg">
                    </g>
                </g>
            </g>
        </g>
    </g>
</svg>
