<?xml version="1.0" encoding="UTF-8" standalone="no"?>
<!DOCTYPE svg PUBLIC "-//W3C//DTD SVG 1.1//EN" "http://www.w3.org/Graphics/SVG/1.1/DTD/svg11.dtd">
<svg width="100%" height="100%" viewBox="0 0 592 592" version="1.1" xmlns="http://www.w3.org/2000/svg" xmlns:xlink="http://www.w3.org/1999/xlink" xml:space="preserve" xmlns:serif="http://www.serif.com/" style="fill-rule:evenodd;clip-rule:evenodd;stroke-linejoin:round;stroke-miterlimit:10;">
    <g transform="matrix(1,0,0,1,-941,-2046)">
        <g transform="matrix(1,0,0,1,106.711,27.3962)">
            <g id="wQ.svg" transform="matrix(1.08557,0,0,1.08557,1130.43,2314.61)">
                <g id="wQ.svg1" serif:id="wQ.svg">
                    <g id="wQ.svg2" serif:id="wQ.svg" transform="matrix(1,0,0,1,-272,-272)">
                        <g transform="matrix(1,0,0,1,0,-20.6061)">
                            <path d="M395.97,497.636L158.333,497.636C162.969,491.889 176.617,473.452 176.617,446.636C176.617,439.452 175.635,417.087 158.333,395.636L395.97,395.636C391.334,401.383 377.691,419.821 377.691,446.636C377.691,453.821 378.669,476.185 395.97,497.636" style="fill:rgb(204,204,204);fill-rule:nonzero;"/>
                        </g>
                        <g transform="matrix(1,0,0,1,0,-20.6061)">
                            <path d="M211.212,497.636C214.883,487.044 222.993,471.082 223.576,451.273C224.297,426.755 215.228,408.285 211.212,396.667C200.208,396.667 183.132,395.636 172.129,395.636L188.163,451.273L162.699,497.636L211.212,497.636Z" style="fill:rgb(242,239,231);fill-rule:nonzero;"/>
                        </g>
                        <g transform="matrix(1,0,0,1,0,-20.6061)">
                            <path d="M183.913,482.182L370.377,482.182C364.687,467.741 363.544,454.738 363.544,446.636C363.544,432.913 366.458,420.967 370.39,411.091L183.926,411.091C189.616,425.532 190.759,438.535 190.759,446.636C190.759,460.36 187.845,472.305 183.913,482.182M395.966,513.091L158.337,513.091C152.774,513.091 147.732,509.533 145.446,504C143.155,498.462 144.049,491.978 147.723,487.418C153.23,480.588 162.47,466.208 162.47,446.636C162.47,438.237 160.554,421.765 147.72,405.851C144.049,401.295 143.155,394.807 145.446,389.273C147.732,383.74 152.774,380.182 158.337,380.182L395.966,380.182C401.529,380.182 406.571,383.739 408.857,389.273C411.148,394.811 410.258,401.295 406.58,405.855C401.073,412.685 391.834,427.065 391.834,446.636C391.834,455.035 393.749,471.508 406.579,487.422C410.257,491.978 411.148,498.466 408.857,504C406.571,509.532 401.529,513.091 395.966,513.091" style="fill:rgb(28,26,29);fill-rule:nonzero;"/>
                        </g>
                        <g transform="matrix(1,0,0,1,0,-20.6061)">
                            <path d="M160.832,354.733L124.388,223.919C127.726,225.928 176.351,295.054 200.768,279.728C220.191,267.538 216.15,192.997 217.744,163.819C226.293,190.856 254.924,260.41 277.152,260.41C299.379,260.41 328.01,190.856 336.559,163.819C337.099,167.147 328.494,263.919 362.019,279.728C381.168,288.76 423.716,226.655 429.918,223.919C423.563,260.193 400.237,310.263 393.886,354.558C390.505,378.134 370.551,395.636 346.999,395.636L207.691,395.636C184.211,395.636 164.274,378.235 160.832,354.733" style="fill:rgb(204,204,204);fill-rule:nonzero;"/>
                        </g>
                        <g transform="matrix(1,0,0,1,0,-20.6061)">
                            <path d="M156.429,256.545C224.606,290.545 162.788,380.182 303.939,380.182L200.881,395.636C189.35,384.85 165.782,359.81 156.429,321.455C149.639,293.62 153.132,270.225 156.429,256.545" style="fill:rgb(242,239,231);fill-rule:nonzero;"/>
                        </g>
                        <g transform="matrix(1,0,0,1,0,-20.6061)">
                            <path d="M154.364,278.452L174.362,350.235C174.552,350.911 174.697,351.599 174.797,352.296C177.128,368.193 191.271,380.182 207.691,380.182L347.003,380.182C363.471,380.182 377.623,368.137 379.912,352.167C383.41,327.793 391.399,302.829 399.388,278.572C384.037,292.727 369.746,300.205 356.417,293.914C339.272,285.833 328.385,264.446 324.047,230.337C307.533,261.396 292.627,275.864 277.152,275.864C261.617,275.864 246.661,261.287 230.076,229.995L229.975,229.799C227.846,260.888 222.449,283.945 207.815,293.129C203.071,296.104 198.092,297.416 192.996,297.416C180.231,297.416 166.736,289.19 154.364,278.452M347.003,411.091L207.691,411.091C193.138,411.091 179.015,405.758 167.919,396.071C156.843,386.408 149.458,373.03 147.04,358.3L110.859,228.421C109.179,222.404 111.007,215.88 115.478,211.916C119.946,207.952 126.168,207.348 131.207,210.379C133.916,212.005 135.452,213.889 140.552,220.122C147.173,228.216 159.499,243.283 171.993,254.227C185.869,266.382 192.437,266.913 193.644,266.369C194.148,265.846 198.357,260.847 200.833,238.483C202.664,221.902 202.898,202.056 203.082,186.107C203.191,177.027 203.28,169.183 203.626,162.896C204.024,155.536 209.131,149.51 215.821,148.509C222.501,147.506 228.909,151.801 231.113,158.771C235.332,172.117 243.84,193.805 253.334,212.166C265.911,236.492 274.476,243.856 277.152,244.882C279.828,243.856 288.392,236.491 300.969,212.166C310.463,193.806 318.972,172.117 323.19,158.772C325.294,152.115 331.255,147.865 337.678,148.412C344.101,148.967 349.374,154.203 350.493,161.137C350.826,163.206 350.766,164.692 350.573,169.61C347.582,245.248 361.182,261.572 366.739,265.05C368.321,264.607 373.276,262.538 383.313,252.927C391.874,244.733 400.482,234.599 407.4,226.453C416.56,215.667 419.986,211.635 424.617,209.59C429.419,207.469 434.896,208.387 438.897,211.981C442.897,215.57 444.781,221.266 443.807,226.823C440.729,244.407 434.228,264.112 427.346,284.976C419.378,309.139 411.135,334.128 407.859,356.947C405.678,372.169 398.22,386.033 386.858,395.995C375.746,405.73 361.595,411.091 347.003,411.091" style="fill:rgb(28,26,29);fill-rule:nonzero;"/>
                        </g>
                        <g transform="matrix(1,0,0,1,0,-20.6061)">
                            <path d="M240.061,136C240.061,151.362 227.604,163.818 212.242,163.818C196.881,163.818 184.424,151.362 184.424,136C184.424,120.638 196.881,108.182 212.242,108.182C227.604,108.182 240.061,120.638 240.061,136" style="fill:rgb(242,239,231);fill-rule:nonzero;"/>
                        </g>
                        <g transform="matrix(1,0,0,-1,173.091,208.121)">
                            <path d="M66.97,92.727C66.97,77.365 54.513,64.909 39.152,64.909C23.79,64.909 11.333,77.365 11.333,92.727C11.333,108.089 23.79,120.545 39.152,120.545C54.513,120.545 66.97,108.089 66.97,92.727Z" style="fill:none;fill-rule:nonzero;stroke:rgb(28,26,29);stroke-width:30.91px;"/>
                        </g>
                        <g transform="matrix(1,0,0,1,0,-20.6061)">
                            <path d="M369.879,136C369.879,151.362 357.422,163.818 342.061,163.818C326.699,163.818 314.242,151.362 314.242,136C314.242,120.638 326.699,108.182 342.061,108.182C357.422,108.182 369.879,120.638 369.879,136" style="fill:rgb(242,239,231);fill-rule:nonzero;"/>
                        </g>
                        <g transform="matrix(1,0,0,-1,302.909,208.121)">
                            <path d="M66.97,92.727C66.97,77.365 54.513,64.909 39.152,64.909C23.79,64.909 11.333,77.365 11.333,92.727C11.333,108.089 23.79,120.545 39.152,120.545C54.513,120.545 66.97,108.089 66.97,92.727Z" style="fill:none;fill-rule:nonzero;stroke:rgb(28,26,29);stroke-width:30.91px;"/>
                        </g>
                        <g transform="matrix(1,0,0,1,0,-20.6061)">
                            <path d="M471.879,191.636C471.879,206.998 459.422,219.455 444.061,219.455C428.699,219.455 416.242,206.998 416.242,191.636C416.242,176.275 428.699,163.818 444.061,163.818C459.422,163.818 471.879,176.275 471.879,191.636" style="fill:rgb(242,239,231);fill-rule:nonzero;"/>
                        </g>
                        <g transform="matrix(1,0,0,-1,404.909,263.758)">
                            <path d="M66.97,92.727C66.97,77.365 54.513,64.909 39.152,64.909C23.79,64.909 11.333,77.365 11.333,92.727C11.333,108.089 23.79,120.545 39.152,120.545C54.513,120.545 66.97,108.089 66.97,92.727Z" style="fill:none;fill-rule:nonzero;stroke:rgb(28,26,29);stroke-width:30.91px;"/>
                        </g>
                        <g transform="matrix(1,0,0,1,0,-20.6061)">
                            <path d="M138.061,191.636C138.061,206.998 125.604,219.455 110.242,219.455C94.881,219.455 82.424,206.998 82.424,191.636C82.424,176.275 94.881,163.818 110.242,163.818C125.604,163.818 138.061,176.275 138.061,191.636" style="fill:rgb(242,239,231);fill-rule:nonzero;"/>
                        </g>
                        <g transform="matrix(1,0,0,-1,71.0909,263.758)">
                            <path d="M66.97,92.727C66.97,77.365 54.513,64.909 39.152,64.909C23.79,64.909 11.333,77.365 11.333,92.727C11.333,108.089 23.79,120.545 39.152,120.545C54.513,120.545 66.97,108.089 66.97,92.727Z" style="fill:none;fill-rule:nonzero;stroke:rgb(28,26,29);stroke-width:30.91px;"/>
                        </g>
                        <g transform="matrix(1,0,0,-1,108.338,523.394)">
                            <path d="M66.97,92.727L270.655,92.727" style="fill:none;fill-rule:nonzero;stroke:rgb(28,26,29);stroke-width:30.91px;"/>
                        </g>
                    </g>
                    <g id="wQ.svg3" serif:id="wQ.svg">
                    </g>
                </g>
            </g>
        </g>
    </g>
</svg>
