<?xml version="1.0" encoding="UTF-8" standalone="no"?>
<!DOCTYPE svg PUBLIC "-//W3C//DTD SVG 1.1//EN" "http://www.w3.org/Graphics/SVG/1.1/DTD/svg11.dtd">
<svg width="100%" height="100%" viewBox="0 0 591 592" version="1.1" xmlns="http://www.w3.org/2000/svg" xmlns:xlink="http://www.w3.org/1999/xlink" xml:space="preserve" xmlns:serif="http://www.serif.com/" style="fill-rule:evenodd;clip-rule:evenodd;stroke-linejoin:round;stroke-miterlimit:10;">
    <g transform="matrix(1,0,0,1,-351,-2046)">
        <g transform="matrix(1,0,0,1,106.711,27.3962)">
            <g id="wR.svg" transform="matrix(5.90551,0,0,5.90551,539.883,2314.61)">
                <g transform="matrix(1,0,0,1,-50,-50)">
                    <g transform="matrix(1,0,0,1,0,-3.97614)">
                        <path d="M31.293,56.133C31.389,42.528 22.642,31.249 25.217,23.109L76.772,23.109C79.347,31.249 70.599,42.528 70.696,56.133C70.797,70.487 79.425,82.418 76.772,90.808L25.217,90.808C22.563,82.418 31.191,70.487 31.293,56.133" style="fill:rgb(204,204,204);fill-rule:nonzero;"/>
                    </g>
                    <g transform="matrix(1,0,0,1,0,-3.97614)">
                        <path d="M38.809,23.459C39.764,27.037 38.097,34.567 38.105,34.667C38.76,42.902 41.142,51.409 41.142,57.853C41.142,67.106 37.514,77.943 38.16,90.855L26.164,90.808L30.009,57.853L26.164,23.023L38.809,23.459Z" style="fill:rgb(242,239,231);fill-rule:nonzero;"/>
                    </g>
                    <g transform="matrix(1,0,0,1,0,-3.97614)">
                        <clipPath id="_clip1">
                            <rect x="21.488" y="19.881" width="59.012" height="74.155"/>
                        </clipPath>
                        <g clip-path="url(#_clip1)">
                            <path d="M71.441,75.896C69.603,70.085 67.519,63.499 67.467,56.156C67.417,49.037 69.544,42.69 71.42,37.09C72.802,32.963 74.037,29.278 74.018,26.336L27.97,26.336C27.951,29.278 29.185,32.963 30.568,37.09C32.444,42.69 34.571,49.037 34.521,56.156C34.468,63.499 32.385,70.086 30.547,75.896C29.123,80.398 27.854,84.411 27.942,87.58L74.046,87.58C74.134,84.411 72.865,80.398 71.441,75.896M22.139,91.781C20.445,86.426 22.362,80.365 24.391,73.949C26.092,68.574 28.02,62.481 28.065,56.11C28.108,50.068 26.247,44.513 24.446,39.141C22.414,33.073 20.492,27.341 22.139,22.135C22.563,20.797 23.813,19.881 25.217,19.881L76.772,19.881C78.179,19.881 79.425,20.793 79.849,22.135C81.496,27.341 79.575,33.073 77.541,39.141C75.741,44.513 73.88,50.067 73.923,56.11C73.968,62.481 75.896,68.573 77.597,73.949C79.626,80.365 81.543,86.426 79.849,91.781C79.426,93.12 78.176,94.035 76.772,94.036L25.217,94.036C23.813,94.036 22.563,93.12 22.139,91.781" style="fill:rgb(28,26,29);fill-rule:nonzero;"/>
                        </g>
                    </g>
                    <g transform="matrix(1,0,0,-1,19.5993,39.0133)">
                        <path d="M21.488,19.881L21.488,8.322" style="fill:none;fill-rule:nonzero;stroke:rgb(28,26,29);stroke-width:5.96px;"/>
                    </g>
                    <g transform="matrix(1,0,0,-1,39.4138,39.0133)">
                        <path d="M21.488,19.881L21.488,8.322" style="fill:none;fill-rule:nonzero;stroke:rgb(28,26,29);stroke-width:5.96px;"/>
                    </g>
                    <g transform="matrix(1,0,0,-1,4.64141,93.4328)">
                        <path d="M21.488,19.88L71.218,19.88" style="fill:none;fill-rule:nonzero;stroke:rgb(28,26,29);stroke-width:5.96px;"/>
                    </g>
                    <g transform="matrix(1,0,0,-1,8.04101,62.1302)">
                        <path d="M21.488,19.881L64.419,19.881" style="fill:none;fill-rule:nonzero;stroke:rgb(28,26,29);stroke-width:5.96px;"/>
                    </g>
                </g>
            </g>
        </g>
    </g>
</svg>
