<?xml version="1.0" encoding="UTF-8" standalone="no"?>
<!DOCTYPE svg PUBLIC "-//W3C//DTD SVG 1.1//EN" "http://www.w3.org/Graphics/SVG/1.1/DTD/svg11.dtd">
<svg width="100%" height="100%" viewBox="0 0 591 592" version="1.1" xmlns="http://www.w3.org/2000/svg" xmlns:xlink="http://www.w3.org/1999/xlink" xml:space="preserve" xmlns:serif="http://www.serif.com/" style="fill-rule:evenodd;clip-rule:evenodd;stroke-linejoin:round;">
    <g transform="matrix(1,0,0,1,-1535,-876)">
        <g transform="matrix(1,0,0,1,74.8605,-95.4545)">
            <g id="bB.svg" transform="matrix(1,0,0,1,810.966,390.73)">
                <g id="bB.svg1" serif:id="bB.svg" transform="matrix(4.16667,0,0,4.16667,944.882,876.969)">
                    <g id="bB.svg2" serif:id="bB.svg">
                        <g id="bB.svg3" serif:id="bB.svg" transform="matrix(1,0,0,1,-70.8661,-70.8661)">
                            <path d="M70.877,16.299C66.107,16.299 62.24,19.414 62.24,23.253C62.24,24.678 62.79,26.067 63.811,27.235C56.611,36.607 38.92,55.015 38.341,73.542C38.095,83.109 49.49,98.269 49.983,99.791C50.477,101.307 53.762,102.436 59.247,103.124C55.477,116.135 30.623,100.066 19.145,112.677L24.367,125.433C40.164,116.583 52.62,134.362 70.88,115.733L70.88,115.736C89.135,134.359 101.594,116.583 117.388,125.433L122.61,112.677C111.129,100.069 86.278,116.135 82.505,103.124C87.993,102.436 91.278,101.31 91.772,99.788C92.265,98.269 103.657,83.109 103.414,73.539C102.832,55.015 85.144,36.609 77.941,27.235C78.962,26.067 79.512,24.678 79.512,23.253C79.512,19.414 75.648,16.302 70.877,16.299Z" style="fill:rgb(84,84,84);"/>
                            <path d="M70.877,59.828C68.896,59.828 67.986,60.797 67.986,62.734L67.986,69.687L61.217,69.687C59.403,69.687 58.496,70.566 58.496,72.326C58.496,74.089 59.403,74.968 61.217,74.968L67.989,74.968L67.989,81.921C67.989,83.857 68.981,84.827 70.877,84.827C72.777,84.827 73.769,83.857 73.769,81.921L73.769,74.968L80.785,74.968C82.519,74.968 83.426,74.089 83.426,72.326C83.426,70.569 82.519,69.687 80.785,69.687L73.766,69.687L73.766,62.731C73.766,60.795 72.774,59.825 70.877,59.825L70.877,59.828Z" style="fill:rgb(28,26,29);"/>
                            <path d="M70.877,16.299C68.533,16.299 66.285,17.065 64.658,18.425C75.818,18.975 76.124,24.837 73.366,28.276C76.49,35.062 81.36,40.181 85.161,46.505C85.161,46.505 118.054,108.55 47.296,95.411C47.296,95.411 49.082,99.814 53.05,101.874C55.035,102.906 56.35,102.997 59.244,103.124C62.997,103.351 74.364,104.647 77.119,105.08C82.61,125.082 114.911,105.114 119.999,119.055L122.61,112.68C112.048,100.06 94.275,115.693 82.763,103.297C86.675,102.691 89.544,101.588 91.137,100.752C91.137,100.346 103.671,83.56 103.414,73.539C102.835,55.018 85.15,36.615 77.944,27.238C78.965,26.07 79.515,24.676 79.515,23.25C79.515,19.412 75.648,16.299 70.877,16.299Z" style="fill:rgb(28,26,29);fill-opacity:0.4;"/>
                            <path d="M67.456,19.553C65.235,19.461 63.479,22.172 64.224,24.522C64.465,25.429 65.165,26.12 65.593,26.922C65.759,27.637 65.64,28.015 65.217,28.615C60.749,34.131 48.463,46.697 43.225,58.568C41.594,62.587 40.586,67.276 40.196,71.744C40.109,72.744 40.256,73.973 40.344,74.959C40.687,77.425 42.674,82.678 42.674,82.678C42.674,82.678 43.9,86.387 45.738,89.655C47.617,92.998 50.109,95.903 50.109,95.903L50.133,95.908C50.133,95.908 44.342,83.563 43.795,76.011C43.705,55.942 60.236,40.793 67.326,27.539C66.251,23.068 64.003,23.389 67.456,19.553ZM25.489,122.915C25.489,122.751 21.466,113.188 21.466,113.188C29.743,105.932 41.689,111.186 53.565,110.37C41.416,112.771 31.904,109.04 25.016,113.576L25.489,122.915Z" style="fill:rgb(242,239,231);fill-opacity:0.25;"/>
                            <path d="M70.877,16.299C66.107,16.299 62.24,19.414 62.24,23.253C62.24,24.678 62.79,26.067 63.811,27.235C56.611,36.607 38.92,55.015 38.341,73.542C38.095,83.109 49.49,98.269 49.983,99.791C50.477,101.307 53.762,102.436 59.247,103.124C55.477,116.135 30.623,100.066 19.145,112.677L24.367,125.433C40.164,116.583 52.62,134.362 70.88,115.733L70.88,115.736C89.135,134.359 101.594,116.583 117.388,125.433L122.61,112.677C111.129,100.069 86.278,116.135 82.505,103.124C87.993,102.436 91.278,101.31 91.772,99.788C92.265,98.269 103.657,83.109 103.414,73.539C102.832,55.015 85.144,36.609 77.941,27.235C78.962,26.067 79.512,24.678 79.512,23.253C79.512,19.414 75.648,16.302 70.877,16.299Z" style="fill:none;stroke:rgb(28,26,29);stroke-width:4.25px;"/>
                        </g>
                        <g id="bB.svg4" serif:id="bB.svg">
                        </g>
                    </g>
                </g>
            </g>
        </g>
    </g>
</svg>
