<?xml version="1.0" encoding="UTF-8" standalone="no"?>
<!DOCTYPE svg PUBLIC "-//W3C//DTD SVG 1.1//EN" "http://www.w3.org/Graphics/SVG/1.1/DTD/svg11.dtd">
<svg width="100%" height="100%" viewBox="0 0 591 591" version="1.1" xmlns="http://www.w3.org/2000/svg" xmlns:xlink="http://www.w3.org/1999/xlink" xml:space="preserve" xmlns:serif="http://www.serif.com/" style="fill-rule:evenodd;clip-rule:evenodd;">
    <g transform="matrix(1,0,0,1,-1535,-286)">
        <g transform="matrix(1,0,0,1,74.8605,-95.4545)">
            <g id="bK.svg" transform="matrix(1,0,0,1,572.14,-199.821)">
                <g id="bK.svg1" serif:id="bK.svg" transform="matrix(4.16667,0,0,4.16667,1183.71,876.969)">
                    <g id="bK.svg2" serif:id="bK.svg">
                        <g id="bK.svg3" serif:id="bK.svg" transform="matrix(1,0,0,1,-70.8661,-70.8661)">
                            <g transform="matrix(0.96234,0,0,0.9617,-8881.8,5824.91)">
                                <path d="M9303.02,-5926.39C9321.06,-5926.39 9335.65,-5927.98 9335.65,-5929.93L9339.45,-5948.43C9371.59,-5970.6 9358.42,-6004.15 9329.96,-6004.03C9324.05,-6004 9316.09,-6002.53 9312.2,-6000.24L9309.72,-6011.86L9320.76,-6011.86C9324.08,-6011.49 9325.78,-6016.4 9325.78,-6019.42C9325.78,-6022.45 9324.1,-6026.98 9320.76,-6026.98L9311.16,-6026.98L9311.16,-6035.75C9311.16,-6038.5 9306.04,-6039.87 9302.96,-6039.87C9299.89,-6039.87 9294.77,-6038.5 9294.77,-6035.75L9294.77,-6026.98L9285.16,-6026.98C9281.82,-6026.98 9280.15,-6022.45 9280.15,-6019.42C9280.15,-6016.4 9281.85,-6011.49 9285.16,-6011.86L9296.2,-6011.86L9293.72,-6000.24C9289.84,-6002.53 9281.87,-6004 9275.96,-6004.03C9247.51,-6004.15 9234.34,-5970.6 9266.47,-5948.43L9270.27,-5929.93C9270.27,-5927.98 9284.87,-5926.4 9302.9,-5926.39L9303.02,-5926.39Z" style="fill:rgb(84,84,84);stroke:rgb(28,26,29);stroke-width:4.42px;"/>
                            </g>
                            <g transform="matrix(0.96234,0,0,0.9617,-8881.8,5824.91)">
                                <path d="M9319.47,-6027.59C9317.91,-6027.62 9316.72,-6027.32 9316.67,-6027.07C9318.76,-6024.93 9327.32,-6014.75 9306.07,-6016.32C9303.52,-6014.88 9306.5,-5995.54 9308.6,-5990.1C9308.6,-5990.1 9312.06,-5991.65 9314.41,-5992.87C9356.26,-6004.93 9350.43,-5957.8 9325.47,-5949.5C9310.58,-5947.25 9288.3,-5946.33 9273.62,-5948.51L9274.79,-5941.32C9293.91,-5939.61 9293.49,-5940 9317.62,-5939.64C9329.53,-5931.59 9283.75,-5928.4 9270.29,-5930.02C9270.55,-5929.27 9335.57,-5926.54 9335.65,-5929.91L9339.45,-5948.51C9371.58,-5970.68 9358.42,-6004.23 9329.96,-6004.11C9327.48,-6004.11 9324.64,-6003.82 9321.89,-6003.34L9312.22,-6000.32L9309.73,-6011.94L9320.77,-6011.94C9323.68,-6011.11 9325.71,-6016.42 9325.79,-6019.51C9326.22,-6025.89 9321.74,-6027.17 9319.47,-6027.59L9319.47,-6027.59Z" style="fill:rgb(28,26,29);fill-opacity:0.4;"/>
                            </g>
                            <g transform="matrix(0.96234,0,0,0.9617,-8881.8,5824.91)">
                                <path d="M9305.86,-6037.23C9303.19,-6037.95 9298.57,-6037.78 9296.87,-6035.67C9296.75,-6035.51 9296.78,-6035.06 9296.78,-6034.83L9296.86,-6024.69L9287.07,-6024.69C9286.23,-6024.69 9284.84,-6024.74 9284.32,-6024.44C9283.27,-6023.86 9282.29,-6021.78 9282.19,-6019.37C9282.12,-6017.42 9283.61,-6014 9284.68,-6013.9C9285.35,-6013.84 9286.31,-6013.98 9288.03,-6013.93C9282.69,-6015.91 9284.07,-6023.86 9287.46,-6023.71L9297.75,-6023.79L9297.62,-6032.7C9297.58,-6035.45 9299.47,-6036.87 9302.55,-6036.87C9303.76,-6036.87 9306.59,-6036.76 9308,-6036.33C9306.53,-6037.18 9305.85,-6037.22 9305.85,-6037.22L9305.86,-6037.23ZM9297.35,-6007.18L9295.17,-5996.8C9291.29,-5999.09 9283.52,-6001.81 9277.62,-6001.84C9250.93,-6003.97 9236.76,-5971.63 9268.43,-5949.71L9272.26,-5930.94L9272.56,-5930.9L9271.28,-5949.94C9241.49,-5971.89 9251.82,-5999.54 9280.28,-5999.42C9286.19,-5999.39 9292.34,-5996.65 9296.22,-5994.36L9298.8,-6013.83L9297.35,-6007.18Z" style="fill:rgb(242,239,231);fill-opacity:0.25;"/>
                            </g>
                        </g>
                        <g id="bK.svg4" serif:id="bK.svg">
                        </g>
                    </g>
                </g>
            </g>
        </g>
    </g>
</svg>
