<?xml version="1.0" encoding="UTF-8" standalone="no"?>
<!DOCTYPE svg PUBLIC "-//W3C//DTD SVG 1.1//EN" "http://www.w3.org/Graphics/SVG/1.1/DTD/svg11.dtd">
<svg width="100%" height="100%" viewBox="0 0 591 592" version="1.1" xmlns="http://www.w3.org/2000/svg" xmlns:xlink="http://www.w3.org/1999/xlink" xml:space="preserve" xmlns:serif="http://www.serif.com/" style="fill-rule:evenodd;clip-rule:evenodd;stroke-linejoin:round;">
    <g transform="matrix(1,0,0,1,-354,-876)">
        <g transform="matrix(1,0,0,1,74.8605,-95.4545)">
            <g id="bP.svg" transform="matrix(1,0,0,1,-1077.01,535.037)">
                <g id="bP.svg1" serif:id="bP.svg" transform="matrix(4.16667,0,0,4.16667,1651.76,732.662)">
                    <g id="bP.svg2" serif:id="bP.svg">
                        <g id="bP.svg3" serif:id="bP.svg" transform="matrix(1,0,0,1,-70.8661,-70.8661)">
                            <path d="M70.866,33.905C61.257,33.905 53.768,41.006 53.768,50.397C53.768,55.227 55.797,59.845 59.369,63.193C48.325,67.989 49.039,69.775 50.196,81.558L60.9,81.558C56.194,104.879 35.331,99.524 35.779,125.41L105.951,125.41C106.404,99.524 85.538,104.882 80.833,81.558L91.536,81.558C92.693,69.775 93.407,67.989 82.361,63.19C85.916,59.886 87.946,55.251 87.962,50.397C87.962,41.006 80.478,33.905 70.866,33.905Z" style="fill:rgb(84,84,84);stroke:rgb(28,26,29);stroke-width:4.25px;"/>
                            <path d="M70.863,33.902C69.18,33.902 67.564,34.132 66.039,34.543C88.835,38.115 85.119,59.907 72.714,63.19C77.919,65.072 83.203,67.742 85.022,70.143C86.666,72.317 85.425,77.326 85.425,77.326L49.836,77.905L50.199,80.796L66.339,80.855C71.189,103.81 106.381,99.643 105.934,125.41C106.381,99.643 85.757,103.748 80.906,80.793L91.542,80.793C92.418,66.677 94.431,70.577 82.363,63.19C85.916,59.884 87.945,55.25 87.965,50.397C87.965,41.003 80.473,33.9 70.863,33.9L70.863,33.902Z" style="fill:rgb(28,26,29);fill-opacity:0.25;"/>
                            <path d="M67.289,36.213C66.436,35.912 55.387,39.725 55.99,51.228C56.412,59.278 61.063,61.88 61.063,61.88C61.063,61.88 58.618,56.061 58.618,51.228C58.618,42.279 67.303,36.204 67.303,36.204L67.289,36.213ZM62.836,82.953C57.257,105.812 39.381,101.612 37.91,123.334L38.032,122.97C43.021,105.134 58.992,107.362 63.93,83.106L62.836,82.953Z" style="fill:rgb(242,239,231);fill-opacity:0.25;"/>
                            <path d="M63.088,63.669C59.128,65.574 52.279,67.552 51.914,71.572L56.906,70.427C57.314,69.52 58.723,66.441 63.17,63.646L63.088,63.669Z" style="fill:rgb(242,239,231);fill-opacity:0.25;"/>
                            <path d="M70.866,33.905C61.257,33.905 53.768,41.006 53.768,50.397C53.768,55.227 55.797,59.845 59.369,63.193C48.325,67.989 49.039,69.775 50.196,81.558L60.9,81.558C56.194,104.879 35.331,99.524 35.779,125.41L105.951,125.41C106.404,99.524 85.538,104.882 80.833,81.558L91.536,81.558C92.693,69.775 93.407,67.989 82.361,63.19C85.916,59.886 87.946,55.251 87.962,50.397C87.962,41.006 80.478,33.905 70.866,33.905Z" style="fill:none;stroke:rgb(28,26,29);stroke-width:4.25px;"/>
                        </g>
                        <g id="bP.svg4" serif:id="bP.svg">
                        </g>
                    </g>
                </g>
            </g>
        </g>
    </g>
</svg>
