<?xml version="1.0" encoding="UTF-8" standalone="no"?>
<!DOCTYPE svg PUBLIC "-//W3C//DTD SVG 1.1//EN" "http://www.w3.org/Graphics/SVG/1.1/DTD/svg11.dtd">
<svg width="100%" height="100%" viewBox="0 0 591 591" version="1.1" xmlns="http://www.w3.org/2000/svg" xmlns:xlink="http://www.w3.org/1999/xlink" xml:space="preserve" xmlns:serif="http://www.serif.com/" style="fill-rule:evenodd;clip-rule:evenodd;">
    <g transform="matrix(1,0,0,1,-354,-286)">
        <g transform="matrix(1,0,0,1,-129.676,-222.503)">
            <g id="bR.svg" transform="matrix(4.16667,0,0,4.16667,779.282,804.196)">
                <g transform="matrix(1,0,0,1,-70.8661,-70.8661)">
                    <g transform="matrix(0.91877,0,0,0.93482,-8606.83,5665.04)">
                        <path d="M9436.82,-6033.25L9435,-6026.15L9425.39,-6025.6L9423.72,-6033.25L9409.92,-6030.11L9409.92,-6007.8C9412.31,-6001.81 9415.49,-6000.81 9418.5,-5999.22L9424.62,-5999.22L9415.7,-5950.32C9403.47,-5943.36 9400.72,-5940.2 9400.72,-5926.22L9488.69,-5926.22C9488.69,-5940.2 9485.94,-5943.36 9473.72,-5950.32L9464.79,-5999.22L9470.92,-5999.22C9473.92,-6000.81 9477.1,-6001.81 9479.5,-6007.8L9479.5,-6030.11L9465.69,-6033.25L9464.03,-6025.6L9454.42,-6026.15L9452.6,-6033.25L9436.82,-6033.25Z" style="fill:rgb(84,84,84);stroke:rgb(28,26,29);stroke-width:4.59px;"/>
                    </g>
                    <g transform="matrix(0.91877,0,0,0.93482,-8606.83,5665.04)">
                        <path d="M9472.82,-6031.56C9484.65,-5996.3 9432.94,-6002.6 9412.35,-6003.8C9412.35,-6003.8 9412.59,-5999.26 9418.72,-5999.25L9424.95,-5999.25L9424.84,-5999.25L9424.59,-5997.83C9463.85,-6000.79 9456.7,-5989.19 9463.63,-5953.73L9416.24,-5952.09L9415.93,-5950.35L9412.95,-5948.61C9428.35,-5946.93 9480.69,-5957.41 9476.04,-5926.25L9488.91,-5926.25C9489.66,-5940.69 9483.91,-5945.21 9473.94,-5950.35L9465.54,-6000.04C9466.39,-6000.59 9468.26,-6000.04 9470.99,-6000.5C9474.62,-6001.1 9478.43,-6004.7 9479.72,-6008.29L9479.72,-6029.7L9472.82,-6031.56Z" style="fill:rgb(28,26,29);fill-opacity:0.4;"/>
                    </g>
                    <path d="M40.774,29.531L46.934,28.245C43.504,29.592 42.338,36.904 40.963,46.301C40.937,46.483 40.789,46.697 40.789,46.697L40.771,29.531L40.774,29.531ZM64.993,26.881L63.433,33.685L68.89,26.861L64.993,26.881ZM91.486,27.51L90.116,34.405L94.255,28.056L91.486,27.51ZM54.161,58.011L52.753,61.583L46.36,97.169L46.483,100.838L56.18,58.677L54.161,58.011ZM32.419,122.969C32.383,122.847 32.352,119.676 32.871,117.116C33.463,114.219 34.843,111.427 37.089,109.633C41.233,106.322 44.801,104.351 45.192,104.339C39.228,108.957 33.596,115.126 32.419,122.969Z" style="fill:rgb(242,239,231);fill-opacity:0.25;"/>
                    <g transform="matrix(0.91877,0,0,0.93482,-8606.83,5665.04)">
                        <path d="M9436.82,-6033.25L9435,-6026.15L9425.39,-6025.6L9423.72,-6033.25L9409.92,-6030.11L9409.92,-6007.8C9412.31,-6001.81 9415.49,-6000.81 9418.5,-5999.22L9424.62,-5999.22L9415.7,-5950.32C9403.47,-5943.36 9400.72,-5940.2 9400.72,-5926.22L9488.69,-5926.22C9488.69,-5940.2 9485.94,-5943.36 9473.72,-5950.32L9464.79,-5999.22L9470.92,-5999.22C9473.92,-6000.81 9477.1,-6001.81 9479.5,-6007.8L9479.5,-6030.11L9465.69,-6033.25L9464.03,-6025.6L9454.42,-6026.15L9452.6,-6033.25L9436.82,-6033.25Z" style="fill:none;stroke:rgb(28,26,29);stroke-width:4.59px;"/>
                    </g>
                </g>
            </g>
        </g>
    </g>
</svg>
