<?xml version="1.0" encoding="UTF-8" standalone="no"?>
<!DOCTYPE svg PUBLIC "-//W3C//DTD SVG 1.1//EN" "http://www.w3.org/Graphics/SVG/1.1/DTD/svg11.dtd">
<svg width="100%" height="100%" viewBox="0 0 591 592" version="1.1" xmlns="http://www.w3.org/2000/svg" xmlns:xlink="http://www.w3.org/1999/xlink" xml:space="preserve" xmlns:serif="http://www.serif.com/" style="fill-rule:evenodd;clip-rule:evenodd;stroke-linejoin:round;">
    <g transform="matrix(1,0,0,1,-1535,-2630)">
        <g transform="matrix(1,0,0,1,74.8605,-51.0492)">
            <g id="wB.svg" transform="matrix(1,0,0,1,399.364,2100.26)">
                <g id="wB.svg1" serif:id="wB.svg" transform="matrix(4.16667,0,0,4.16667,1356.48,876.969)">
                    <g id="wB.svg2" serif:id="wB.svg">
                        <g id="wB.svg3" serif:id="wB.svg" transform="matrix(1,0,0,1,-70.8661,-70.8661)">
                            <path d="M70.866,16.299C66.095,16.299 62.229,19.414 62.229,23.253C62.229,24.678 62.779,26.067 63.799,27.235C56.599,36.607 38.908,55.013 38.33,73.541C38.083,83.108 49.479,98.267 49.972,99.789C50.465,101.306 53.751,102.436 59.236,103.124C55.466,116.135 30.614,100.066 19.134,112.677L24.355,125.433C40.153,116.583 52.608,134.362 70.866,115.733L70.866,115.736C89.121,134.359 101.58,116.583 117.374,125.433L122.596,112.677C111.115,100.069 86.264,116.135 82.491,103.124C87.979,102.436 91.264,101.312 91.757,99.789C92.251,98.27 103.646,83.11 103.399,73.541C102.818,55.016 85.13,36.609 77.927,27.235C78.948,26.067 79.498,24.678 79.498,23.253C79.498,19.414 75.634,16.302 70.863,16.299L70.866,16.299Z" style="fill:rgb(242,239,231);stroke:rgb(28,26,29);stroke-width:4.25px;"/>
                            <path d="M70.866,16.299C68.522,16.299 66.274,17.065 64.647,18.425C75.807,18.975 76.113,24.837 73.355,28.276C76.479,35.062 81.349,40.181 85.15,46.505C85.15,46.505 118.043,108.55 47.285,95.411C47.285,95.411 49.071,99.814 53.039,101.874C55.023,102.906 56.339,102.997 59.233,103.124C62.983,103.351 74.353,104.647 77.108,105.08C82.599,125.082 114.9,105.114 119.988,119.055L122.598,112.68C112.037,100.06 94.263,115.693 82.752,103.297C86.664,102.691 89.532,101.588 91.125,100.752C91.125,100.346 103.66,83.56 103.402,73.539C102.824,55.018 85.139,36.615 77.936,27.238C78.953,26.07 79.503,24.676 79.503,23.25C79.503,19.412 75.637,16.299 70.866,16.299Z" style="fill:rgb(28,26,29);fill-opacity:0.4;"/>
                            <path d="M70.866,59.828C68.885,59.828 67.975,60.797 67.975,62.734L67.975,69.687L61.206,69.687C59.391,69.687 58.484,70.566 58.484,72.326C58.484,74.089 59.391,74.968 61.206,74.968L67.978,74.968L67.978,81.921C67.978,83.857 68.97,84.827 70.866,84.827C72.765,84.827 73.757,83.857 73.757,81.921L73.757,74.968L80.773,74.968C82.508,74.968 83.415,74.089 83.415,72.326C83.415,70.569 82.508,69.687 80.773,69.687L73.755,69.687L73.755,62.731C73.755,60.795 72.763,59.825 70.866,59.825L70.866,59.828Z" style="fill:rgb(28,26,29);"/>
                        </g>
                        <g id="wB.svg4" serif:id="wB.svg">
                        </g>
                    </g>
                </g>
            </g>
        </g>
    </g>
</svg>
