<?xml version="1.0" encoding="UTF-8" standalone="no"?>
<!DOCTYPE svg PUBLIC "-//W3C//DTD SVG 1.1//EN" "http://www.w3.org/Graphics/SVG/1.1/DTD/svg11.dtd">
<svg width="100%" height="100%" viewBox="0 0 591 591" version="1.1" xmlns="http://www.w3.org/2000/svg" xmlns:xlink="http://www.w3.org/1999/xlink" xml:space="preserve" xmlns:serif="http://www.serif.com/" style="fill-rule:evenodd;clip-rule:evenodd;">
    <g transform="matrix(1,0,0,1,-1535,-2040)">
        <g transform="matrix(1,0,0,1,74.8605,-51.0492)">
            <g id="wK.svg" transform="matrix(1,0,0,1,681.29,1509.71)">
                <g id="wK.svg1" serif:id="wK.svg" transform="matrix(4.16667,0,0,4.16667,1074.56,876.969)">
                    <g id="wK.svg2" serif:id="wK.svg">
                        <g id="wK.svg3" serif:id="wK.svg" transform="matrix(1,0,0,1,-70.8661,-70.8661)">
                            <g transform="matrix(0.96234,0,0,0.9617,-8881.8,5824.91)">
                                <path d="M9303.02,-5926.39C9321.06,-5926.39 9335.65,-5927.98 9335.65,-5929.93L9339.45,-5948.43C9371.59,-5970.6 9358.42,-6004.15 9329.96,-6004.03C9324.05,-6004 9316.09,-6002.53 9312.2,-6000.24L9309.72,-6011.86L9320.76,-6011.86C9324.08,-6011.49 9325.78,-6016.4 9325.78,-6019.42C9325.78,-6022.45 9324.1,-6026.98 9320.76,-6026.98L9311.16,-6026.98L9311.16,-6035.75C9311.16,-6038.5 9306.04,-6039.87 9302.96,-6039.87C9299.89,-6039.87 9294.77,-6038.5 9294.77,-6035.75L9294.77,-6026.98L9285.16,-6026.98C9281.82,-6026.98 9280.15,-6022.45 9280.15,-6019.42C9280.15,-6016.4 9281.85,-6011.49 9285.16,-6011.86L9296.2,-6011.86L9293.72,-6000.24C9289.84,-6002.53 9281.87,-6004 9275.96,-6004.03C9247.51,-6004.15 9234.34,-5970.6 9266.47,-5948.43L9270.27,-5929.93C9270.27,-5927.98 9284.87,-5926.4 9302.9,-5926.39L9303.02,-5926.39Z" style="fill:rgb(242,239,231);stroke:rgb(28,26,29);stroke-width:4.42px;"/>
                            </g>
                            <g transform="matrix(0.96234,0,0,0.9617,-8881.8,5824.91)">
                                <path d="M9319.47,-6027.59C9317.91,-6027.62 9316.72,-6027.32 9316.67,-6027.07C9318.76,-6024.93 9327.32,-6014.75 9306.07,-6016.32C9303.52,-6014.88 9306.5,-5995.54 9308.6,-5990.1C9308.6,-5990.1 9312.06,-5991.65 9314.41,-5992.87C9356.26,-6004.93 9350.43,-5957.8 9325.47,-5949.5C9310.58,-5947.25 9288.3,-5946.33 9273.62,-5948.51L9274.79,-5941.32C9293.91,-5939.61 9293.49,-5940 9317.62,-5939.64C9329.53,-5931.59 9283.75,-5928.4 9270.29,-5930.02C9270.36,-5929.82 9273.04,-5927.51 9279.88,-5927.18C9298.64,-5926.28 9335.59,-5927.44 9335.65,-5929.91L9339.45,-5948.51C9371.58,-5970.68 9358.42,-6004.23 9329.96,-6004.11C9327.48,-6004.11 9324.64,-6003.82 9321.89,-6003.34L9312.22,-6000.32L9309.73,-6011.94L9320.77,-6011.94C9323.68,-6011.11 9325.71,-6016.42 9325.79,-6019.51C9326.22,-6025.89 9321.74,-6027.17 9319.47,-6027.59L9319.47,-6027.59Z" style="fill:rgb(28,26,29);fill-opacity:0.4;"/>
                            </g>
                        </g>
                        <g id="wK.svg4" serif:id="wK.svg">
                        </g>
                    </g>
                </g>
            </g>
        </g>
    </g>
</svg>
