<?xml version="1.0" encoding="UTF-8" standalone="no"?>
<!DOCTYPE svg PUBLIC "-//W3C//DTD SVG 1.1//EN" "http://www.w3.org/Graphics/SVG/1.1/DTD/svg11.dtd">
<svg width="100%" height="100%" viewBox="0 0 592 592" version="1.1" xmlns="http://www.w3.org/2000/svg" xmlns:xlink="http://www.w3.org/1999/xlink" xml:space="preserve" xmlns:serif="http://www.serif.com/" style="fill-rule:evenodd;clip-rule:evenodd;stroke-linejoin:round;">
    <g transform="matrix(1,0,0,1,-944,-2626)">
        <g transform="matrix(1,0,0,1,74.8605,-51.0492)">
            <g id="wN.svg" transform="matrix(1,0,0,1,-118.958,2168.7)">
                <g id="wN.svg1" serif:id="wN.svg" transform="matrix(4.16667,0,0,4.16667,1284.25,804.196)">
                    <g id="wN.svg2" serif:id="wN.svg">
                        <g id="wN.svg3" serif:id="wN.svg" transform="matrix(1,0,0,1,-70.8661,-70.8661)">
                            <path d="M64.638,16.35L57.566,17.677L54.746,27.386L48.597,23.352L44.552,24.554L46.706,38.588L19.205,81.051C18.19,97.934 24.508,98.107 36.618,102.728C50.715,82.831 66.917,88.509 80.189,73.466C81.785,92.237 35.274,99.544 41.508,125.269L118.298,125.433C129.101,77.873 121.19,46.772 76.893,29.633L64.638,16.35Z" style="fill:rgb(242,239,231);stroke:rgb(28,26,29);stroke-width:4.25px;"/>
                            <path d="M61.282,50.224C60.007,50.196 58.915,51.032 58.192,51.951C57.019,53.461 56.407,55.29 56.072,57.11C55.947,57.898 55.806,58.691 55.854,59.485C55.928,59.763 56.262,59.664 56.469,59.61C58.26,59.275 60.126,59.247 61.875,58.714C63.142,58.317 64.145,57.399 64.806,56.333C65.466,55.312 65.75,54.142 66.141,53.022C66.314,52.631 66.268,52.129 65.869,51.868C65.211,51.415 64.414,51.182 63.68,50.859C62.96,50.584 62.249,50.207 61.447,50.224L61.279,50.224L61.282,50.224Z" style="fill:rgb(28,26,29);"/>
                            <path d="M64.638,16.35L61.104,17.014L71.895,33.177C125.881,56.208 125.379,103.448 91.341,125.371L118.298,125.43C129.098,77.871 121.198,46.769 76.901,29.631L64.638,16.35Z" style="fill:rgb(28,26,29);fill-opacity:0.2;"/>
                            <path d="M77.96,72.787C77.96,72.787 83.514,65.177 83.429,61.778C83.344,58.38 86.448,77.519 79.736,79.815C79.458,78.644 80.507,74.971 80.297,74.166C79.39,70.696 77.96,72.787 77.96,72.787Z" style="fill:rgb(28,26,29);fill-opacity:0.2;"/>
                            <path d="M30.509,79.679C30.509,79.679 30.376,86.443 26.084,85.873C26.084,85.873 20.886,82.993 30.509,79.679Z" style="fill:rgb(28,26,29);"/>
                        </g>
                        <g id="wN.svg4" serif:id="wN.svg">
                        </g>
                    </g>
                </g>
            </g>
        </g>
    </g>
</svg>
