<?xml version="1.0" encoding="UTF-8" standalone="no"?>
<!DOCTYPE svg PUBLIC "-//W3C//DTD SVG 1.1//EN" "http://www.w3.org/Graphics/SVG/1.1/DTD/svg11.dtd">
<svg width="100%" height="100%" viewBox="0 0 592 591" version="1.1" xmlns="http://www.w3.org/2000/svg" xmlns:xlink="http://www.w3.org/1999/xlink" xml:space="preserve" xmlns:serif="http://www.serif.com/" style="fill-rule:evenodd;clip-rule:evenodd;">
    <g transform="matrix(1,0,0,1,-944,-2040)">
        <g transform="matrix(1,0,0,1,74.8605,-51.0492)">
            <g id="wQ.svg" transform="matrix(1,0,0,1,-118.958,1509.71)">
                <g id="wQ.svg1" serif:id="wQ.svg" transform="matrix(4.16667,0,0,4.16667,1284.25,876.969)">
                    <g id="wQ.svg2" serif:id="wQ.svg">
                        <g id="wQ.svg3" serif:id="wQ.svg" transform="matrix(1,0,0,1,-70.8661,-70.8661)">
                            <g transform="matrix(0.98734,0,0,0.96296,-9674.08,5828.03)">
                                <path d="M9852.96,-6035.24C9852.95,-6035.24 9852.94,-6035.24 9852.94,-6035.24C9846.14,-6035.24 9840.55,-6029.66 9840.55,-6022.86C9840.55,-6017.25 9844.35,-6012.35 9849.78,-6010.91L9849.78,-5979.28L9834.59,-6000.52C9835.96,-6002.56 9836.7,-6004.97 9836.7,-6007.43C9836.69,-6014.22 9831.1,-6019.8 9824.31,-6019.8C9824.31,-6019.8 9824.29,-6019.8 9824.29,-6019.8C9817.5,-6019.8 9811.91,-6014.22 9811.9,-6007.43C9812.09,-6001.36 9817.39,-5996.61 9824.17,-5995.05L9826.67,-5983.04L9831.65,-5959.02L9839.49,-5944.31L9842.67,-5925.97C9842.67,-5923.7 9854.91,-5921.86 9870.01,-5921.86C9885.12,-5921.86 9897.36,-5923.7 9897.36,-5925.97L9900.54,-5944.31L9908.37,-5959.02L9913.36,-5983.04L9915.85,-5995.05C9922.64,-5996.61 9927.94,-6001.36 9928.12,-6007.43C9928.12,-6014.22 9922.53,-6019.8 9915.74,-6019.8C9915.73,-6019.8 9915.72,-6019.8 9915.72,-6019.8C9908.92,-6019.8 9903.33,-6014.22 9903.33,-6007.43C9903.33,-6004.97 9904.07,-6002.56 9905.44,-6000.52L9890.24,-5979.28L9890.24,-6010.92C9895.66,-6012.34 9899.46,-6017.27 9899.48,-6022.86C9899.47,-6029.66 9893.88,-6035.24 9887.09,-6035.24C9887.09,-6035.24 9887.07,-6035.24 9887.07,-6035.24C9880.28,-6035.24 9874.69,-6029.66 9874.68,-6022.86C9874.68,-6018.83 9876.67,-6015.04 9879.99,-6012.74L9870.01,-5983.36L9860.03,-6012.74C9863.35,-6015.04 9865.34,-6018.83 9865.35,-6022.86C9865.34,-6029.66 9859.75,-6035.24 9852.96,-6035.24Z" style="fill:rgb(242,239,231);stroke:rgb(28,26,29);stroke-width:4.36px;"/>
                            </g>
                            <g transform="matrix(0.98734,0,0,0.96296,-9674.08,5828.03)">
                                <path d="M9916.72,-6020.79C9919.42,-6017.99 9926.08,-6005.7 9910.84,-5996.03L9896.12,-5957.89C9876.39,-5954.33 9854.47,-5953.49 9838.52,-5959.08L9843.92,-5950.22C9862.61,-5943.72 9894.4,-5948.84 9894.4,-5948.84C9891.35,-5938.72 9887.09,-5929.43 9878.34,-5922.12C9878.34,-5922.12 9891.15,-5921.78 9897.08,-5926.03L9901.53,-5945.29L9909.37,-5960L9914.36,-5984.03L9916.85,-5996.03C9923.63,-5997.59 9928.94,-6002.34 9929.12,-6008.41C9929.11,-6015.2 9923.52,-6020.79 9916.73,-6020.79C9916.73,-6020.79 9916.73,-6020.79 9916.72,-6020.79Z" style="fill:rgb(28,26,29);fill-opacity:0.4;"/>
                            </g>
                            <g transform="matrix(0.98734,0,0,0.96296,-9674.08,5828.03)">
                                <path d="M9852.94,-6035.24C9852.19,-6035.24 9851.46,-6035.16 9850.75,-6035.04C9859.33,-6029.78 9857.58,-6018.03 9855.3,-6014.13L9870.01,-5989.59L9867.81,-5994.69L9860.03,-6012.73C9863.35,-6015.04 9865.34,-6018.83 9865.35,-6022.86C9865.34,-6029.66 9859.75,-6035.24 9852.96,-6035.24C9852.95,-6035.24 9852.95,-6035.24 9852.94,-6035.24ZM9886.96,-6035.24C9886.21,-6035.24 9885.48,-6035.16 9884.76,-6035.04C9897.69,-6031.3 9889.8,-6016.43 9886.61,-6015.23L9890.12,-5985.51L9890.12,-6010.91C9895.54,-6012.34 9899.35,-6017.27 9899.36,-6022.86C9899.35,-6029.66 9893.76,-6035.24 9886.97,-6035.24C9886.97,-6035.24 9886.96,-6035.24 9886.96,-6035.24ZM9824.03,-6019.94C9823.28,-6019.94 9822.55,-6019.86 9821.83,-6019.73C9831.14,-6016.2 9830.51,-6007.07 9828.57,-6000.89L9849.51,-5979.42L9834.32,-6000.66C9835.69,-6002.7 9836.43,-6005.1 9836.43,-6007.56C9836.43,-6014.35 9830.84,-6019.94 9824.04,-6019.94C9824.04,-6019.94 9824.03,-6019.94 9824.03,-6019.94Z" style="fill:rgb(28,26,29);fill-opacity:0.25;"/>
                            </g>
                        </g>
                        <g id="wQ.svg4" serif:id="wQ.svg">
                        </g>
                    </g>
                </g>
            </g>
        </g>
    </g>
</svg>
