<?xml version="1.0" encoding="UTF-8" standalone="no"?>
<!DOCTYPE svg PUBLIC "-//W3C//DTD SVG 1.1//EN" "http://www.w3.org/Graphics/SVG/1.1/DTD/svg11.dtd">
<svg width="100%" height="100%" viewBox="0 0 591 591" version="1.1" xmlns="http://www.w3.org/2000/svg" xmlns:xlink="http://www.w3.org/1999/xlink" xml:space="preserve" xmlns:serif="http://www.serif.com/" style="fill-rule:evenodd;clip-rule:evenodd;">
    <g transform="matrix(1,0,0,1,-354,-2040)">
        <g transform="matrix(1,0,0,1,-182.659,1409.76)">
            <g id="wR.svg" transform="matrix(4.16667,0,0,4.16667,832.265,925.869)">
                <g transform="matrix(1,0,0,1,-70.8661,-70.8661)">
                    <g transform="matrix(0.91877,0,0,0.93482,-8606.83,5665.04)">
                        <path d="M9436.82,-6033.25L9435,-6026.15L9425.39,-6025.6L9423.72,-6033.25L9409.92,-6030.11L9409.92,-6007.8C9412.31,-6001.81 9415.49,-6000.81 9418.5,-5999.22L9424.62,-5999.22L9415.7,-5950.32C9403.47,-5943.36 9400.72,-5940.2 9400.72,-5926.22L9488.69,-5926.22C9488.69,-5940.2 9485.94,-5943.36 9473.72,-5950.32L9464.79,-5999.22L9470.92,-5999.22C9473.92,-6000.81 9477.1,-6001.81 9479.5,-6007.8L9479.5,-6030.11L9465.69,-6033.25L9464.03,-6025.6L9454.42,-6026.15L9452.6,-6033.25L9436.82,-6033.25Z" style="fill:rgb(242,239,231);stroke:rgb(28,26,29);stroke-width:4.59px;"/>
                    </g>
                    <g transform="matrix(0.91877,0,0,0.93482,-8606.83,5665.04)">
                        <path d="M9472.82,-6031.56C9484.65,-5996.3 9432.94,-6001.15 9412.35,-6002.35C9412.35,-6002.35 9412.59,-5999.26 9418.72,-5999.25L9424.95,-5999.25L9424.84,-5999.25L9424.59,-5997.83C9463.85,-6000.79 9456.7,-5989.19 9463.63,-5953.73L9416.24,-5952.09L9415.93,-5950.35L9412.95,-5948.61C9428.35,-5946.93 9480.69,-5957.41 9476.04,-5926.25L9488.91,-5926.25C9489.66,-5940.69 9483.91,-5945.21 9473.94,-5950.35L9465.54,-6000.04C9466.39,-6000.59 9468.4,-5998.92 9471.12,-5999.38C9474.75,-5999.98 9478.43,-6004.7 9479.72,-6008.29L9479.72,-6029.7L9472.82,-6031.56Z" style="fill:rgb(28,26,29);fill-opacity:0.4;"/>
                    </g>
                </g>
            </g>
        </g>
    </g>
</svg>
