<?xml version="1.0" encoding="UTF-8" standalone="no"?>
<!DOCTYPE svg PUBLIC "-//W3C//DTD SVG 1.1//EN" "http://www.w3.org/Graphics/SVG/1.1/DTD/svg11.dtd">
<svg width="100%" height="100%" viewBox="0 0 591 591" version="1.1" xmlns="http://www.w3.org/2000/svg" xmlns:xlink="http://www.w3.org/1999/xlink" xml:space="preserve" xmlns:serif="http://www.serif.com/" style="fill-rule:evenodd;clip-rule:evenodd;stroke-linecap:round;">
    <g transform="matrix(1,0,0,1,-1535,-286)">
        <g id="bK.svg" transform="matrix(13.1234,0,0,13.1234,1830.71,581.693)">
            <g id="bK.svg1" serif:id="bK.svg">
                <g id="bK.svg2" serif:id="bK.svg" transform="matrix(1,0,0,1,-22.5,-22.5)">
                    <path d="M22.5,39.685C18.833,39.685 14.368,38.89 11.5,37.065L11.5,29.565C11.5,29.565 2.841,24.308 7.458,18.196C11.396,12.982 20.034,19.508 20.034,19.508C20.034,19.508 18.862,15.841 19.5,14.565C19.5,14.565 21.75,11.863 21.75,11.695L21.75,8.815L20,8.815C19.586,8.815 19.25,8.479 19.25,8.065C19.25,7.651 19.586,7.315 20,7.315L21.75,7.315L21.75,6.065C21.75,5.651 22.25,5.315 22.5,5.315C22.75,5.315 23.25,5.651 23.25,6.065L23.25,7.315L25,7.315C25.414,7.315 25.75,7.651 25.75,8.065C25.75,8.479 25.414,8.815 25,8.815L23.25,8.815L23.25,11.695C23.25,11.863 25.5,14.565 25.5,14.565C26.138,15.841 24.966,19.508 24.966,19.508C24.966,19.508 33.604,12.982 37.542,18.196C42.159,24.308 33.5,29.565 33.5,29.565L33.5,37.065C30.632,38.89 26.167,39.685 22.5,39.685Z" style="fill:rgb(28,26,29);stroke:rgb(241,240,231);stroke-width:1px;"/>
                </g>
                <g id="bK.svg3" serif:id="bK.svg">
                </g>
            </g>
        </g>
    </g>
</svg>
