<?xml version="1.0" encoding="UTF-8" standalone="no"?>
<!DOCTYPE svg PUBLIC "-//W3C//DTD SVG 1.1//EN" "http://www.w3.org/Graphics/SVG/1.1/DTD/svg11.dtd">
<svg width="100%" height="100%" viewBox="0 0 592 591" version="1.1" xmlns="http://www.w3.org/2000/svg" xmlns:xlink="http://www.w3.org/1999/xlink" xml:space="preserve" xmlns:serif="http://www.serif.com/" style="fill-rule:evenodd;clip-rule:evenodd;stroke-linecap:round;stroke-linejoin:round;">
    <g transform="matrix(1,0,0,1,-944,-286)">
        <g id="bQ.svg" transform="matrix(13.1234,0,0,13.1234,1240.16,581.693)">
            <g id="bQ.svg1" serif:id="bQ.svg">
                <g id="bQ.svg2" serif:id="bQ.svg" transform="matrix(1,0,0,1,-22.5,-22.5)">
                    <path d="M31,11C29.903,11 29,10.097 29,9C29,7.903 29.903,7 31,7C32.097,7 33,7.903 33,9C33,10.097 32.097,11 31,11ZM22.5,9.5C21.403,9.5 20.5,8.597 20.5,7.5C20.5,6.403 21.403,5.5 22.5,5.5C23.597,5.5 24.5,6.403 24.5,7.5C24.5,8.597 23.597,9.5 22.5,9.5ZM14,10.5L19.5,24.5L22.5,9.5L25.5,24.5L31,11L31,25L38,14L35.947,26.597C35.674,28.025 32.5,31 33,33.5C34.5,34.5 34,38.5 34,38.5C27.5,39.5 17.5,39.5 11,38.5C11,38.5 10.5,34.5 12,33.5C12.5,31 9,28 9,26L7,14L14,25L14,10.5ZM14,10.5C12.903,10.5 12,9.597 12,8.5C12,7.403 12.903,6.5 14,6.5C15.097,6.5 16,7.403 16,8.5C16,9.597 15.097,10.5 14,10.5ZM8,12C8,13.097 7.097,14 6,14C4.903,14 4,13.097 4,12C4,10.903 4.903,10 6,10C7.097,10 8,10.903 8,12ZM41,12C41,13.097 40.097,14 39,14C37.903,14 37,13.097 37,12C37,10.903 37.903,10 39,10C40.097,10 41,10.903 41,12Z" style="fill:rgb(28,26,29);stroke:rgb(242,239,231);stroke-width:1px;"/>
                </g>
                <g id="bQ.svg3" serif:id="bQ.svg">
                </g>
            </g>
        </g>
    </g>
</svg>
