<?xml version="1.0" encoding="UTF-8" standalone="no"?>
<!DOCTYPE svg PUBLIC "-//W3C//DTD SVG 1.1//EN" "http://www.w3.org/Graphics/SVG/1.1/DTD/svg11.dtd">
<svg width="100%" height="100%" viewBox="0 0 591 592" version="1.1" xmlns="http://www.w3.org/2000/svg" xmlns:xlink="http://www.w3.org/1999/xlink" xml:space="preserve" xmlns:serif="http://www.serif.com/" style="fill-rule:evenodd;clip-rule:evenodd;stroke-linejoin:round;">
    <g transform="matrix(1,0,0,1,-1535,-2630)">
        <g transform="matrix(1,0,0,1,30.1273,-0.483919)">
            <g id="wB.svg" transform="matrix(13.1234,0,0,13.1234,1800.58,2926.67)">
                <g transform="matrix(1,0,0,1,-22.5,-22.5)">
                    <path d="M22.5,10.5C33.5,14.5 33,24.5 27.5,26C27.5,26 30.5,30.5 30,32C27.5,34.5 17.5,34.5 15,32C14.5,30.5 17.5,26 17.5,26C12,24.5 11.5,14.5 22.5,10.5ZM22.5,10.5C21.129,10.5 20,9.371 20,8C20,6.629 21.129,5.5 22.5,5.5C23.871,5.5 25,6.629 25,8C25,9.371 23.871,10.5 22.5,10.5ZM9,36C12.39,35.03 19.11,36.305 22.5,33.875C25.89,36.305 32.61,35.03 36,36C36,36 37.65,36.54 39,38C38.32,38.97 37.35,38.99 36,38.5C32.61,37.53 25.89,38.96 22.5,37.5C19.11,38.96 12.39,37.53 9,38.5C7.646,38.99 6.677,38.97 6,38C7.354,36.06 9,36 9,36Z" style="fill:rgb(242,239,231);stroke:rgb(28,26,29);stroke-width:1px;"/>
                </g>
            </g>
        </g>
    </g>
</svg>
