<?xml version="1.0" encoding="UTF-8" standalone="no"?>
<!DOCTYPE svg PUBLIC "-//W3C//DTD SVG 1.1//EN" "http://www.w3.org/Graphics/SVG/1.1/DTD/svg11.dtd">
<svg width="100%" height="100%" viewBox="0 0 592 592" version="1.1" xmlns="http://www.w3.org/2000/svg" xmlns:xlink="http://www.w3.org/1999/xlink" xml:space="preserve" xmlns:serif="http://www.serif.com/" style="fill-rule:evenodd;clip-rule:evenodd;stroke-linecap:round;stroke-linejoin:round;">
    <g transform="matrix(1,0,0,1,-944,-2630)">
        <g transform="matrix(1,0,0,1,30.1273,-0.483919)">
            <g id="wN.svg" transform="matrix(13.1234,0,0,13.1234,1210.03,2926.67)">
                <g transform="matrix(1,0,0,1,-22.5,-22.5)">
                    <path d="M23.235,20.435C21.602,22.986 17.83,25.782 16,27C13,29 13.18,31.34 11,31C9.958,30.06 11.19,29.23 10,30C9,30 5.997,31 6,26C6,24 12,14 12,14C12,14 13.89,12.1 14,10.5C13.27,9.506 13.5,8.5 13.5,7.5C14.5,6.5 16.5,10 16.5,10L18.5,10C18.5,10 19.28,8.008 21,7C22,7 22,10 22,10C32.5,11 38.5,18 38,39L15,39C15,30.541 23.835,32.241 23.235,20.435Z" style="fill:rgb(242,239,231);stroke:rgb(28,26,29);stroke-width:1px;"/>
                </g>
            </g>
        </g>
    </g>
</svg>
