<?xml version="1.0" encoding="UTF-8" standalone="no"?>
<!DOCTYPE svg PUBLIC "-//W3C//DTD SVG 1.1//EN" "http://www.w3.org/Graphics/SVG/1.1/DTD/svg11.dtd">
<svg width="100%" height="100%" viewBox="0 0 591 592" version="1.1" xmlns="http://www.w3.org/2000/svg" xmlns:xlink="http://www.w3.org/1999/xlink" xml:space="preserve" xmlns:serif="http://www.serif.com/" style="fill-rule:evenodd;clip-rule:evenodd;stroke-linecap:round;">
    <g transform="matrix(1,0,0,1,-354,-2630)">
        <g transform="matrix(1,0,0,1,30.1273,-0.483919)">
            <g id="wP.svg" transform="matrix(13.1234,0,0,13.1234,619.479,2926.67)">
                <g transform="matrix(1,0,0,1,-22.5,-22.5)">
                    <path d="M22.5,9C20.29,9 18.5,10.79 18.5,13C18.5,13.89 18.79,14.71 19.28,15.38C17.33,16.5 16,18.59 16,21C16,23.03 16.94,24.84 18.41,26.03C15.41,27.09 11,31.58 11,39.5L34,39.5C34,31.58 29.59,27.09 26.59,26.03C28.06,24.84 29,23.03 29,21C29,18.59 27.67,16.5 25.72,15.38C26.21,14.71 26.5,13.89 26.5,13C26.5,10.79 24.71,9 22.5,9Z" style="fill:rgb(241,240,231);fill-rule:nonzero;stroke:rgb(28,26,29);stroke-width:1px;"/>
                </g>
            </g>
        </g>
    </g>
</svg>
