<?xml version="1.0" encoding="UTF-8" standalone="no"?>
<!DOCTYPE svg PUBLIC "-//W3C//DTD SVG 1.1//EN" "http://www.w3.org/Graphics/SVG/1.1/DTD/svg11.dtd">
<svg width="100%" height="100%" viewBox="0 0 591 591" version="1.1" xmlns="http://www.w3.org/2000/svg" xmlns:xlink="http://www.w3.org/1999/xlink" xml:space="preserve" xmlns:serif="http://www.serif.com/" style="fill-rule:evenodd;clip-rule:evenodd;stroke-linejoin:round;">
    <g transform="matrix(1,0,0,1,-354,-2040)">
        <g transform="matrix(1,0,0,1,30.1273,-0.483919)">
            <g id="wR.svg" transform="matrix(13.1234,0,0,13.1234,619.479,2336.11)">
                <g transform="matrix(1,0,0,1,-22.5,-22.5)">
                    <path d="M12,36L12,32L14,29.5L14,17L11,14L11,9L15,9L15,11L20,11L20,9L25,9L25,11L30,11L30,9L34,9L34,14L31,17L31,29.5L33,32L33,36L36,36L36,39L9,39L9,36L12,36Z" style="fill:rgb(242,239,231);stroke:rgb(28,26,29);stroke-width:1px;"/>
                </g>
            </g>
        </g>
    </g>
</svg>
