<?xml version="1.0" encoding="UTF-8" standalone="no"?>
<!DOCTYPE svg PUBLIC "-//W3C//DTD SVG 1.1//EN" "http://www.w3.org/Graphics/SVG/1.1/DTD/svg11.dtd">
<svg width="100%" height="100%" viewBox="0 0 945 945" version="1.1" xmlns="http://www.w3.org/2000/svg" xmlns:xlink="http://www.w3.org/1999/xlink" xml:space="preserve" xmlns:serif="http://www.serif.com/" style="fill-rule:evenodd;clip-rule:evenodd;stroke-linejoin:round;stroke-miterlimit:2;">
    <g transform="matrix(1,0,0,1,-118.11,-118.11)">
        <rect id="Artboard1" x="0" y="0" width="1181.1" height="1181.1" style="fill:none;"/>
        <g id="Artboard11" serif:id="Artboard1">
            <g id="Ivory" transform="matrix(0.987574,0,0,1,0,0)">
                <rect x="0" y="0" width="1195.96" height="1181.1" style="fill:rgb(242,239,231);"/>
            </g>
            <g transform="matrix(118.11,0,0,118.11,118.11,118.11)">
                <g id="Boards">
                    <g id="Rosebud">
                        <rect id="f" x="0" y="1" width="1" height="1" style="fill:rgb(193,12,49);"/>
                        <g id="f1" serif:id="f" transform="matrix(1,0,0,1,1,-1)">
                            <rect x="0" y="1" width="1" height="1" style="fill:rgb(193,12,49);"/>
                        </g>
                        <g id="f2" serif:id="f" transform="matrix(1,0,0,1,2,0)">
                            <rect x="0" y="1" width="1" height="1" style="fill:rgb(193,12,49);"/>
                        </g>
                        <g id="f3" serif:id="f" transform="matrix(1,0,0,1,3,-1)">
                            <rect x="0" y="1" width="1" height="1" style="fill:rgb(193,12,49);"/>
                        </g>
                        <g id="f4" serif:id="f" transform="matrix(1,0,0,1,4,0)">
                            <rect x="0" y="1" width="1" height="1" style="fill:rgb(193,12,49);"/>
                        </g>
                        <g id="f5" serif:id="f" transform="matrix(1,0,0,1,5,-1)">
                            <rect x="0" y="1" width="1" height="1" style="fill:rgb(193,12,49);"/>
                        </g>
                        <g id="f6" serif:id="f" transform="matrix(1,0,0,1,6,0)">
                            <rect x="0" y="1" width="1" height="1" style="fill:rgb(193,12,49);"/>
                        </g>
                        <g id="f7" serif:id="f" transform="matrix(1,0,0,1,7,-1)">
                            <rect x="0" y="1" width="1" height="1" style="fill:rgb(193,12,49);"/>
                        </g>
                        <g id="f8" serif:id="f" transform="matrix(1,0,0,1,0,2)">
                            <rect x="0" y="1" width="1" height="1" style="fill:rgb(193,12,49);"/>
                        </g>
                        <g id="f9" serif:id="f" transform="matrix(1,0,0,1,1,1)">
                            <rect x="0" y="1" width="1" height="1" style="fill:rgb(193,12,49);"/>
                        </g>
                        <g id="f10" serif:id="f" transform="matrix(1,0,0,1,2,2)">
                            <rect x="0" y="1" width="1" height="1" style="fill:rgb(193,12,49);"/>
                        </g>
                        <g id="f11" serif:id="f" transform="matrix(1,0,0,1,3,1)">
                            <rect x="0" y="1" width="1" height="1" style="fill:rgb(193,12,49);"/>
                        </g>
                        <g id="f12" serif:id="f" transform="matrix(1,0,0,1,4,2)">
                            <rect x="0" y="1" width="1" height="1" style="fill:rgb(193,12,49);"/>
                        </g>
                        <g id="f13" serif:id="f" transform="matrix(1,0,0,1,5,1)">
                            <rect x="0" y="1" width="1" height="1" style="fill:rgb(193,12,49);"/>
                        </g>
                        <g id="f14" serif:id="f" transform="matrix(1,0,0,1,6,2)">
                            <rect x="0" y="1" width="1" height="1" style="fill:rgb(193,12,49);"/>
                        </g>
                        <g id="f15" serif:id="f" transform="matrix(1,0,0,1,7,1)">
                            <rect x="0" y="1" width="1" height="1" style="fill:rgb(193,12,49);"/>
                        </g>
                        <g id="f16" serif:id="f" transform="matrix(1,0,0,1,0,4)">
                            <rect x="0" y="1" width="1" height="1" style="fill:rgb(193,12,49);"/>
                        </g>
                        <g id="f17" serif:id="f" transform="matrix(1,0,0,1,1,3)">
                            <rect x="0" y="1" width="1" height="1" style="fill:rgb(193,12,49);"/>
                        </g>
                        <g id="f18" serif:id="f" transform="matrix(1,0,0,1,2,4)">
                            <rect x="0" y="1" width="1" height="1" style="fill:rgb(193,12,49);"/>
                        </g>
                        <g id="f19" serif:id="f" transform="matrix(1,0,0,1,3,3)">
                            <rect x="0" y="1" width="1" height="1" style="fill:rgb(193,12,49);"/>
                        </g>
                        <g id="f20" serif:id="f" transform="matrix(1,0,0,1,4,4)">
                            <rect x="0" y="1" width="1" height="1" style="fill:rgb(193,12,49);"/>
                        </g>
                        <g id="f21" serif:id="f" transform="matrix(1,0,0,1,5,3)">
                            <rect x="0" y="1" width="1" height="1" style="fill:rgb(193,12,49);"/>
                        </g>
                        <g id="f22" serif:id="f" transform="matrix(1,0,0,1,6,4)">
                            <rect x="0" y="1" width="1" height="1" style="fill:rgb(193,12,49);"/>
                        </g>
                        <g id="f23" serif:id="f" transform="matrix(1,0,0,1,7,3)">
                            <rect x="0" y="1" width="1" height="1" style="fill:rgb(193,12,49);"/>
                        </g>
                        <g id="f24" serif:id="f" transform="matrix(1,0,0,1,0,6)">
                            <rect x="0" y="1" width="1" height="1" style="fill:rgb(193,12,49);"/>
                        </g>
                        <g id="f25" serif:id="f" transform="matrix(1,0,0,1,1,5)">
                            <rect x="0" y="1" width="1" height="1" style="fill:rgb(193,12,49);"/>
                        </g>
                        <g id="f26" serif:id="f" transform="matrix(1,0,0,1,2,6)">
                            <rect x="0" y="1" width="1" height="1" style="fill:rgb(193,12,49);"/>
                        </g>
                        <g id="f27" serif:id="f" transform="matrix(1,0,0,1,3,5)">
                            <rect x="0" y="1" width="1" height="1" style="fill:rgb(193,12,49);"/>
                        </g>
                        <g id="f28" serif:id="f" transform="matrix(1,0,0,1,4,6)">
                            <rect x="0" y="1" width="1" height="1" style="fill:rgb(193,12,49);"/>
                        </g>
                        <g id="f29" serif:id="f" transform="matrix(1,0,0,1,5,5)">
                            <rect x="0" y="1" width="1" height="1" style="fill:rgb(193,12,49);"/>
                        </g>
                        <g id="f30" serif:id="f" transform="matrix(1,0,0,1,6,6)">
                            <rect x="0" y="1" width="1" height="1" style="fill:rgb(193,12,49);"/>
                        </g>
                        <g id="f31" serif:id="f" transform="matrix(1,0,0,1,7,5)">
                            <rect x="0" y="1" width="1" height="1" style="fill:rgb(193,12,49);"/>
                        </g>
                    </g>
                </g>
            </g>
        </g>
    </g>
</svg>
