<?xml version="1.0" encoding="UTF-8" standalone="no"?>
<!DOCTYPE svg PUBLIC "-//W3C//DTD SVG 1.1//EN" "http://www.w3.org/Graphics/SVG/1.1/DTD/svg11.dtd">
<svg width="100%" height="100%" viewBox="0 0 500 500" version="1.1" xmlns="http://www.w3.org/2000/svg" xmlns:xlink="http://www.w3.org/1999/xlink" xml:space="preserve" xmlns:serif="http://www.serif.com/" style="fill-rule:evenodd;clip-rule:evenodd;stroke-linejoin:round;stroke-miterlimit:2;">
    <g transform="matrix(1,0,0,1,-5937.13,-339.285)">
        <g transform="matrix(0.649519,0,0,0.649519,2812.4,77.7891)">
            <g transform="matrix(-0.125,0,0,0.125,5948.04,675)">
                <path d="M4286.41,600L4632.82,800L4979.23,600L4632.82,400L4286.41,600Z" style="fill:#110f12;"/>
            </g>
            <g transform="matrix(-0.125,0,0,0.125,5861.44,625)">
                <path d="M4286.41,600L4632.82,800L4979.23,600L4632.82,400L4286.41,600Z" style="fill:#110f12;"/>
            </g>
            <g transform="matrix(-0.125,0,0,0.125,5774.84,575)">
                <path d="M4286.41,600L4632.82,800L4979.23,600L4632.82,400L4286.41,600Z" style="fill:#110f12;"/>
            </g>
            <g transform="matrix(-0.125,0,0,0.125,6034.65,675)">
                <path d="M4286.41,600L4632.82,800L4979.23,600L4632.82,400L4286.41,600Z" style="fill:#110f12;"/>
            </g>
            <g transform="matrix(-0.125,0,0,0.125,5948.04,625)">
                <path d="M4286.41,600L4632.82,800L4979.23,600L4632.82,400L4286.41,600Z" style="fill:#110f12;"/>
            </g>
            <g transform="matrix(-0.125,0,0,0.125,5861.44,575)">
                <path d="M4286.41,600L4632.82,800L4979.23,600L4632.82,400L4286.41,600Z" style="fill:#110f12;"/>
            </g>
            <g transform="matrix(-0.125,0,0,0.125,5774.84,525)">
                <path d="M4286.41,600L4632.82,800L4979.23,600L4632.82,400L4286.41,600Z" style="fill:#110f12;"/>
            </g>
            <g transform="matrix(-0.125,0,0,0.125,5861.44,725)">
                <path d="M4286.41,600L4632.82,800L4979.23,600L4632.82,400L4286.41,600Z" style="fill:#110f12;"/>
            </g>
            <g transform="matrix(-0.125,0,0,0.125,5774.84,675)">
                <path d="M4286.41,600L4632.82,800L4979.23,600L4632.82,400L4286.41,600Z" style="fill:#110f12;"/>
            </g>
            <g transform="matrix(-0.125,0,0,0.125,5688.24,625)">
                <path d="M4286.41,600L4632.82,800L4979.23,600L4632.82,400L4286.41,600Z" style="fill:#110f12;"/>
            </g>
            <g transform="matrix(-0.125,0,0,0.125,5948.04,725)">
                <path d="M4286.41,600L4632.82,800L4979.23,600L4632.82,400L4286.41,600Z" style="fill:#110f12;"/>
            </g>
            <g transform="matrix(-0.125,0,0,0.125,5861.44,675)">
                <path d="M4286.41,600L4632.82,800L4979.23,600L4632.82,400L4286.41,600Z" style="fill:#110f12;"/>
            </g>
            <g transform="matrix(-0.125,0,0,0.125,5774.84,625)">
                <path d="M4286.41,600L4632.82,800L4979.23,600L4632.82,400L4286.41,600Z" style="fill:#110f12;"/>
            </g>
            <g transform="matrix(-0.125,0,0,0.125,5688.24,575)">
                <path d="M4286.41,600L4632.82,800L4979.23,600L4632.82,400L4286.41,600Z" style="fill:#110f12;"/>
            </g>
            <g transform="matrix(-0.125,0,0,0.125,5774.84,775)">
                <path d="M4286.41,600L4632.82,800L4979.23,600L4632.82,400L4286.41,600Z" style="fill:#110f12;"/>
            </g>
            <g transform="matrix(-0.125,0,0,0.125,5688.24,725)">
                <path d="M4286.41,600L4632.82,800L4979.23,600L4632.82,400L4286.41,600Z" style="fill:#110f12;"/>
            </g>
            <g transform="matrix(-0.125,0,0,0.125,5601.63,675)">
                <path d="M4286.41,600L4632.82,800L4979.23,600L4632.82,400L4286.41,600Z" style="fill:#110f12;"/>
            </g>
            <g transform="matrix(-0.125,0,0,0.125,5861.44,775)">
                <path d="M4286.41,600L4632.82,800L4979.23,600L4632.82,400L4286.41,600Z" style="fill:#110f12;"/>
            </g>
            <g transform="matrix(-0.125,0,0,0.125,5774.84,725)">
                <path d="M4286.41,600L4632.82,800L4979.23,600L4632.82,400L4286.41,600Z" style="fill:#110f12;"/>
            </g>
            <g transform="matrix(-0.125,0,0,0.125,5688.24,675)">
                <path d="M4286.41,600L4632.82,800L4979.23,600L4632.82,400L4286.41,600Z" style="fill:#110f12;"/>
            </g>
            <g transform="matrix(-0.125,0,0,0.125,5601.63,625)">
                <path d="M4286.41,600L4632.82,800L4979.23,600L4632.82,400L4286.41,600Z" style="fill:#110f12;"/>
            </g>
            <g transform="matrix(-0.125,0,0,0.125,5774.84,825)">
                <path d="M4286.41,600L4632.82,800L4979.23,600L4632.82,400L4286.41,600Z" style="fill:#110f12;"/>
            </g>
            <g transform="matrix(-0.125,0,0,0.125,5688.24,775)">
                <path d="M4286.41,600L4632.82,800L4979.23,600L4632.82,400L4286.41,600Z" style="fill:#110f12;"/>
            </g>
            <g transform="matrix(-0.125,0,0,0.125,5601.63,725)">
                <path d="M4286.41,600L4632.82,800L4979.23,600L4632.82,400L4286.41,600Z" style="fill:#110f12;"/>
            </g>
            <g transform="matrix(-0.125,0,0,0.125,5515.03,675)">
                <path d="M4286.41,600L4632.82,800L4979.23,600L4632.82,400L4286.41,600Z" style="fill:#110f12;"/>
            </g>
            <path d="M5498.85,800L5542.15,775L5542.15,800L5195.74,1000L4849.33,800L4849.33,775L4892.63,800L4935.93,775L4979.23,800L4935.93,825L4979.23,850L5022.53,825L5065.83,850L5022.53,875L5065.83,900L5109.13,875L5152.44,900L5109.13,925L5152.44,950L5195.74,925L5239.04,950L5282.34,925L5239.04,900L5282.34,875L5325.64,900L5368.94,875L5325.64,850L5368.94,825L5412.24,850L5455.54,825L5412.24,800L5455.54,775L5498.85,800Z" style="fill:#110f12;"/>
        </g>
        <g transform="matrix(1.88397,0,0,2.02462,-4366.73,-598.025)">
            <rect x="5469.24" y="462.956" width="265.398" height="246.96" style="fill:none;"/>
        </g>
    </g>
</svg>
