<?xml version="1.0" encoding="UTF-8" standalone="no"?>
<!DOCTYPE svg PUBLIC "-//W3C//DTD SVG 1.1//EN" "http://www.w3.org/Graphics/SVG/1.1/DTD/svg11.dtd">
<svg width="100%" height="100%" viewBox="0 0 591 591" version="1.1" xmlns="http://www.w3.org/2000/svg" xmlns:xlink="http://www.w3.org/1999/xlink" xml:space="preserve" xmlns:serif="http://www.serif.com/" style="fill-rule:evenodd;clip-rule:evenodd;">
    <g transform="matrix(1,0,0,1,-920,-885)">
        <g transform="matrix(1,0,0,1,187.688,-103.908)">
            <g id="bN.svg" transform="matrix(4.16667,0,0,4.16667,1027.67,1284.62)">
                <g id="bN.svg1" serif:id="bN.svg">
                    <g id="bN.svg2" serif:id="bN.svg" transform="matrix(1,0,0,1,-70.8661,-70.8661)">
                        <path d="M67.864,79.611C68.499,100.661 39.776,100.749 44.923,123.157L119.832,123.165C119.832,123.165 128.614,31.68 72.227,27.848C72.227,27.848 66.798,17.629 61.092,18.635C61.092,18.635 58.071,21.01 59.794,27.726L53.257,29.84C53.257,29.84 44.141,23.967 41.559,26.24C39.127,27.286 44.677,35.538 46.882,37.539C41.335,45.558 30.464,61.47 25.621,71.229C23.911,74.674 22.335,78.246 21.464,81.992C19.619,89.928 31.373,93.941 36.93,95.02C40.972,94.294 46.412,89.243 52.373,85.847C52.373,85.847 62.836,81.999 67.864,79.611Z" style="fill:rgb(28,26,29);stroke:rgb(242,239,231);stroke-width:3.12px;"/>
                        <path d="M67.864,79.614C67.864,79.614 80.43,74.322 79.838,63.074" style="fill:none;stroke:rgb(242,239,231);stroke-width:3.12px;stroke-linecap:round;"/>
                        <path d="M54.153,52.364C54.153,52.364 55.837,47.132 63.941,45.862" style="fill:none;stroke:rgb(242,239,231);stroke-width:3.97px;stroke-linecap:round;"/>
                        <ellipse cx="59.604" cy="51.026" rx="3.521" ry="3.311" style="fill:rgb(242,239,231);"/>
                        <path d="M25.994,82.888C25.994,82.888 26.714,80.955 28.613,79.719" style="fill:rgb(242,239,231);stroke:rgb(242,239,231);stroke-width:3.97px;stroke-linecap:round;"/>
                        <path d="M32.995,91.511C34.951,88.997 37.483,87.772 39.753,85.963" style="fill:rgb(242,239,231);stroke:rgb(242,239,231);stroke-width:3.4px;stroke-linecap:round;"/>
                        <path d="M87.324,42.157C99.527,49.62 111.305,68.377 110.313,116.084" style="fill:none;stroke:rgb(242,239,231);stroke-width:3.97px;stroke-linejoin:round;"/>
                    </g>
                    <g id="bN.svg3" serif:id="bN.svg">
                    </g>
                </g>
            </g>
        </g>
    </g>
</svg>
