<?xml version="1.0" encoding="UTF-8" standalone="no"?>
<!DOCTYPE svg PUBLIC "-//W3C//DTD SVG 1.1//EN" "http://www.w3.org/Graphics/SVG/1.1/DTD/svg11.dtd">
<svg width="100%" height="100%" viewBox="0 0 591 591" version="1.1" xmlns="http://www.w3.org/2000/svg" xmlns:xlink="http://www.w3.org/1999/xlink" xml:space="preserve" xmlns:serif="http://www.serif.com/" style="fill-rule:evenodd;clip-rule:evenodd;stroke-linecap:square;stroke-linejoin:round;">
    <g transform="matrix(1,0,0,1,-379,-885)">
        <g transform="matrix(1,0,0,1,187.688,-103.908)">
            <g id="bP.svg" transform="matrix(4.16667,0,0,4.16667,486.719,1284.62)">
                <g id="bP.svg1" serif:id="bP.svg">
                    <g id="bP.svg2" serif:id="bP.svg" transform="matrix(1,0,0,1,-70.8661,-70.8661)">
                        <path d="M109.009,123.165L32.825,123.165C25.835,106.94 44.368,91.899 57.396,86.791C41.825,78.077 50.267,55.862 63.609,54.06C60.435,51.956 58.844,47.463 58.844,43.855C58.844,40.85 60.114,38.149 62.34,36.045C64.565,33.942 67.422,32.74 70.917,32.74C74.095,32.74 76.955,33.942 79.495,36.045C81.72,38.149 82.99,40.853 82.99,43.858C82.99,47.463 81.403,51.956 78.225,54.06C92.84,59.769 98.101,80.782 84.441,86.791C102.231,93.101 114.729,109.043 109.009,123.165Z" style="fill:rgb(28,26,29);stroke:rgb(242,239,231);stroke-width:3.12px;"/>
                    </g>
                    <g id="bP.svg3" serif:id="bP.svg">
                    </g>
                </g>
            </g>
        </g>
    </g>
</svg>
