<?xml version="1.0" encoding="UTF-8" standalone="no"?>
<!DOCTYPE svg PUBLIC "-//W3C//DTD SVG 1.1//EN" "http://www.w3.org/Graphics/SVG/1.1/DTD/svg11.dtd">
<svg width="100%" height="100%" viewBox="0 0 591 592" version="1.1" xmlns="http://www.w3.org/2000/svg" xmlns:xlink="http://www.w3.org/1999/xlink" xml:space="preserve" xmlns:serif="http://www.serif.com/" style="fill-rule:evenodd;clip-rule:evenodd;">
    <g transform="matrix(1,0,0,1,-379,-294)">
        <g transform="matrix(1,0,0,1,187.688,-103.908)">
            <g id="bR.svg" transform="matrix(4.16667,0,0,4.16667,486.719,694.073)">
                <g transform="matrix(1,0,0,1,-70.8661,-70.8661)">
                    <g transform="matrix(1.0055,0,0,0.9198,-0.566929,9.92126)">
                        <path d="M62.169,18.556L62.169,26.872L50.573,26.872L50.573,19.536L34.143,19.536L34.143,42.143L46.993,51.049L46.993,86.672L36.079,93.719L36.079,108.496L27.377,108.496L27.377,123.177L114.35,123.177L114.35,108.493L105.653,108.493L105.653,93.719L94.74,86.672L94.74,51.146L107.586,42.043L107.586,19.536L91.157,19.536L91.157,26.87L78.593,26.87L78.593,18.556L62.169,18.556Z" style="fill:rgb(28,26,29);stroke:rgb(242,239,231);stroke-width:3.24px;"/>
                    </g>
                    <path d="M53.291,89.008L87.301,89.008M53.291,56.693L87.301,56.693" style="fill:none;stroke:rgb(242,239,231);stroke-width:3.97px;"/>
                </g>
            </g>
        </g>
    </g>
</svg>
