<?xml version="1.0" encoding="UTF-8" standalone="no"?>
<!DOCTYPE svg PUBLIC "-//W3C//DTD SVG 1.1//EN" "http://www.w3.org/Graphics/SVG/1.1/DTD/svg11.dtd">
<svg width="100%" height="100%" viewBox="0 0 591 591" version="1.1" xmlns="http://www.w3.org/2000/svg" xmlns:xlink="http://www.w3.org/1999/xlink" xml:space="preserve" xmlns:serif="http://www.serif.com/" style="fill-rule:evenodd;clip-rule:evenodd;">
    <g transform="matrix(1,0,0,1,-895,-2622)">
        <g transform="matrix(1,0,0,1,162.888,-103.908)">
            <g id="wN.svg" transform="matrix(4.16667,0,0,4.16667,1027.67,3021.62)">
                <g id="wN.svg1" serif:id="wN.svg">
                    <g id="wN.svg2" serif:id="wN.svg" transform="matrix(1,0,0,1,-70.8661,-70.8661)">
                        <g transform="matrix(1.0008,0,0,1.0001,1311.73,1029.71)">
                            <path d="M-1242.87,-950.029C-1242.24,-928.981 -1270.94,-928.894 -1265.79,-906.489L-1190.94,-906.483C-1190.94,-906.483 -1182.17,-997.957 -1238.52,-1001.79C-1238.52,-1001.79 -1243.94,-1012.01 -1249.64,-1011C-1249.64,-1011 -1252.66,-1008.63 -1250.94,-1001.91L-1257.47,-999.797C-1257.47,-999.797 -1266.58,-1005.67 -1269.16,-1003.4C-1271.59,-1002.35 -1266.05,-994.099 -1263.84,-992.098C-1272.66,-979.323 -1285.57,-963.443 -1289.24,-947.65C-1290.7,-941.369 -1282.76,-937.758 -1278.71,-935.974C-1277.15,-935.289 -1275.45,-934.954 -1273.79,-934.625C-1269.94,-935.316 -1261.06,-942.462 -1258.36,-943.795C-1253.37,-946.261 -1247.9,-947.643 -1242.87,-950.029Z" style="fill:rgb(242,239,231);stroke:rgb(28,26,29);stroke-width:3.12px;"/>
                        </g>
                        <path d="M67.864,79.614C67.864,79.614 80.43,74.322 79.838,63.074" style="fill:none;stroke:rgb(28,26,29);stroke-width:3.12px;stroke-linecap:round;"/>
                        <path d="M54.153,52.364C54.153,52.364 55.837,47.132 63.941,45.862" style="fill:rgb(28,26,29);stroke:rgb(28,26,29);stroke-width:3.97px;stroke-linecap:round;"/>
                        <ellipse cx="59.604" cy="51.026" rx="3.521" ry="3.311" style="fill:rgb(28,26,29);stroke:rgb(28,26,29);stroke-width:1px;stroke-linejoin:round;stroke-miterlimit:2;"/>
                        <path d="M25.994,82.888C25.994,82.888 26.714,80.955 28.613,79.719" style="fill:white;stroke:rgb(28,26,29);stroke-width:3.97px;stroke-linecap:round;"/>
                        <path d="M32.995,91.511C34.951,88.997 37.483,87.772 39.753,85.963" style="fill:white;stroke:rgb(28,26,29);stroke-width:3.4px;stroke-linecap:round;"/>
                        <path d="M87.324,42.157C99.527,49.62 111.305,68.377 110.313,116.084" style="fill:none;stroke:rgb(28,26,29);stroke-width:3.97px;stroke-linejoin:round;"/>
                    </g>
                    <g id="wN.svg3" serif:id="wN.svg">
                    </g>
                </g>
            </g>
        </g>
    </g>
</svg>
