<?xml version="1.0" encoding="UTF-8" standalone="no"?>
<!DOCTYPE svg PUBLIC "-//W3C//DTD SVG 1.1//EN" "http://www.w3.org/Graphics/SVG/1.1/DTD/svg11.dtd">
<svg width="100%" height="100%" viewBox="0 0 591 591" version="1.1" xmlns="http://www.w3.org/2000/svg" xmlns:xlink="http://www.w3.org/1999/xlink" xml:space="preserve" xmlns:serif="http://www.serif.com/" style="fill-rule:evenodd;clip-rule:evenodd;stroke-linecap:square;stroke-linejoin:round;">
    <g transform="matrix(1,0,0,1,-354,-2622)">
        <g transform="matrix(1,0,0,1,162.888,-103.908)">
            <g id="wP.svg" transform="matrix(4.16667,0,0,4.16667,486.719,3021.62)">
                <g id="wP.svg1" serif:id="wP.svg">
                    <g id="wP.svg2" serif:id="wP.svg" transform="matrix(1,0,0,1,-70.8661,-70.8661)">
                        <g transform="matrix(0.96658,0,0,0.97245,2.36126,3.52346)">
                            <path d="M110.347,123.026L31.518,123.026C24.287,106.345 43.461,90.879 56.94,85.626C40.833,76.669 49.564,53.824 63.374,51.97C60.086,49.808 58.442,45.187 58.442,41.482C58.442,38.392 59.754,35.609 62.056,33.449C64.358,31.286 67.317,30.047 70.931,30.047C74.22,30.047 77.179,31.286 79.809,33.449C82.111,35.609 83.424,38.39 83.424,41.479C83.424,45.187 81.78,49.808 78.491,51.97C93.617,57.838 99.062,79.447 84.926,85.626C103.334,92.115 116.266,108.507 110.347,123.026Z" style="fill:rgb(242,239,231);stroke:rgb(28,26,29);stroke-width:3.22px;"/>
                        </g>
                    </g>
                    <g id="wP.svg3" serif:id="wP.svg">
                    </g>
                </g>
            </g>
        </g>
    </g>
</svg>
